<?xml version="1.0" encoding="UTF-8" standalone="no"?>
<svg
  xmlns="http://www.w3.org/2000/svg"
  xmlns:xlink="http://www.w3.org/1999/xlink"
  version="1.1"
  viewBox="0 0 500 500" width="500" height="500">

  <line style="stroke-width: 30px; stroke: rgb(183, 28, 28);" x1="336.94" y1="111.757" x2="377.241" y2="147.362" transform="matrix(-0.118996, -0.992895, 0.992895, -0.118996, 271.387207, 499.447205)"></line>
  <line style="stroke-width: 30px; stroke: rgb(183, 28, 28);" x1="96.427" y1="127.324" x2="134.352" y2="166.601"></line>
  <path d="M 544.633 639.529 m -181.7 0 a 181.7 181.7 0 1 0 363.4 0 a 181.7 181.7 0 1 0 -363.4 0 Z M 544.633 639.529 m -140.258 0 a 140.258 140.258 0 0 1 280.516 0 a 140.258 140.258 0 0 1 -280.516 0 Z" data-bx-shape="ring 544.633 639.529 140.258 140.258 181.7 181.7 1@360c2ae1" style="fill: rgb(183, 28, 28);" transform="matrix(-0.629847, 0.776719, -0.776719, -0.629847, 1089.800293, 264.770844)"></path>
  <line style="stroke-width: 40px; stroke: rgb(183, 28, 28);" x1="330.023" y1="64.977" x2="422.952" y2="142.365" transform="matrix(0.996195, -0.087156, 0.087156, 0.996195, -7.602891, 33.207642)"></line>
  <line style="stroke: rgb(183, 28, 28); stroke-width: 40px;" x1="47.495" y1="166.34" x2="139.94" y2="89.715" transform="matrix(0.996195, -0.087156, 0.087156, 0.996195, -10.801737, 8.655227)"></line>
  <path d="M 240.253 356.158 H 355.174 L 355.174 356.158 L 372.099 364.4195 L 355.174 372.681 L 355.174 372.681 H 240.253 V 356.158 Z" data-bx-shape="arrow 240.253 356.158 131.846 16.523 16.523 16.925 0 1@e11ec847" style="fill: rgb(183, 28, 28);" transform="matrix(0.973071, 0.230507, -0.230507, 0.973071, 99.486305, -130.362411)"></path>
</svg>
