<?xml version="1.0" encoding="UTF-8" standalone="no"?>
<!-- Created with Inkscape (http://www.inkscape.org/) -->

<svg
   xmlns:osb="http://www.openswatchbook.org/uri/2009/osb"
   xmlns:dc="http://purl.org/dc/elements/1.1/"
   xmlns:cc="http://creativecommons.org/ns#"
   xmlns:rdf="http://www.w3.org/1999/02/22-rdf-syntax-ns#"
   xmlns:svg="http://www.w3.org/2000/svg"
   xmlns="http://www.w3.org/2000/svg"
   xmlns:xlink="http://www.w3.org/1999/xlink"
   xmlns:sodipodi="http://sodipodi.sourceforge.net/DTD/sodipodi-0.dtd"
   xmlns:inkscape="http://www.inkscape.org/namespaces/inkscape"
   width="512"
   height="512"
   id="svg9384"
   version="1.1"
   inkscape:version="0.48.4 r9939"
   sodipodi:docname="ic_launcher_web.svg"
   inkscape:export-filename="C:\sourcecontrolled\AndroidStudioProjects\BBQTimer\BBQ Timer\src\main\res\drawable-mdpi\ic_launcher.png"
   inkscape:export-xdpi="8.4399996"
   inkscape:export-ydpi="8.4399996">
  <defs
     id="defs9386">
    <linearGradient
       id="linearGradient7478"
       osb:paint="solid">
      <stop
         style="stop-color:#000000;stop-opacity:1;"
         offset="0"
         id="stop7480" />
    </linearGradient>
    <inkscape:path-effect
       effect="skeletal"
       id="path-effect5514"
       is_visible="true"
       pattern="m -0.26154704,-42.058293 v 10.57574"
       copytype="repeated"
       prop_scale="1"
       scale_y_rel="false"
       spacing="40.4"
       normal_offset="5"
       tang_offset="0"
       prop_units="false"
       vertical_pattern="false"
       fuse_tolerance="0" />
    <inkscape:path-effect
       effect="skeletal"
       id="path-effect5338"
       is_visible="true"
       pattern="M 0,0 V 10.57574"
       copytype="repeated"
       prop_scale="1"
       scale_y_rel="false"
       spacing="18.76"
       normal_offset="3"
       tang_offset="0"
       prop_units="false"
       vertical_pattern="false"
       fuse_tolerance="0" />
    <inkscape:path-effect
       effect="skeletal"
       id="path-effect5329"
       is_visible="true"
       pattern="M 0,0 1,0"
       copytype="single_stretched"
       prop_scale="1"
       scale_y_rel="false"
       spacing="0"
       normal_offset="0"
       tang_offset="0"
       prop_units="false"
       vertical_pattern="false"
       fuse_tolerance="0" />
    <filter
       id="filter12397"
       color-interpolation-filters="sRGB">
      <feGaussianBlur
         id="feGaussianBlur12399"
         stdDeviation="1.7810462" />
    </filter>
    <filter
       id="filter12470"
       color-interpolation-filters="sRGB">
      <feGaussianBlur
         id="feGaussianBlur12472"
         stdDeviation="1.3604296" />
    </filter>
    <radialGradient
       id="radialGradient11934"
       gradientUnits="userSpaceOnUse"
       cy="778.90002"
       cx="281.38"
       gradientTransform="matrix(0.17013,0.5543,-0.46204,0.14181,499.7,637.13)"
       r="164.86">
      <stop
         id="stop11930"
         stop-color="#666"
         offset="0" />
      <stop
         id="stop11932"
         stop-color="#fff"
         offset="1" />
    </radialGradient>
    <linearGradient
       id="linearGradient12516"
       y2="358.32001"
       gradientUnits="userSpaceOnUse"
       y1="256.16"
       x2="154.21001"
       x1="155.89">
      <stop
         id="stop12512"
         stop-color="#fff"
         offset="0" />
      <stop
         id="stop12514"
         stop-color="#999"
         offset="1" />
    </linearGradient>
    <radialGradient
       id="radialGradient7408"
       gradientUnits="userSpaceOnUse"
       cy="820.04999"
       cx="368.85001"
       gradientTransform="matrix(0.1126,0.043242,-0.8148,2.1217,995.5,-936)"
       r="23.292999">
      <stop
         id="stop7371"
         stop-color="#ccc"
         offset="0" />
      <stop
         id="stop7373"
         stop-color="#2d2d2d"
         offset="1" />
    </radialGradient>
    <radialGradient
       id="radialGradient7415"
       gradientUnits="userSpaceOnUse"
       cy="838.87"
       cx="441.44"
       gradientTransform="matrix(-0.51135,0.29816,-0.48749,-0.9623,1076.1,1514.6)"
       r="10.607">
      <stop
         id="stop7363"
         stop-color="#999"
         offset="0" />
      <stop
         id="stop7365"
         stop-color="#2d2d2d"
         offset="1" />
    </radialGradient>
    <radialGradient
       id="radialGradient11917"
       gradientUnits="userSpaceOnUse"
       cy="793.67999"
       cx="394.26001"
       gradientTransform="matrix(-1.0674,0.020074,-0.018004,-0.88068,829.37,1477.1)"
       r="206.88">
      <stop
         id="stop7389"
         stop-color="#fff"
         offset="0" />
      <stop
         id="stop7391"
         stop-color="#0e232e"
         stop-opacity="0"
         offset="1"
         style="stop-color:#7b8b93;stop-opacity:0;" />
    </radialGradient>
    <radialGradient
       id="radialGradient11948"
       gradientUnits="userSpaceOnUse"
       cy="682.25"
       cx="156"
       gradientTransform="matrix(-0.53906,-0.41982,0.29697,-0.38134,-18.586,1285.3)"
       r="182.11">
      <stop
         id="stop7397"
         stop-color="#fff"
         offset="0" />
      <stop
         id="stop7399"
         stop-color="#ccc"
         offset="1" />
    </radialGradient>
    <linearGradient
       id="linearGradient11960"
       x1="142.95"
       xlink:href="#linearGradient11952"
       gradientUnits="userSpaceOnUse"
       y1="87.762001"
       gradientTransform="matrix(0.43783,0,0,0.46429,58.206,823.64)"
       x2="164.67"
       y2="89.570999" />
    <linearGradient
       id="linearGradient11952">
      <stop
         id="stop11954"
         stop-color="#ccc"
         offset="0" />
      <stop
         id="stop11956"
         stop-color="#fff"
         offset="1" />
    </linearGradient>
    <linearGradient
       id="linearGradient11982"
       x1="176.42999"
       xlink:href="#linearGradient11976"
       gradientUnits="userSpaceOnUse"
       y1="701.31"
       gradientTransform="matrix(0.45921,0,0,0.5,53.446,512.18)"
       x2="154.71001"
       y2="701.31" />
    <linearGradient
       id="linearGradient11976">
      <stop
         id="stop11978"
         stop-color="#364e59"
         offset="0" />
      <stop
         id="stop11980"
         stop-color="#364e59"
         stop-opacity="0"
         offset="1" />
    </linearGradient>
    <linearGradient
       id="linearGradient12300"
       x1="180.95"
       xlink:href="#linearGradient12294"
       gradientUnits="userSpaceOnUse"
       y1="529.40997"
       gradientTransform="matrix(0.23356,0,0,0.25501,78.983,704.76)"
       x2="180.95"
       y2="571.92999" />
    <linearGradient
       id="linearGradient12294">
      <stop
         id="stop12296"
         stop-color="#ccc"
         offset="0" />
      <stop
         id="stop12298"
         stop-color="#999"
         offset="1" />
    </linearGradient>
    <linearGradient
       id="linearGradient12312"
       x1="201.75999"
       xlink:href="#linearGradient12306"
       gradientUnits="userSpaceOnUse"
       y1="580.08002"
       gradientTransform="matrix(0.23356,0,0,0.25501,78.983,704.76)"
       x2="200.86"
       y2="539.35999" />
    <linearGradient
       id="linearGradient12306">
      <stop
         id="stop12308"
         stop-color="#ccc"
         offset="0" />
      <stop
         id="stop12310"
         stop-color="#0e232e"
         offset="1" />
    </linearGradient>
    <linearGradient
       id="linearGradient12322"
       x1="204.48"
       xlink:href="#linearGradient12316"
       gradientUnits="userSpaceOnUse"
       y1="-114"
       gradientTransform="matrix(0.23356,0,0,0.25501,78.983,861.68)"
       x2="202.67"
       y2="-95.904999" />
    <linearGradient
       id="linearGradient12316">
      <stop
         id="stop12318"
         stop-color="#ccc"
         offset="0" />
      <stop
         id="stop12320"
         stop-color="#666"
         offset="1" />
    </linearGradient>
    <linearGradient
       id="linearGradient12340"
       x1="142.95"
       xlink:href="#linearGradient11952"
       gradientUnits="userSpaceOnUse"
       y1="87.762001"
       gradientTransform="matrix(0.19508,0.11263,-0.078841,0.13656,154.83,851.97)"
       x2="164.67"
       y2="89.570999" />
    <linearGradient
       id="linearGradient9991">
      <stop
         id="stop9993"
         stop-color="#ccc"
         offset="0" />
      <stop
         id="stop9995"
         stop-color="#fff"
         offset="1" />
    </linearGradient>
    <linearGradient
       id="linearGradient12342"
       x1="176.42999"
       xlink:href="#linearGradient11976"
       gradientUnits="userSpaceOnUse"
       y1="701.31"
       gradientTransform="matrix(0.20461,0.11813,-0.084906,0.14706,205.6,759.14)"
       x2="154.71001"
       y2="701.31" />
    <linearGradient
       id="linearGradient9998">
      <stop
         id="stop10000"
         stop-color="#364e59"
         offset="0" />
      <stop
         id="stop10002"
         stop-color="#364e59"
         stop-opacity="0"
         offset="1" />
    </linearGradient>
    <linearGradient
       id="linearGradient12344"
       x1="180.95"
       xlink:href="#linearGradient12294"
       gradientUnits="userSpaceOnUse"
       y1="529.40997"
       gradientTransform="matrix(0.10825,0.0625,-0.0625,0.10825,195.05,801.17)"
       x2="180.95"
       y2="571.92999" />
    <linearGradient
       id="linearGradient10005">
      <stop
         id="stop10007"
         stop-color="#ccc"
         offset="0" />
      <stop
         id="stop10009"
         stop-color="#999"
         offset="1" />
    </linearGradient>
    <linearGradient
       id="linearGradient12346"
       x1="201.75999"
       xlink:href="#linearGradient12306"
       gradientUnits="userSpaceOnUse"
       y1="580.08002"
       gradientTransform="matrix(0.10825,0.0625,-0.0625,0.10825,195.05,801.17)"
       x2="200.86"
       y2="539.35999" />
    <linearGradient
       id="linearGradient10012">
      <stop
         id="stop10014"
         stop-color="#ccc"
         offset="0" />
      <stop
         id="stop10016"
         stop-color="#0e232e"
         offset="1" />
    </linearGradient>
    <linearGradient
       id="linearGradient12348"
       x1="204.48"
       xlink:href="#linearGradient12316"
       gradientUnits="userSpaceOnUse"
       y1="-114"
       gradientTransform="matrix(0.10825,0.0625,-0.0625,0.10825,156.59,867.78)"
       x2="202.67"
       y2="-95.904999" />
    <linearGradient
       id="linearGradient10019">
      <stop
         id="stop10021"
         stop-color="#ccc"
         offset="0" />
      <stop
         id="stop10023"
         stop-color="#666"
         offset="1" />
    </linearGradient>
    <linearGradient
       id="linearGradient12358"
       x1="158.12"
       gradientUnits="userSpaceOnUse"
       x2="149.32001"
       y1="118.1"
       y2="90.795998">
      <stop
         id="stop12354"
         stop-color="#2d2d2d"
         offset="0" />
      <stop
         id="stop12356"
         stop-color="#2d2d2d"
         stop-opacity="0"
         offset="1" />
    </linearGradient>
    <filter
       id="filter12360"
       width="1.146"
       y="-0.35730001"
       x="-0.072995998"
       height="1.7146"
       color-interpolation-filters="sRGB">
      <feGaussianBlur
         id="feGaussianBlur12362"
         stdDeviation="2.5592131" />
    </filter>
    <linearGradient
       id="linearGradient10030"
       x1="158.12"
       gradientUnits="userSpaceOnUse"
       x2="149.32001"
       y1="118.1"
       y2="90.795998">
      <stop
         id="stop10032"
         stop-color="#2d2d2d"
         offset="0" />
      <stop
         id="stop10034"
         stop-color="#2d2d2d"
         stop-opacity="0"
         offset="1" />
    </linearGradient>
    <filter
       id="filter10036"
       width="1.146"
       y="-0.35730001"
       x="-0.072995998"
       height="1.7146"
       color-interpolation-filters="sRGB">
      <feGaussianBlur
         id="feGaussianBlur10038"
         stdDeviation="2.5592131" />
    </filter>
    <linearGradient
       id="linearGradient12480"
       y2="199.73"
       gradientUnits="userSpaceOnUse"
       y1="301.26001"
       x2="115.34"
       x1="110.32">
      <stop
         id="stop12476"
         stop-color="#fff"
         offset="0" />
      <stop
         id="stop12478"
         stop-color="#fff"
         stop-opacity="0"
         offset="1" />
    </linearGradient>
    <linearGradient
       id="linearGradient12448"
       x1="94.751999"
       gradientUnits="userSpaceOnUse"
       y1="805.58002"
       gradientTransform="translate(-39,98)"
       x2="82.024002"
       y2="890.42999">
      <stop
         id="stop12444"
         stop-color="#fff"
         offset="0"
         style="stop-color:#f9f9f9;stop-opacity:1;" />
      <stop
         id="stop12446"
         stop-color="#fff"
         stop-opacity="0"
         offset="1" />
    </linearGradient>
    <filter
       id="filter12524"
       width="1.0693001"
       y="-0.51980001"
       x="-0.034653001"
       height="2.0395999"
       color-interpolation-filters="sRGB">
      <feGaussianBlur
         id="feGaussianBlur12526"
         stdDeviation="2.1440456" />
    </filter>
    <linearGradient
       inkscape:collect="always"
       xlink:href="#linearGradient12480"
       id="linearGradient10845"
       gradientUnits="userSpaceOnUse"
       x1="110.32"
       y1="301.26001"
       x2="115.34"
       y2="199.73"
       gradientTransform="matrix(1.1148638,-0.68026862,0.46112955,0.88555456,-14.21704,-235.42013)" />
    <linearGradient
       inkscape:collect="always"
       xlink:href="#linearGradient12480"
       id="linearGradient11216"
       gradientUnits="userSpaceOnUse"
       gradientTransform="matrix(1.4978697,-0.86799939,0.6195483,1.1299372,-131.80238,157.16336)"
       x1="110.32"
       y1="301.26001"
       x2="115.34"
       y2="199.73" />
    <radialGradient
       inkscape:collect="always"
       xlink:href="#radialGradient11917"
       id="radialGradient4081"
       gradientUnits="userSpaceOnUse"
       gradientTransform="matrix(-0.22687302,0.00444815,-0.0038267,-0.19514764,358.84069,-23.458496)"
       cx="402.55374"
       cy="824.61499"
       fx="402.55374"
       fy="824.61499"
       r="206.88" />
    <inkscape:path-effect
       effect="skeletal"
       id="path-effect5338-8"
       is_visible="true"
       pattern="M -2.1431429e-5,0.28571114 V 10.861452"
       copytype="repeated"
       prop_scale="1.5"
       scale_y_rel="false"
       spacing="93.73"
       normal_offset="1"
       tang_offset="0"
       prop_units="false"
       vertical_pattern="false"
       fuse_tolerance="0" />
    <radialGradient
       inkscape:collect="always"
       xlink:href="#radialGradient11917"
       id="radialGradient5473"
       gradientUnits="userSpaceOnUse"
       gradientTransform="matrix(-0.41693763,0.008175,-0.00703255,-0.35865052,441.13138,515.33784)"
       cx="402.55374"
       cy="824.61499"
       fx="402.55374"
       fy="824.61499"
       r="206.88" />
    <radialGradient
       inkscape:collect="always"
       xlink:href="#radialGradient11917"
       id="radialGradient5522"
       gradientUnits="userSpaceOnUse"
       gradientTransform="matrix(-0.41693763,0.008175,-0.00703255,-0.35865052,441.13138,515.33784)"
       cx="402.55374"
       cy="824.61499"
       fx="402.55374"
       fy="824.61499"
       r="206.88" />
    <linearGradient
       inkscape:collect="always"
       xlink:href="#linearGradient12448"
       id="linearGradient6032"
       gradientUnits="userSpaceOnUse"
       gradientTransform="matrix(2.3660129,0,0,2.3660129,-137.15271,-2186.1044)"
       x1="63.212578"
       y1="787.42096"
       x2="100.18307"
       y2="934.87189" />
    <radialGradient
       inkscape:collect="always"
       xlink:href="#radialGradient7415"
       id="radialGradient6069"
       gradientUnits="userSpaceOnUse"
       gradientTransform="matrix(-0.57759126,-0.15917166,0.29965656,-0.94399837,265.9787,715.06064)"
       cx="441.44"
       cy="838.87"
       r="10.607" />
    <linearGradient
       inkscape:collect="always"
       xlink:href="#linearGradient12516"
       id="linearGradient6099"
       gradientUnits="userSpaceOnUse"
       gradientTransform="matrix(1.1622803,-0.01619655,0.01908923,1.2560454,61.729604,-503.79828)"
       x1="155.89"
       y1="256.16"
       x2="154.21001"
       y2="358.32001" />
    <radialGradient
       inkscape:collect="always"
       xlink:href="#radialGradient11934"
       id="radialGradient6102"
       gradientUnits="userSpaceOnUse"
       gradientTransform="matrix(0.40252977,1.311481,-1.0931926,0.33552428,1137.4185,-910.51588)"
       cx="281.38"
       cy="778.90002"
       r="164.86" />
    <radialGradient
       inkscape:collect="always"
       xlink:href="#radialGradient11948"
       id="radialGradient6106"
       gradientUnits="userSpaceOnUse"
       gradientTransform="matrix(-1.275423,-0.99329957,0.70263487,-0.90225539,-88.852927,623.06273)"
       cx="156"
       cy="682.25"
       r="182.11" />
    <linearGradient
       inkscape:collect="always"
       xlink:href="#linearGradient12316"
       id="linearGradient6133"
       gradientUnits="userSpaceOnUse"
       gradientTransform="matrix(0.2561209,0.14787581,-0.14787581,0.2561209,323.35445,-362.5337)"
       x1="204.48"
       y1="-114"
       x2="202.67"
       y2="-95.904999" />
    <linearGradient
       inkscape:collect="always"
       xlink:href="#linearGradient12306"
       id="linearGradient6136"
       gradientUnits="userSpaceOnUse"
       gradientTransform="matrix(0.2561209,0.14787581,-0.14787581,0.2561209,414.35131,-520.13383)"
       x1="201.75999"
       y1="580.08002"
       x2="200.86"
       y2="539.35999" />
    <linearGradient
       inkscape:collect="always"
       xlink:href="#linearGradient12294"
       id="linearGradient6139"
       gradientUnits="userSpaceOnUse"
       gradientTransform="matrix(0.2561209,0.14787581,-0.14787581,0.2561209,414.35131,-520.13383)"
       x1="180.95"
       y1="529.40997"
       x2="180.95"
       y2="571.92999" />
    <linearGradient
       inkscape:collect="always"
       xlink:href="#linearGradient11976"
       id="linearGradient6142"
       gradientUnits="userSpaceOnUse"
       gradientTransform="matrix(0.48410989,0.2794971,-0.20088868,0.34794586,439.31274,-619.57734)"
       x1="176.42999"
       y1="701.31"
       x2="154.71001"
       y2="701.31" />
    <linearGradient
       inkscape:collect="always"
       xlink:href="#linearGradient11952"
       id="linearGradient6146"
       gradientUnits="userSpaceOnUse"
       gradientTransform="matrix(0.46156179,0.26648402,-0.18653882,0.32310271,319.19027,-399.94036)"
       x1="142.95"
       y1="87.762001"
       x2="164.67"
       y2="89.570999" />
    <linearGradient
       inkscape:collect="always"
       xlink:href="#linearGradient12358"
       id="linearGradient6157"
       gradientUnits="userSpaceOnUse"
       x1="158.12"
       y1="118.1"
       x2="149.32001"
       y2="90.795998" />
    <linearGradient
       inkscape:collect="always"
       xlink:href="#linearGradient11952"
       id="linearGradient6168"
       gradientUnits="userSpaceOnUse"
       gradientTransform="matrix(1.0359114,0,0,0.92559103,92.837946,-450.75726)"
       x1="142.95"
       y1="87.762001"
       x2="164.67"
       y2="89.570999" />
    <linearGradient
       inkscape:collect="always"
       xlink:href="#linearGradient11976"
       id="linearGradient6170"
       gradientUnits="userSpaceOnUse"
       gradientTransform="matrix(1.0864968,0,0,0.99678118,81.575721,-1071.6721)"
       x1="176.42999"
       y1="701.31"
       x2="154.71001"
       y2="701.31" />
    <linearGradient
       inkscape:collect="always"
       xlink:href="#linearGradient12294"
       id="linearGradient6172"
       gradientUnits="userSpaceOnUse"
       gradientTransform="matrix(0.55260597,0,0,0.60335695,141.99659,-743.71854)"
       x1="180.95"
       y1="529.40997"
       x2="180.95"
       y2="571.92999" />
    <linearGradient
       inkscape:collect="always"
       xlink:href="#linearGradient12316"
       id="linearGradient6174"
       gradientUnits="userSpaceOnUse"
       gradientTransform="matrix(0.55260597,0,0,0.60335695,141.99659,-372.44379)"
       x1="204.48"
       y1="-114"
       x2="202.67"
       y2="-95.904999" />
    <linearGradient
       inkscape:collect="always"
       xlink:href="#linearGradient12306"
       id="linearGradient6176"
       gradientUnits="userSpaceOnUse"
       gradientTransform="matrix(0.55260597,0,0,0.60335695,141.99659,-743.71854)"
       x1="201.75999"
       y1="580.08002"
       x2="200.86"
       y2="539.35999" />
    <linearGradient
       inkscape:collect="always"
       xlink:href="#linearGradient12358"
       id="linearGradient6178"
       gradientUnits="userSpaceOnUse"
       x1="158.12"
       y1="118.1"
       x2="149.32001"
       y2="90.795998" />
    <linearGradient
       inkscape:collect="always"
       xlink:href="#linearGradient6703"
       id="linearGradient8161"
       gradientUnits="userSpaceOnUse"
       gradientTransform="matrix(1.1203271,0,0,1.1203271,-47.424313,71.19096)"
       x1="333.013"
       y1="76.54895"
       x2="388.77734"
       y2="96.291443" />
    <linearGradient
       id="linearGradient6703">
      <stop
         style="stop-color:#5f7079;stop-opacity:1;"
         offset="0"
         id="stop6705" />
      <stop
         style="stop-color:#d6dbde;stop-opacity:1;"
         offset="1"
         id="stop6707" />
    </linearGradient>
    <linearGradient
       inkscape:collect="always"
       xlink:href="#linearGradient6703"
       id="linearGradient8171"
       x1="369.79614"
       y1="138.1991"
       x2="442.70386"
       y2="181.54674"
       gradientUnits="userSpaceOnUse"
       gradientTransform="matrix(1.1370484,0,0,1.1203271,-54.608013,-18.435209)" />
    <linearGradient
       id="linearGradient8211">
      <stop
         style="stop-color:#5f7079;stop-opacity:1;"
         offset="0"
         id="stop8213" />
      <stop
         style="stop-color:#d6dbde;stop-opacity:1;"
         offset="1"
         id="stop8215" />
    </linearGradient>
    <linearGradient
       inkscape:collect="always"
       xlink:href="#linearGradient6703-6"
       id="linearGradient6709"
       x1="333.013"
       y1="76.54895"
       x2="443.71298"
       y2="90.497452"
       gradientUnits="userSpaceOnUse"
       gradientTransform="translate(-0.21459227,0)" />
    <linearGradient
       id="linearGradient6703-6">
      <stop
         style="stop-color:#5f7079;stop-opacity:1;"
         offset="0"
         id="stop6705-3" />
      <stop
         style="stop-color:#d6dbde;stop-opacity:1;"
         offset="1"
         id="stop6707-4" />
    </linearGradient>
    <linearGradient
       inkscape:collect="always"
       xlink:href="#linearGradient6703-9"
       id="linearGradient8315"
       gradientUnits="userSpaceOnUse"
       gradientTransform="matrix(1.1203271,0,0,1.1203271,-47.424313,71.19096)"
       x1="379.79736"
       y1="101.58269"
       x2="334.60596"
       y2="60.587582" />
    <linearGradient
       id="linearGradient6703-9">
      <stop
         style="stop-color:#5f7079;stop-opacity:1;"
         offset="0"
         id="stop6705-0" />
      <stop
         style="stop-color:#d6dbde;stop-opacity:1;"
         offset="1"
         id="stop6707-5" />
    </linearGradient>
    <linearGradient
       inkscape:collect="always"
       xlink:href="#linearGradient6703-9"
       id="linearGradient8366"
       gradientUnits="userSpaceOnUse"
       gradientTransform="matrix(1.1370484,0,0,1.1203271,-54.608013,-18.435209)"
       x1="369.79614"
       y1="138.1991"
       x2="442.70386"
       y2="181.54674" />
    <linearGradient
       id="linearGradient8398">
      <stop
         style="stop-color:#5f7079;stop-opacity:1;"
         offset="0"
         id="stop8400" />
      <stop
         style="stop-color:#d6dbde;stop-opacity:1;"
         offset="1"
         id="stop8402" />
    </linearGradient>
  </defs>
  <sodipodi:namedview
     id="base"
     pagecolor="#ffffff"
     bordercolor="#666666"
     borderopacity="1.0"
     inkscape:pageopacity="0.0"
     inkscape:pageshadow="2"
     inkscape:zoom="1"
     inkscape:cx="307.5188"
     inkscape:cy="248.32723"
     inkscape:current-layer="layer4"
     showgrid="true"
     inkscape:document-units="px"
     inkscape:grid-bbox="true"
     inkscape:window-width="1600"
     inkscape:window-height="878"
     inkscape:window-x="-8"
     inkscape:window-y="1192"
     inkscape:window-maximized="1" />
  <metadata
     id="metadata9389">
    <rdf:RDF>
      <cc:Work
         rdf:about="">
        <dc:format>image/svg+xml</dc:format>
        <dc:type
           rdf:resource="http://purl.org/dc/dcmitype/StillImage" />
        <dc:title />
      </cc:Work>
    </rdf:RDF>
  </metadata>
  <g
     id="layer1"
     inkscape:label="Layer 1"
     inkscape:groupmode="layer"
     transform="translate(0,448)"
     style="display:inline"
     sodipodi:insensitive="true">
    <path
       d="m 261.1419,-356.46663 c -118.81644,0 -215.139188,93.10024 -215.139188,207.95833 0,114.858099 96.322748,207.958339 215.139188,207.958339 118.81644,0 215.13918,-93.10024 215.13918,-207.958339 0,-114.85809 -96.32274,-207.95833 -215.13918,-207.95833 z m 0,24.61363 c 104.73156,0 189.63593,82.10301 189.63593,183.3447 0,101.241695 -84.90437,183.295021 -189.63593,183.295021 -104.73157,0 -189.635936,-82.053326 -189.635936,-183.295021 0,-101.24169 84.904366,-183.3447 189.635936,-183.3447 z"
       id="path11940"
       inkscape:connector-curvature="0"
       style="fill:url(#radialGradient6106);stroke:#000000;stroke-width:0.59150326;stroke-linecap:round;stroke-linejoin:bevel" />
    <g
       id="g6148">
      <path
         style="fill:url(#linearGradient6146);stroke-width:0"
         inkscape:connector-curvature="0"
         id="path12326"
         d="m 365.06727,-327.42208 10.0598,-16.04865 15.61971,8.62837 -9.03367,16.6113 z" />
      <path
         style="opacity:0.79203539;fill:#e5c7c0;fill-opacity:1;stroke-width:0"
         inkscape:connector-curvature="0"
         id="path12328"
         d="m 370.24133,-325.43339 8.67523,-15.27995 2.19274,0.89713 -8.89005,15.52483 z" />
      <path
         style="opacity:0.66341002;fill:url(#linearGradient6142);stroke-width:0"
         inkscape:connector-curvature="0"
         id="path12330"
         d="m 371.50282,-324.13332 8.71734,-16.40404 10.62505,5.74468 -9.16878,16.53323 z" />
      <path
         style="opacity:0.66341002;fill:url(#linearGradient6139);stroke-width:0"
         inkscape:connector-curvature="0"
         id="path12332"
         d="m 376.54243,-366.72155 c -0.2938,-0.16136 -0.733,0.0494 -0.91646,0.36735 l -8.87727,15.37578 c -0.20964,0.36311 -0.009,0.71738 0.26939,1.03063 0.0279,0.0312 0.0578,0.0607 0.0854,0.092 l 9.6351,-16.68843 c -0.0281,-0.0318 -0.0572,-0.0603 -0.0854,-0.092 -0.0346,-0.0392 -0.0689,-0.0623 -0.11103,-0.0854 z m 33.46725,19.33363 c -0.0405,-0.026 -0.0819,-0.0528 -0.13274,-0.0658 -0.58443,-0.15285 -1.17386,-0.29897 -1.75769,-0.44916 l -9.60743,16.64039 c 0.57587,0.16658 1.15196,0.3388 1.72996,0.49724 0.0672,0.019 0.13321,0.0307 0.20039,0.0409 l 9.51943,-16.48827 c 0.0279,-0.0485 0.0508,-0.10006 0.0751,-0.14881 -0.009,-0.009 -0.0165,-0.019 -0.0271,-0.0267 z m 0.19259,0.23926 c -0.0672,0.0868 -0.13676,0.18147 -0.19496,0.28231 l -9.33013,16.16011 c 0.24511,-0.009 0.45862,-0.11058 0.59188,-0.34128 l 8.87727,-15.37577 c 0.12659,-0.21909 0.14859,-0.5046 0.0561,-0.72543 z m -33.22119,-19.11573 -9.63038,16.6804 c 0.45896,0.50752 0.92727,1.00589 1.39309,1.48729 l 9.62115,-16.66429 c -0.45605,-0.4859 -0.92056,-0.98541 -1.38386,-1.50333 z m 30.88121,18.28786 c -0.65459,-0.16799 -1.31404,-0.3347 -1.96951,-0.50739 l -9.56579,16.56824 c 0.64058,0.19922 1.28426,0.39189 1.92794,0.57942 l 9.59797,-16.62432 c 0.002,-0.007 0.005,-0.0119 0.009,-0.0165 z m -29.35276,-16.62692 -9.62116,16.66431 c 0.94854,0.97328 1.90242,1.88912 2.87779,2.76067 l 9.57028,-16.5763 c -0.9274,-0.88221 -1.86964,-1.83419 -2.82691,-2.84868 z m 27.1145,16.04962 c -0.64726,-0.17225 -1.29281,-0.35131 -1.94298,-0.53484 l -9.51494,16.48022 c 0.62916,0.21176 1.26422,0.41626 1.8968,0.6149 l 9.56105,-16.56019 z m -1.99563,-0.55458 c -0.63767,-0.18077 -1.27474,-0.36337 -1.91651,-0.56228 l -9.46406,16.39222 c 0.62056,0.22476 1.24142,0.43981 1.86568,0.65029 l 9.51494,-16.48023 z m -22.20195,-12.5621 -9.56579,16.56824 c 0.49475,0.44022 0.99481,0.87495 1.49602,1.29061 l 9.53338,-16.5124 c -0.48409,-0.43158 -0.97175,-0.88039 -1.46366,-1.34664 z m 20.15961,11.95925 c -1.23,-0.38357 -2.47012,-0.80929 -3.7234,-1.29591 l -9.38076,16.24811 c 1.20694,0.50936 2.41641,0.99467 3.6401,1.44001 l 9.46406,-16.39221 z m -18.65247,-10.57703 -9.53337,16.51241 c 0.51353,0.42503 1.03352,0.82741 1.55359,1.2278 l 9.49174,-16.44025 c -0.50058,-0.41646 -1.00328,-0.84712 -1.51203,-1.29985 z m 1.72101,1.47387 -9.48723,16.43219 c 0.523,0.39867 1.04871,0.79215 1.57792,1.16715 l 9.45033,-16.36807 c -0.51081,-0.39108 -1.02194,-0.80345 -1.54098,-1.23121 z m 13.01355,7.73757 c -0.60153,-0.23638 -1.20494,-0.49065 -1.81364,-0.75893 l -9.35782,16.20814 c 0.59601,0.27358 1.19439,0.53539 1.79514,0.79096 l 9.37628,-16.24007 z m -11.26222,-6.35298 -9.44559,16.36026 c 0.53558,0.37592 1.06522,0.74549 1.60689,1.09851 0.009,-0.0119 0.0165,-0.0264 0.0236,-0.04 l 9.39473,-16.27226 c -0.51975,-0.36373 -1.05122,-0.74634 -1.5792,-1.14654 z m 9.06538,5.42597 c -0.58279,-0.26308 -1.17223,-0.54931 -1.76277,-0.84696 l -9.35308,16.20009 c 0.58347,0.29369 1.17431,0.57241 1.76279,0.84699 l 9.35308,-16.2001 z m -7.31145,-4.15732 -9.41318,16.3042 c 0.54782,0.35411 1.10289,0.69892 1.65649,1.03108 l 9.38076,-16.24812 c -0.53998,-0.34263 -1.07576,-0.70687 -1.62415,-1.08712 z m 5.42384,3.24877 c -0.56899,-0.28888 -1.14404,-0.59399 -1.7212,-0.91901 l -9.35781,16.20814 c 0.57352,0.31321 1.14702,0.61798 1.72581,0.91101 l 9.35309,-16.20009 z m -3.65218,-2.06602 -9.37626,16.24007 c 0.55743,0.33276 1.12184,0.65179 1.68556,0.96224 l 9.35782,-16.20814 c -0.55116,-0.31548 -1.10748,-0.64214 -1.66699,-0.99439 z" />
      <path
         inkscape:connector-curvature="0"
         id="path12334"
         style="text-indent:0;text-transform:none;block-progression:tb;opacity:0.47731999;color:#000000;fill:url(#linearGradient6136)"
         d="m 376.75536,-368.16482 c -0.24924,-0.137 -0.52406,-0.10571 -0.75314,-0.009 -0.22903,0.0977 -0.43063,0.26533 -0.55929,0.48813 l -8.87727,15.37577 c -0.14599,0.25296 -0.15546,0.54374 -0.0758,0.77804 0.0793,0.23424 0.22524,0.43069 0.3779,0.60239 0.0362,0.0407 0.0656,0.0698 0.0854,0.092 l 0.21674,-0.0241 0.032,0.29592 c 0.46149,0.51033 0.93323,1.00839 1.4011,1.49194 l 0.12493,-0.0141 0.019,0.17083 c 0.95297,0.97784 1.90849,1.90162 2.88914,2.77794 l 0.0837,-0.0165 0.009,0.0918 c 0.49643,0.44172 0.99918,0.87659 1.50397,1.2952 l 0.0378,-0.0119 0.005,0.0457 c 0.51846,0.42911 1.04914,0.83638 1.56958,1.23706 l 0.17202,-0.0395 0.0415,0.20536 c 0.52434,0.39972 1.05244,0.79375 1.58592,1.17176 l 0.17225,-0.0395 0.0426,0.18479 c 0.53604,0.37615 1.06804,0.74666 1.6149,1.10311 l 0.14669,-0.0327 0.0324,0.14669 c 0.55081,0.3561 1.10824,0.70197 1.66449,1.03569 l 0.12163,-0.0258 0.0303,0.11358 c 0.56146,0.3351 1.12835,0.65556 1.69357,0.96687 l 0.2146,-0.0574 0.0574,0.2146 c 0.57548,0.31434 1.15154,0.62084 1.73382,0.91565 l 0.10085,-0.0269 0.0236,0.0883 c 0.58797,0.29603 1.18154,0.57672 1.77078,0.85162 l 0.29164,-0.0985 0.0871,0.27438 c 0.59916,0.27506 1.20053,0.53926 1.80313,0.79556 l 0.14811,-0.0532 0.0419,0.13084 c 1.21014,0.51072 2.41831,0.99711 3.64816,1.44464 l 0.0975,-0.0398 0.0284,0.0804 c 0.62311,0.22573 1.24784,0.44399 1.87369,0.65493 l 0.0424,-0.019 0.0119,0.0379 c 0.63157,0.21248 1.2708,0.42035 1.9048,0.61949 l 0.20798,-0.0825 0.0565,0.16067 c 0.64266,0.19992 1.28754,0.38343 1.93254,0.57143 l 0.19519,-0.0793 0.0613,0.1526 c 0.57409,0.1661 1.15553,0.3422 1.73795,0.50181 0.0819,0.0236 0.16232,0.0398 0.23714,0.0513 l 0.21366,-0.11149 0.075,0.12872 c 0.31958,-0.0119 0.65376,-0.17106 0.83673,-0.48806 l 8.8773,-15.37577 c 0.1746,-0.30257 0.20158,-0.66551 0.0674,-0.98559 l -0.11972,-0.14386 -0.0837,0.0165 -0.0543,-0.20206 c 0.0522,0.0413 0.0433,0.0119 -0.0468,-0.0483 -0.002,-10e-4 -0.007,-0.005 -0.009,-0.005 -0.0419,-0.0267 -0.10763,-0.0728 -0.20938,-0.0996 -0.58692,-0.15355 -1.17556,-0.29941 -1.75773,-0.44916 l -0.18714,0.084 -0.0693,-0.15734 c -0.65556,-0.16822 -1.31611,-0.33526 -1.96951,-0.50742 l -0.19992,0.0876 -0.0693,-0.15734 c -0.645,-0.17154 -1.28564,-0.34693 -1.93485,-0.53069 l -0.0426,0.019 -0.009,-0.0379 c -0.63702,-0.18053 -1.27067,-0.35994 -1.90852,-0.55769 l -0.0975,0.0398 -0.0285,-0.0805 c -1.22455,-0.382 -2.46135,-0.80282 -3.7073,-1.28667 l -0.14812,0.0532 -0.0466,-0.12281 c -0.59702,-0.23446 -1.19522,-0.49531 -1.80101,-0.76233 l -0.29159,0.0985 -0.0837,-0.26177 c -0.57765,-0.26082 -1.16682,-0.54604 -1.75479,-0.84234 l -0.10085,0.0269 -0.0236,-0.0885 c -0.56575,-0.28744 -1.14037,-0.59175 -1.71321,-0.9144 l -0.20205,0.0542 -0.0542,-0.20207 c -0.54925,-0.3144 -1.10466,-0.6405 -1.65895,-0.98989 l -0.0914,0.13936 -0.0563,-0.23517 c -0.53463,-0.33941 -1.06922,-0.70327 -1.61615,-1.08251 l -0.13415,0.0292 -0.0325,-0.14669 c -0.5175,-0.36216 -1.0516,-0.73665 -1.57579,-1.13388 l -0.16751,0.0312 -0.0428,-0.18479 c -0.50672,-0.38805 -1.01549,-0.80012 -1.53295,-1.22656 l -0.16752,0.0312 -0.0415,-0.20537 c -0.49834,-0.41462 -0.99798,-0.8449 -1.504,-1.29522 l -0.0331,0.002 -0.0119,-0.0379 c -0.48173,-0.42947 -0.9658,-0.8777 -1.45563,-1.342 l -0.071,0.0119 -0.019,-0.0965 c -0.9229,-0.87792 -1.86134,-1.82025 -2.81556,-2.83141 l -0.12492,0.0141 -0.019,-0.17082 c -0.45541,-0.48519 -0.91507,-0.98358 -1.37584,-1.49869 l -0.21224,0.0165 -0.032,-0.29589 c -0.0373,-0.0422 -0.0667,-0.0708 -0.0856,-0.092 -0.0605,-0.0684 -0.13464,-0.12186 -0.18976,-0.15214 z m -0.33361,0.52243 -9.27452,16.06404 c -0.0276,-0.0473 -0.0851,-0.10176 -0.0992,-0.14244 -0.0381,-0.11216 -0.0336,-0.18195 0.0301,-0.29223 l 8.87727,-15.37577 c 0.0547,-0.0949 0.16514,-0.18904 0.27502,-0.23612 0.0885,-0.0379 0.14314,-0.0303 0.19142,-0.0166 z m 33.27561,19.24325 -9.33013,16.1601 c -0.44306,-0.12115 -0.8898,-0.25667 -1.33493,-0.38661 l 9.30695,-16.12012 c 0.45302,0.11522 0.90743,0.22975 1.35807,0.34651 z m -32.58709,-18.54789 c 0.32296,0.35602 0.64587,0.70769 0.96403,1.0475 l -9.31618,16.13622 c -0.32506,-0.33998 -0.64769,-0.6874 -0.96864,-1.03951 l 9.32067,-16.14402 z m 30.37723,17.97626 -9.29771,16.10403 c -0.4505,-0.1318 -0.89768,-0.26613 -1.34636,-0.40374 l 9.27003,-16.056 c 0.45934,0.11948 0.91661,0.23823 1.37409,0.35569 z m -28.8417,-16.33117 c 0.80916,0.84978 1.60897,1.65306 2.39772,2.40884 l -9.27452,16.06405 c -0.82272,-0.74497 -1.63509,-1.51771 -2.43936,-2.33688 l 9.31616,-16.1362 z m 26.60819,15.74582 -9.25158,16.02405 c -0.44037,-0.13911 -0.88598,-0.27792 -1.32449,-0.42311 l 9.21917,-15.96797 c 0.45341,0.12751 0.90428,0.24472 1.35678,0.36718 z m -1.99564,-0.55457 -9.2052,15.94408 c -0.43445,-0.1474 -0.86602,-0.29648 -1.298,-0.45056 l 9.16829,-15.87997 c 0.44584,0.13581 0.89282,0.26043 1.33494,0.38661 z m -21.68521,-12.27441 c 0.34063,0.31932 0.67904,0.63599 1.01609,0.93882 l -9.23763,15.99992 c -0.34754,-0.29286 -0.69403,-0.59352 -1.0392,-0.89881 l 9.26081,-16.04014 z m 19.65186,11.65546 -9.15906,15.86387 c -1.03545,-0.38156 -2.06128,-0.7875 -3.08624,-1.21629 l 9.08974,-15.74393 c 1.06154,0.4062 2.11188,0.76447 3.15556,1.09623 z m -18.14022,-10.28128 c 0.354,0.3108 0.70534,0.61477 1.05522,0.90803 l -9.20072,15.93604 c -0.36387,-0.2811 -0.72459,-0.56812 -1.08292,-0.85999 l 9.2284,-15.98408 z m 1.72567,1.46587 c 0.35944,0.29373 0.71809,0.57846 1.07491,0.85538 l -9.15434,15.85607 c -0.36702,-0.26463 -0.73722,-0.53044 -1.10264,-0.80738 l 9.18226,-15.90385 z m 12.5058,7.43378 -9.07578,15.71977 c -0.41853,-0.17958 -0.83038,-0.37136 -1.24593,-0.55924 l 9.06207,-15.69589 c 0.42109,0.18313 0.84143,0.3668 1.25977,0.53523 z m -10.74548,-6.06505 c 0.36825,0.27451 0.73597,0.53832 1.09927,0.79475 l -9.12216,15.8 c -0.37289,-0.24809 -0.74531,-0.50203 -1.11778,-0.76268 l 9.14062,-15.83195 z m 8.55786,5.12218 -9.05284,15.67982 c -0.41133,-0.19261 -0.82026,-0.39028 -1.22738,-0.59132 l 9.05284,-15.67981 c 0.41118,0.2049 0.81873,0.4022 1.2274,0.59129 z m -6.79447,-3.86961 c 0.37916,0.261 0.75321,0.51549 1.13041,0.75932 l -9.08975,15.74393 c -0.38597,-0.23376 -0.77075,-0.47462 -1.15346,-0.71936 l 9.11294,-15.78391 z m 4.91634,2.94521 -9.05734,15.68785 c -0.40193,-0.20631 -0.80428,-0.41475 -1.20432,-0.63124 l 9.06207,-15.69591 c 0.40073,0.22171 0.80337,0.43514 1.19966,0.63936 z m -3.13545,-1.77824 c 0.38967,0.24038 0.77063,0.47673 1.15474,0.69867 l -9.06207,15.69589 c -0.39233,-0.21839 -0.78478,-0.43888 -1.17332,-0.66649 l 9.08051,-15.72784 z" />
      <path
         style="fill:url(#linearGradient6133);stroke-width:0"
         inkscape:connector-curvature="0"
         id="path12336"
         d="m 376.58974,-368.56703 c 0,0 4.95183,1.33054 7.29134,2.35579 8.00682,3.50808 15.17088,6.38207 21.68523,12.21098 1.4578,1.30443 4.58911,5.43048 4.58911,5.43048 -10.12606,-3.54712 -18.84009,-2.94971 -33.56662,-19.99707 z" />
      <path
         style="opacity:0.30731997;fill:#ffffff;stroke-width:0"
         inkscape:connector-curvature="0"
         id="path12338"
         d="m 402.18187,-353.4817 c -0.51725,0.89592 -4.82695,-0.62401 -9.62624,-3.39501 -4.7993,-2.771 -8.27038,-5.74349 -7.75313,-6.63941 0.51724,-0.89589 4.82694,0.62403 9.62624,3.39502 4.7993,2.77101 8.27036,5.7435 7.75313,6.6394 z" />
    </g>
    <path
       transform="matrix(2.3918024,0,0,2.393222,-145.65853,-2208.0379)"
       d="m 168.34,769.92 c -52.15,0 -94.426,39.85 -94.426,89.012 0,49.162 42.277,89.012 94.426,89.012 52.15,0 94.426,-39.85 94.426,-89.012 0,-49.162 -42.277,-89.012 -94.426,-89.012 z m 0,10.535 c 45.967,0 83.233,35.143 83.233,78.477 0,43.335 -37.265,78.456 -83.233,78.456 -45.967,0 -83.232,-35.121 -83.232,-78.456 0,-43.335 37.265,-78.477 83.232,-78.477 z"
       id="path12375"
       inkscape:connector-curvature="0"
       style="fill:#be8072;fill-opacity:1;stroke-width:0;filter:url(#filter12470)" />
    <g
       id="g6159"
       transform="translate(0,-4)">
      <path
         style="fill:url(#linearGradient6168);stroke-width:0"
         inkscape:connector-curvature="0"
         id="path11950"
         d="m 240.53392,-351.87656 1.33652,-46.96036 34.67864,-0.83743 0.93725,46.89655 z" />
      <path
         style="opacity:0.80088495;fill:#e5c7c0;fill-opacity:1;stroke-width:0"
         inkscape:connector-curvature="0"
         id="path11962"
         d="m 251.1629,-355.28555 -0.24663,-43.59125 4.56285,-0.79255 0.12328,44.38467 z" />
      <path
         style="opacity:0.66341002;fill:url(#linearGradient6170);stroke-width:0"
         inkscape:connector-curvature="0"
         id="path11966"
         d="m 254.56438,-352.77367 -1.26856,-46.05927 23.46801,-0.8374 0.63426,46.89655 z" />
      <path
         style="opacity:0.92920353;fill:url(#linearGradient6172);stroke-width:0"
         inkscape:connector-curvature="0"
         id="rect11984"
         d="m 224.13746,-434.07843 c -0.62619,0.0141 -1.13976,0.83537 -1.13976,1.58383 v 36.2213 c 0,0.8554 0.65514,1.27697 1.39879,1.54611 0.0745,0.0267 0.15,0.0485 0.22452,0.0755 v -39.31366 c -0.0753,-0.0274 -0.14905,-0.0477 -0.22452,-0.0755 -0.0927,-0.034 -0.16964,-0.0398 -0.25903,-0.0375 z m 72.21781,0.019 c -0.0903,-0.005 -0.18196,-0.009 -0.27631,0.019 -1.08851,0.32609 -2.17871,0.6692 -3.26391,0.99933 v 39.2001 c 1.0874,-0.29331 2.18055,-0.5765 3.26391,-0.88619 0.12634,-0.036 0.24456,-0.0812 0.36267,-0.13201 v -38.84047 c 0,-0.11428 -0.0119,-0.22833 -0.0166,-0.33942 -0.0239,-0.005 -0.0448,-0.0165 -0.0691,-0.019 z m 0.53536,0.2262 c -0.0274,0.22192 -0.0518,0.46028 -0.0518,0.69764 v 38.06915 c 0.38778,-0.26679 0.63893,-0.66305 0.63893,-1.20674 v -36.22129 c 0,-0.51608 -0.23116,-1.04302 -0.58712,-1.33874 z m -71.61447,0.11311 v 39.29473 c 1.21681,0.42855 2.44028,0.83134 3.64365,1.20674 v -39.25689 c -1.19191,-0.39325 -2.41027,-0.80198 -3.64365,-1.24444 z m 67.05516,0.81078 c -1.21642,0.36997 -2.4389,0.74911 -3.66093,1.11245 v 39.02975 c 1.22273,-0.30135 2.44409,-0.61765 3.66093,-0.94276 v -39.16225 c 0,-0.0141 9e-5,-0.0245 0,-0.0375 z m -63.03058,0.56564 v 39.25689 c 2.44408,0.75203 4.84323,1.39708 7.23573,1.94206 v -39.04867 c -2.32488,-0.6127 -4.73888,-1.33351 -7.23573,-2.1495 z m 58.86876,0.69765 c -1.20801,0.35702 -2.4202,0.69849 -3.64366,1.03704 v 38.82153 c 1.21582,-0.26781 2.43464,-0.55411 3.64366,-0.84847 v -39.01082 z m -3.74729,1.05587 c -1.20059,0.33139 -2.40221,0.65831 -3.62639,0.96162 v 38.61569 c 1.21405,-0.23589 2.41972,-0.48916 3.62639,-0.75419 v -38.82389 z m -47.66333,0.45254 v 39.02973 c 1.21183,0.27312 2.42706,0.53107 3.62638,0.7542 v -38.89726 c -1.1865,-0.26873 -2.39487,-0.56422 -3.62638,-0.88621 z m 43.7949,0.56566 c -2.34869,0.57681 -4.75332,1.08981 -7.23574,1.50841 v 38.27498 c 2.42894,-0.33123 4.83943,-0.70751 7.23574,-1.16904 v -38.61567 z m -40.0637,0.33937 v 38.89726 c 1.22811,0.22713 2.44551,0.40763 3.66093,0.58452 v -38.72926 c -1.19904,-0.22525 -2.41474,-0.47326 -3.66093,-0.75421 z m 4.16182,0.84851 v 38.71033 c 1.21876,0.17082 2.437,0.32979 3.64366,0.45252 v -38.5589 c -1.19192,-0.17012 -2.40434,-0.3771 -3.64366,-0.60336 z m 28.28568,0.39594 c -1.19417,0.19592 -2.40813,0.36223 -3.64365,0.5091 v 38.18272 c 1.21999,-0.12469 2.43296,-0.27238 3.64365,-0.43366 v -38.25608 z m -24.15935,0.26396 v 38.53998 c 1.2179,0.11784 2.4202,0.23045 3.62638,0.30169 5.2e-4,-0.0312 0,-0.0626 0,-0.0944 v -38.33178 c -1.1808,-0.11239 -2.39818,-0.24635 -3.62638,-0.4148 z m 19.73846,0.33941 c -1.18885,0.12941 -2.41003,0.22524 -3.64366,0.30168 v 38.16379 c 1.21855,-0.0762 2.43486,-0.18644 3.64366,-0.30169 v -38.16378 z m -15.71483,0.11311 v 38.40748 c 1.21734,0.0669 2.4377,0.10979 3.64367,0.13204 v -38.27507 c -1.19387,-0.0547 -2.40104,-0.15167 -3.64367,-0.26399 z m 11.81186,0.20751 c -1.19058,0.0698 -2.40624,0.11782 -3.64367,0.13201 v 38.18272 c 1.22065,-0.0315 2.43345,-0.0781 3.64367,-0.15071 v -38.16379 z m -7.84002,0.0753 v 38.25606 c 1.21288,0.019 2.42421,0.005 3.62638,-0.019 v -38.18272 c -1.18665,0.005 -2.39204,-0.005 -3.62638,-0.0563 z" />
      <path
         style="fill:url(#linearGradient6174);stroke-width:0"
         inkscape:connector-curvature="0"
         id="path12314"
         d="m 222.5049,-437.39085 c 0,0 9.25609,-2.7001 13.99923,-3.2755 16.23346,-1.96927 30.50974,-4.19945 46.49689,-0.54589 3.57765,0.81757 12.49941,4.91303 12.49941,4.91303 -19.69943,4.06196 -33.24248,14.00631 -72.99623,-1.0918 z" />
      <path
         style="opacity:0.30731997;fill:#ffffff;stroke-width:0"
         inkscape:connector-curvature="0"
         id="path12324"
         d="m 277.9813,-436.8559 c 0,2.11047 -8.39398,3.82137 -18.7491,3.82137 -10.35512,0 -18.74911,-1.7109 -18.74911,-3.82137 0,-2.11046 8.39399,-3.82138 18.74911,-3.82138 10.35512,0 18.7491,1.71092 18.7491,3.82138 z" />
      <path
         inkscape:connector-curvature="0"
         id="path12292"
         style="text-indent:0;text-transform:none;block-progression:tb;opacity:0.47731999;color:#000000;fill:url(#linearGradient6176)"
         d="m 223.12007,-436.87033 c -0.53136,0.0119 -0.94678,0.34784 -1.22608,0.75422 -0.2793,0.40638 -0.44898,0.90807 -0.44898,1.43297 v 36.2213 c 0,0.59587 0.25704,1.11907 0.60439,1.45185 0.34736,0.33276 0.76666,0.53126 1.17427,0.67879 0.0964,0.0351 0.17131,0.0561 0.22455,0.0755 l 0.32811,-0.26398 0.32809,0.49025 c 1.22354,0.43089 2.45214,0.82966 3.66093,1.2067 l 0.19,-0.15071 0.18999,0.28281 c 2.45569,0.75557 4.86476,1.41299 7.27029,1.96095 l 0.1209,-0.11311 0.10334,0.1507 c 1.21599,0.27407 2.43581,0.52949 3.64365,0.75422 l 0.0519,-0.0565 0.0519,0.0755 c 1.23986,0.22928 2.47911,0.40751 3.69547,0.5845 l 0.24179,-0.24512 0.25902,0.32055 c 1.22193,0.1713 2.44457,0.32881 3.66094,0.45253 l 0.24176,-0.24512 0.24175,0.28284 c 1.21884,0.11781 2.42587,0.22973 3.64366,0.30168 l 0.20727,-0.2075 0.18998,0.22619 c 1.22401,0.0673 2.44907,0.10978 3.66094,0.13203 l 0.17272,-0.16964 0.15544,0.16964 c 1.22157,0.019 2.43818,0.005 3.64367,-0.019 l 0.29362,-0.32062 0.29358,0.32055 c 1.22489,-0.0315 2.44337,-0.0777 3.66093,-0.1507 l 0.13818,-0.15096 0.12089,0.13202 c 1.22802,-0.0769 2.45072,-0.18645 3.66094,-0.30169 l 0.37992,-0.47138 0.39719,0.39595 c 1.2265,-0.1254 2.44647,-0.27185 3.66094,-0.43363 l 0.19,-0.24516 0.18998,0.18857 c 2.43533,-0.33211 4.84488,-0.70521 7.25301,-1.16901 l 0.12091,-0.16964 0.1209,0.1131 c 1.21906,-0.23696 2.43392,-0.48854 3.64366,-0.75422 l 0.0518,-0.0755 0.0519,0.0565 c 1.22048,-0.26885 2.44906,-0.55345 3.66093,-0.84847 l 0.25904,-0.35824 0.24178,0.22619 c 1.22661,-0.30233 2.44173,-0.63584 3.66093,-0.96161 l 0.24175,-0.33941 0.2418,0.20749 c 1.08403,-0.29243 2.18953,-0.57412 3.28117,-0.8862 0.15356,-0.0438 0.3,-0.0942 0.43171,-0.15096 l 0.24179,-0.4148 0.24176,0.1507 c 0.50557,-0.3478 0.89796,-0.96925 0.89796,-1.7158 v -36.2213 c 0,-0.71268 -0.29546,-1.38142 -0.81161,-1.81008 l -0.32811,-0.13203 -0.1209,0.11311 -0.2763,-0.30168 c 0.12303,0.019 0.0795,-0.0267 -0.12091,-0.0375 -0.002,-2e-4 -0.0141,2e-4 -0.0165,0 -0.0932,-0.005 -0.24238,-0.019 -0.43171,0.0375 -1.09315,0.32746 -2.18194,0.67017 -3.26391,0.99931 l -0.22453,0.3394 -0.25905,-0.2075 c -1.2182,0.37055 -2.44291,0.75025 -3.66093,1.11246 l -0.24175,0.35823 -0.25902,-0.20749 c -1.20384,0.35578 -2.40436,0.69891 -3.62639,1.03705 l -0.0519,0.0755 -0.0518,-0.0565 c -1.19937,0.33103 -2.39251,0.66015 -3.60911,0.96161 l -0.12091,0.16964 -0.1209,-0.11311 c -2.33837,0.57428 -4.73274,1.0922 -7.20119,1.50841 l -0.19,0.24512 -0.18998,-0.16965 c -1.18522,0.19448 -2.39678,0.34406 -3.6264,0.49025 l -0.3799,0.47135 -0.37994,-0.3771 c -1.17839,0.12847 -2.39819,0.22548 -3.62639,0.3017 l -0.13818,0.1507 -0.1209,-0.13201 c -1.184,0.0695 -2.39819,0.11782 -3.62639,0.13201 l -0.2763,0.30169 -0.2763,-0.30169 c -1.18251,0.005 -2.38589,-0.005 -3.60912,-0.0565 l -0.0165,0.3394 -0.31085,-0.35826 c -1.18216,-0.0543 -2.3873,-0.15189 -3.62638,-0.26395 l -0.19,0.18858 -0.18999,-0.2262 c -1.17572,-0.11193 -2.38991,-0.22879 -3.60912,-0.39597 l -0.24175,0.22619 -0.24176,-0.28281 c -1.18248,-0.16871 -2.39062,-0.37777 -3.62639,-0.60338 l -0.24176,0.22618 -0.25903,-0.32051 c -1.19375,-0.2243 -2.40411,-0.47477 -3.64366,-0.75422 l -0.0519,0.0375 -0.0519,-0.0563 c -1.18069,-0.26741 -2.38281,-0.56555 -3.60912,-0.88617 l -0.10368,0.0944 -0.1209,-0.15095 c -2.31361,-0.60974 -4.71262,-1.3173 -7.2012,-2.13064 l -0.18998,0.15095 -0.19,-0.28283 c -1.19023,-0.39271 -2.3996,-0.80437 -3.62639,-1.24446 l -0.32812,0.24513 -0.3281,-0.49025 c -0.10007,-0.0364 -0.17391,-0.0568 -0.22455,-0.0755 -0.16183,-0.0591 -0.33169,-0.0781 -0.449,-0.0755 z m -0.0518,1.26329 v 37.84201 c -0.0892,-0.0552 -0.23283,-0.0925 -0.29359,-0.15094 -0.16609,-0.15926 -0.22453,-0.28729 -0.22453,-0.54682 v -36.2213 c 0,-0.22359 0.0907,-0.5026 0.22453,-0.69764 0.10809,-0.15734 0.20325,-0.19946 0.29359,-0.22618 z m 71.82031,0.0565 v 38.06913 c -0.8304,0.23668 -1.67965,0.45418 -2.52123,0.67879 v -37.97449 c 0.84091,-0.25777 1.68305,-0.51966 2.52123,-0.77308 z m -70.06,0.47138 c 0.85519,0.29955 1.70626,0.59154 2.53848,0.86735 v 38.01236 c -0.84364,-0.26909 -1.69025,-0.55379 -2.53848,-0.8485 v -38.03128 z m 65.95024,0.77306 v 37.93666 c -0.85221,0.22595 -1.70122,0.44549 -2.55577,0.65993 v -37.82309 c 0.85513,-0.25654 1.70594,-0.51324 2.55577,-0.77308 z m -61.92566,0.56569 c 2.10322,0.676 4.14786,1.27938 6.13057,1.8101 v 37.84202 c -2.02722,-0.47698 -4.06362,-1.01357 -6.13057,-1.6404 v -38.01235 z m 57.76384,0.67878 v 37.74739 c -0.8426,0.20323 -1.69327,0.41274 -2.5385,0.60335 v -37.61488 c 0.853,-0.23705 1.69215,-0.48935 2.5385,-0.73532 z m -3.74729,1.05589 v 37.56046 c -0.84068,0.18264 -1.67829,0.35949 -2.52123,0.52794 v -37.40903 c 0.84837,-0.21482 1.68801,-0.45066 2.52123,-0.67878 z m -46.55604,0.43367 c 0.84949,0.21673 1.69293,0.43102 2.52123,0.62221 v 37.69059 c -0.83598,-0.16302 -1.67751,-0.34072 -2.52123,-0.52793 v -37.78523 z m 42.6876,0.54681 v 37.37117 c -2.03196,0.38218 -4.07119,0.71127 -6.13033,0.99933 v -37.08725 c 2.09723,-0.36523 4.13153,-0.80364 6.13033,-1.28215 z m -38.95876,0.33938 c 0.86317,0.1881 1.71564,0.36671 2.55577,0.52795 v 37.54151 c -0.85146,-0.12562 -1.70329,-0.26465 -2.55577,-0.41482 v -37.65273 z m 4.16182,0.82963 c 0.85611,0.15236 1.70241,0.2895 2.53848,0.41482 v 37.35225 c -0.84112,-0.0932 -1.6885,-0.18503 -2.53848,-0.30168 v -37.46581 z m 27.18075,0.3771 v 37.03048 c -0.84489,0.10978 -1.69056,0.19093 -2.53849,0.28283 v -36.97605 c 0.85259,-0.10549 1.70421,-0.21034 2.53849,-0.33939 z m -23.05396,0.2451 c 0.85234,0.10934 1.69386,0.2004 2.52123,0.28283 v 37.21976 c -0.83513,-0.0582 -1.67502,-0.12682 -2.52123,-0.20751 v -37.29546 z m 18.63331,0.32054 v 36.93821 c -0.84562,0.0793 -1.69194,0.14739 -2.5385,0.20749 v -36.9382 c 0.85685,-0.0572 1.70055,-0.12444 2.5385,-0.2075 z m -14.60943,0.0944 c 0.8573,0.0739 1.70039,0.14243 2.53849,0.18857 v 37.08726 c -0.84295,-0.019 -1.69058,-0.0526 -2.53849,-0.0944 v -37.1819 z m 10.70668,0.18857 v 36.95712 c -0.8431,0.0457 -1.68895,0.0876 -2.53849,0.11311 v -36.97605 c 0.85563,-0.0165 1.70651,-0.051 2.53849,-0.0944 z m -6.73485,0.0565 c 0.85512,0.0274 1.69234,0.0563 2.52123,0.0565 v 36.97605 c -0.83879,0.0141 -1.67991,0.0251 -2.52123,0.019 v -37.0494 z" />
    </g>
    <path
       transform="matrix(0.25433367,0,0,0.48874898,334.05592,-378.54133)"
       d="m 209,113.55 c 0,4.747 -18.836,8.5952 -42.071,8.5952 -23.235,0 -42.071,-3.8482 -42.071,-8.5952 0,-4.747 18.836,-8.5952 42.071,-8.5952 23.235,0 42.071,3.8482 42.071,8.5952 z"
       id="path12364"
       inkscape:connector-curvature="0"
       style="opacity:0.47805002;fill:url(#linearGradient6157);stroke-width:0;filter:url(#filter12360)" />
    <path
       d="m 261.1419,-337.01801 c -107.71037,0 -195.028079,84.39805 -195.028079,188.51917 0,104.121135 87.317709,188.519182 195.028079,188.519182 107.71037,0 195.02807,-84.398047 195.02807,-188.519182 0,-104.12112 -87.3177,-188.51917 -195.02807,-188.51917 z m 0,22.31268 c 94.94099,0 171.90975,74.42768 171.90975,166.20531 0,91.777643 -76.96639,166.160357 -171.90975,166.160357 -94.94099,0 -171.909768,-74.382714 -171.909768,-166.160357 0,-91.77763 76.966398,-166.20531 171.909768,-166.20531 z"
       id="path11919"
       inkscape:connector-curvature="0"
       style="fill:url(#radialGradient6102);stroke-width:0" />
    <path
       d="M 450.16596,-150.30817 C 451.73145,-47.299895 365.79462,37.417221 258.2256,38.916211 150.65191,40.415267 62.181597,-41.873973 60.616127,-144.87973 59.05062,-247.88801 144.98745,-332.60512 252.55648,-334.10411 c 107.57368,-1.49906 196.04399,80.79018 197.60948,183.79594 z"
       id="path7337"
       inkscape:connector-curvature="0"
       style="fill:url(#linearGradient6099);stroke:#8e8e8e;stroke-width:1.42395663;stroke-linecap:round;stroke-linejoin:bevel" />
    <g
       id="text5710"
       style="fill:#0e232e"
       transform="matrix(2.3660129,0,0,2.3660129,-62.135786,-2430.0914)">
      <path
         d="m 95.665,911.26 v -1.3292 c 0.48246,0.29539 0.9961,0.44308 1.5409,0.44308 0.41026,0 0.73108,-0.0976 0.96247,-0.29292 0.23138,-0.19528 0.34708,-0.46031 0.34708,-0.79508 -3e-6,-0.69908 -0.49395,-1.0486 -1.4819,-1.0486 -0.32164,0 -0.71057,0.0295 -1.1668,0.0886 v -3.9434 h 3.9089 v 1.2702 h -2.5797 v 1.4129 c 0.20677,-0.0197 0.40205,-0.0295 0.58585,-0.0295 0.72533,10e-6 1.2931,0.19037 1.7034,0.57108 0.41025,0.38073 0.61539,0.89273 0.61539,1.536 0,0.71221 -0.24452,1.294 -0.73354,1.7452 -0.48903,0.45128 -1.152,0.67692 -1.9889,0.67692 -0.67939,0 -1.2505,-0.10174 -1.7132,-0.30523 z"
         id="path3337"
         inkscape:connector-curvature="0" />
      <path
         d="m 101.47,911.26 v -1.3292 c 0.48247,0.29539 0.99611,0.44308 1.5409,0.44308 0.41026,0 0.73108,-0.0976 0.96247,-0.29292 0.23138,-0.19528 0.34707,-0.46031 0.34708,-0.79508 -10e-6,-0.69908 -0.49396,-1.0486 -1.4818,-1.0486 -0.32165,0 -0.71057,0.0295 -1.1668,0.0886 v -3.9434 h 3.9089 v 1.2702 h -2.5797 v 1.4129 c 0.20676,-0.0197 0.40205,-0.0295 0.58585,-0.0295 0.72533,10e-6 1.2931,0.19037 1.7034,0.57108 0.41025,0.38073 0.61538,0.89273 0.61538,1.536 0,0.71221 -0.24451,1.294 -0.73354,1.7452 -0.48903,0.45128 -1.152,0.67692 -1.9889,0.67692 -0.67939,0 -1.2505,-0.10174 -1.7132,-0.30523 z"
         id="path3339"
         inkscape:connector-curvature="0" />
    </g>
    <g
       id="text5730"
       style="fill:#0e232e"
       transform="matrix(2.3660129,0,0,2.3660129,-66.760241,-2419.4354)">
      <path
         d="m 72.707,961.93 h -0.84677 v 1.5016 h -1.4179 V 961.93 h -3.0769 v -0.98954 l 2.9637,-4.5686 h 1.5311 v 4.4505 H 72.707 z m -2.2449,-4.0025 h -0.02954 c -0.04595,0.11816 -0.13457,0.30196 -0.26585,0.55139 l -1.5114,2.3434 h 1.7871 v -2.2203 c -3e-6,-0.19692 0.0066,-0.42174 0.01969,-0.67447 z"
         id="path3332"
         inkscape:connector-curvature="0" />
      <path
         d="m 73.79,963.25 v -1.3292 c 0.48246,0.29538 0.9961,0.44307 1.5409,0.44307 0.41026,0 0.73108,-0.0976 0.96247,-0.29292 0.23138,-0.19528 0.34707,-0.46031 0.34708,-0.79508 -4e-6,-0.69908 -0.49395,-1.0486 -1.4819,-1.0486 -0.32164,0 -0.71057,0.0295 -1.1668,0.0886 v -3.9434 h 3.9089 v 1.2702 h -2.5797 v 1.4129 c 0.20677,-0.0197 0.40205,-0.0295 0.58585,-0.0295 0.72533,10e-6 1.2931,0.19037 1.7034,0.57108 0.41025,0.38073 0.61538,0.89273 0.61539,1.536 -5e-6,0.71221 -0.24452,1.294 -0.73354,1.7452 -0.48903,0.45128 -1.152,0.67692 -1.9889,0.67692 -0.67939,0 -1.2505,-0.10174 -1.7132,-0.30523 z"
         id="path3334"
         inkscape:connector-curvature="0" />
    </g>
    <g
       id="text5758"
       style="fill:#0e232e"
       transform="matrix(2.3660129,0,0,2.3660129,-35.833036,-2427.0188)">
      <path
         d="m 180.48,934.26 h -4.4652 v -1.2308 h 1.4622 v -4.3963 l -1.5015,0.32493 v -1.2603 l 3.0523,-0.61538 v 5.9471 h 1.4523 z"
         id="path3324"
         inkscape:connector-curvature="0" />
      <path
         d="m 183.86,934.38 c -1.6804,0 -2.5206,-1.1799 -2.5206,-3.5397 0,-1.2242 0.22728,-2.1571 0.68185,-2.7988 0.45456,-0.64164 1.1134,-0.96246 1.9766,-0.96246 1.641,0 2.4615,1.1996 2.4616,3.5988 -1e-5,1.1947 -0.22401,2.1104 -0.67201,2.7471 -0.448,0.63672 -1.0905,0.95508 -1.9274,0.95508 z m 0.0689,-6.1145 c -0.67283,10e-6 -1.0092,0.84514 -1.0092,2.5354 0,1.5918 0.32985,2.3877 0.98954,2.3877 0.64328,0 0.96493,-0.82052 0.96493,-2.4616 0,-1.641 -0.31508,-2.4615 -0.94523,-2.4616 z"
         id="path3326"
         inkscape:connector-curvature="0" />
    </g>
    <g
       id="text5762"
       style="fill:#0e232e"
       transform="matrix(2.3660129,0,0,2.3660129,-24.526569,-2420.235)">
      <path
         d="m 184.81,963.92 h -4.4652 v -1.2308 h 1.4622 v -4.3963 l -1.5016,0.32492 v -1.2603 l 3.0523,-0.61539 v 5.9471 h 1.4523 z"
         id="path3319"
         inkscape:connector-curvature="0" />
      <path
         d="m 186.13,963.73 v -1.3292 c 0.48247,0.29538 0.99611,0.44308 1.5409,0.44308 0.41026,0 0.73108,-0.0976 0.96247,-0.29293 0.23138,-0.19528 0.34707,-0.46031 0.34708,-0.79508 -1e-5,-0.69907 -0.49396,-1.0486 -1.4819,-1.0486 -0.32164,10e-6 -0.71056,0.0295 -1.1668,0.0886 v -3.9434 h 3.9089 v 1.2702 h -2.5797 v 1.4129 c 0.20676,-0.0197 0.40205,-0.0295 0.58585,-0.0295 0.72533,0 1.2931,0.19036 1.7034,0.57108 0.41025,0.38072 0.61538,0.89272 0.61538,1.536 0,0.71221 -0.24452,1.294 -0.73354,1.7452 -0.48903,0.45128 -1.152,0.67693 -1.9889,0.67693 -0.67939,0 -1.2505,-0.10175 -1.7132,-0.30524 z"
         id="path3321"
         inkscape:connector-curvature="0" />
    </g>
    <g
       id="text5766"
       style="fill:#0e232e"
       transform="matrix(2.3660129,0,0,2.3660129,-33.571743,-2412.8858)">
      <path
         d="m 176.72,992.79 v 0.0295 h 2.8652 v 1.2899 h -4.6474 v -1.2111 l 2.0234,-1.9348 c 0.40697,-0.39057 0.69333,-0.71795 0.85908,-0.98216 0.16574,-0.2642 0.24861,-0.54236 0.24862,-0.83447 -1e-5,-0.64984 -0.34955,-0.97476 -1.0486,-0.97477 -0.60719,10e-6 -1.1881,0.24124 -1.7428,0.7237 v -1.3686 c 0.61374,-0.39713 1.3063,-0.59569 2.0776,-0.5957 0.72205,10e-6 1.2857,0.18134 1.6911,0.544 0.40533,0.36268 0.608,0.85252 0.608,1.4696 0,0.8238 -0.49395,1.6755 -1.4818,2.5551 z"
         id="path3314"
         inkscape:connector-curvature="0" />
      <path
         d="m 183.07,994.23 c -1.6804,0 -2.5206,-1.1799 -2.5206,-3.5397 0,-1.2242 0.22728,-2.1571 0.68185,-2.7988 0.45456,-0.64164 1.1134,-0.96246 1.9766,-0.96247 1.641,10e-6 2.4615,1.1996 2.4616,3.5988 -1e-5,1.1947 -0.22401,2.1104 -0.672,2.7471 -0.44801,0.63672 -1.0905,0.95508 -1.9274,0.95508 z m 0.0689,-6.1145 c -0.67283,0 -1.0092,0.84513 -1.0092,2.5354 0,1.5918 0.32985,2.3877 0.98955,2.3877 0.64328,0 0.96492,-0.82051 0.96492,-2.4615 0,-1.64099 -0.31508,-2.4616 -0.94523,-2.4616 z"
         id="path3316"
         inkscape:connector-curvature="0" />
    </g>
    <g
       transform="matrix(2.2824926,0,0,2.4526089,-35.833036,-2399.8833)"
       id="text5770"
       style="fill:#0e232e">
      <path
         d="m 161.1,974.25 v 0.0295 h 2.8652 v 1.2898 h -4.6474 v -1.2111 l 2.0234,-1.9348 c 0.40697,-0.39056 0.69333,-0.71795 0.85908,-0.98216 0.16574,-0.2642 0.24861,-0.54235 0.24862,-0.83446 -1e-5,-0.64985 -0.34955,-0.97477 -1.0486,-0.97478 -0.60719,1e-5 -1.1881,0.24124 -1.7428,0.7237 v -1.3686 c 0.61374,-0.39712 1.3063,-0.59569 2.0776,-0.5957 0.72205,10e-6 1.2857,0.18134 1.6911,0.54401 0.40533,0.36267 0.608,0.85252 0.608,1.4695 0,0.8238 -0.49395,1.6755 -1.4818,2.5551 z"
         id="path3309"
         inkscape:connector-curvature="0" />
      <path
         d="m 165.39,975.39 v -1.3292 c 0.48246,0.29539 0.99611,0.44308 1.5409,0.44308 0.41026,0 0.73108,-0.0976 0.96247,-0.29293 0.23138,-0.19528 0.34707,-0.4603 0.34707,-0.79508 0,-0.69907 -0.49395,-1.0486 -1.4818,-1.0486 -0.32164,1e-5 -0.71057,0.0295 -1.1668,0.0886 v -3.9434 h 3.9089 v 1.2702 h -2.5797 v 1.4129 c 0.20677,-0.0197 0.40205,-0.0295 0.58585,-0.0295 0.72533,0 1.2931,0.19036 1.7034,0.57108 0.41026,0.38072 0.61539,0.89272 0.61539,1.536 0,0.71221 -0.24452,1.294 -0.73354,1.7452 -0.48903,0.45128 -1.152,0.67693 -1.9889,0.67693 -0.67939,0 -1.2505,-0.10175 -1.7132,-0.30524 z"
         id="path3311"
         inkscape:connector-curvature="0" />
    </g>
    <g
       id="text5774"
       style="fill:#0e232e"
       transform="matrix(2.3660129,0,0,2.3660129,-44.708571,-2401.7448)">
      <path
         d="m 123.81,1020.8 v -1.3538 c 0.47262,0.3446 1.024,0.5169 1.6542,0.5169 0.39713,0 0.70646,-0.085 0.92801,-0.256 0.22153,-0.1707 0.3323,-0.4086 0.33231,-0.7139 -1e-5,-0.3151 -0.13703,-0.5579 -0.41108,-0.7286 -0.27406,-0.1707 -0.65067,-0.256 -1.1298,-0.256 h -0.63508 v -1.1914 h 0.58585 c 0.91897,0 1.3785,-0.3052 1.3785,-0.9157 0,-0.5743 -0.35282,-0.8615 -1.0585,-0.8615 -0.47262,0 -0.93211,0.1526 -1.3785,0.4578 v -1.2701 c 0.49559,-0.2495 1.0732,-0.3742 1.7329,-0.3742 0.72205,0 1.2841,0.1625 1.6862,0.4874 0.40205,0.3249 0.60307,0.7467 0.60308,1.2652 -1e-5,0.9223 -0.4677,1.4999 -1.4031,1.733 v 0.025 c 0.49887,0.062 0.89271,0.2437 1.1815,0.544 0.28882,0.3003 0.43323,0.6687 0.43323,1.1052 0,0.6597 -0.24123,1.1816 -0.72369,1.5656 -0.48247,0.384 -1.1487,0.576 -1.9988,0.576 -0.72862,0 -1.321,-0.1182 -1.7772,-0.3545 z"
         id="path3304"
         inkscape:connector-curvature="0" />
      <path
         d="m 131.76,1021.2 c -1.6804,0 -2.5206,-1.1799 -2.5206,-3.5397 0,-1.2242 0.22728,-2.1572 0.68185,-2.7988 0.45456,-0.6417 1.1134,-0.9625 1.9766,-0.9625 1.641,0 2.4615,1.1996 2.4616,3.5988 -1e-5,1.1947 -0.22401,2.1104 -0.672,2.7471 -0.44801,0.6367 -1.0905,0.9551 -1.9274,0.9551 z m 0.0689,-6.1145 c -0.67283,0 -1.0092,0.8451 -1.0092,2.5354 0,1.5918 0.32985,2.3877 0.98954,2.3877 0.64329,0 0.96493,-0.8205 0.96493,-2.4616 0,-1.641 -0.31508,-2.4615 -0.94523,-2.4615 z"
         id="path3306"
         inkscape:connector-curvature="0" />
    </g>
    <g
       id="text5778"
       style="fill:#0e232e"
       transform="matrix(2.3660129,0,0,2.3660129,-65.22985,-2406.6672)">
      <path
         d="m 97.738,1013.7 v -1.3538 c 0.47262,0.3446 1.024,0.5169 1.6542,0.5169 0.39713,0 0.70646,-0.085 0.928,-0.256 0.22154,-0.1707 0.33231,-0.4086 0.33231,-0.7139 0,-0.315 -0.13703,-0.5579 -0.41108,-0.7286 -0.27405,-0.1706 -0.65067,-0.256 -1.1298,-0.256 h -0.63508 v -1.1914 h 0.58585 c 0.91898,0 1.3785,-0.3052 1.3785,-0.9157 -1e-5,-0.5743 -0.35283,-0.8615 -1.0585,-0.8615 -0.47262,0 -0.93211,0.1526 -1.3785,0.4578 v -1.2701 c 0.49559,-0.2494 1.0732,-0.3742 1.7329,-0.3742 0.72205,0 1.2841,0.1625 1.6862,0.4874 0.40205,0.3249 0.60308,0.7467 0.60308,1.2653 0,0.9222 -0.46769,1.4999 -1.4031,1.7329 v 0.025 c 0.49887,0.062 0.89272,0.2437 1.1815,0.544 0.28882,0.3003 0.43323,0.6687 0.43324,1.1052 -10e-6,0.6597 -0.24124,1.1816 -0.7237,1.5656 -0.48247,0.384 -1.1487,0.576 -1.9988,0.576 -0.72862,0 -1.321,-0.1182 -1.7772,-0.3545 z"
         id="path3299"
         inkscape:connector-curvature="0" />
      <path
         d="m 103.63,1013.8 v -1.3293 c 0.48247,0.2954 0.99611,0.4431 1.5409,0.4431 0.41026,0 0.73108,-0.098 0.96247,-0.2929 0.23138,-0.1953 0.34707,-0.4603 0.34708,-0.7951 -1e-5,-0.6991 -0.49396,-1.0486 -1.4819,-1.0486 -0.32164,0 -0.71056,0.029 -1.1668,0.089 v -3.9434 h 3.9089 v 1.2701 h -2.5797 v 1.413 c 0.20676,-0.02 0.40205,-0.03 0.58584,-0.03 0.72534,0 1.2931,0.1904 1.7034,0.5711 0.41025,0.3807 0.61538,0.8927 0.61538,1.536 0,0.7122 -0.24452,1.294 -0.73354,1.7453 -0.48903,0.4512 -1.152,0.6769 -1.9889,0.6769 -0.67939,0 -1.2505,-0.1018 -1.7132,-0.3052 z"
         id="path3301"
         inkscape:connector-curvature="0" />
    </g>
    <g
       id="text5782"
       style="fill:#0e232e"
       transform="matrix(2.3660129,0,0,2.3660129,-70.883084,-2416.843)">
      <path
         d="m 81.512,991.94 h -0.84677 v 1.5015 h -1.4179 V 991.94 h -3.0769 v -0.98954 l 2.9637,-4.5686 h 1.5311 v 4.4505 H 81.512 z m -2.2449,-4.0025 h -0.02954 c -0.04595,0.11816 -0.13457,0.30196 -0.26585,0.55139 l -1.5114,2.3434 h 1.7871 v -2.2203 c -4e-6,-0.19691 0.0066,-0.42174 0.01969,-0.67446 z"
         id="path3294"
         inkscape:connector-curvature="0" />
      <path
         d="m 84.653,993.56 c -1.6804,0 -2.5206,-1.1799 -2.5206,-3.5397 0,-1.2242 0.22728,-2.1571 0.68185,-2.7988 0.45456,-0.64163 1.1134,-0.96246 1.9766,-0.96246 1.641,0 2.4615,1.1996 2.4615,3.5988 -6e-6,1.1947 -0.22401,2.1104 -0.672,2.7471 -0.44801,0.63672 -1.0905,0.95508 -1.9274,0.95508 z m 0.06892,-6.1145 c -0.67282,10e-6 -1.0092,0.84514 -1.0092,2.5354 -2e-6,1.5918 0.32985,2.3877 0.98954,2.3877 0.64328,0 0.96492,-0.82051 0.96493,-2.4616 -4e-6,-1.641 -0.31508,-2.4615 -0.94524,-2.4616 z"
         id="path3296"
         inkscape:connector-curvature="0" />
    </g>
    <text
       x="289.42368"
       y="-446.81775"
       line-height="125%"
       font-size="11px"
       xml:space="preserve"
       style="font-size:26.02614212px;line-height:125%;letter-spacing:0px;word-spacing:0px;fill:#0e232e;font-family:Sans"
       id="text5861"
       sodipodi:linespacing="125%">       <tspan
   x="289.42368"
   y="-446.81775"
   id="tspan5863" />     </text>
    <use
       x="-50.393002"
       y="-23.148001"
       width="100.786"
       height="46.297001"
       transform="matrix(1.9698477,0,0,-1.9698477,-17.84178,-1224.6988)"
       id="use44" />
    <g
       id="text7357"
       style="fill:#0e232e"
       transform="matrix(2.3660129,0,0,2.3660129,-53.923383,-2431.5414)">
      <path
         d="m 71.981,935.25 v -1.3292 c 0.48246,0.29538 0.9961,0.44307 1.5409,0.44307 0.41026,0 0.73108,-0.0976 0.96247,-0.29292 0.23138,-0.19528 0.34707,-0.46031 0.34708,-0.79508 -4e-6,-0.69908 -0.49395,-1.0486 -1.4819,-1.0486 -0.32164,0 -0.71057,0.0295 -1.1668,0.0886 v -3.9434 h 3.9089 v 1.2702 h -2.5797 v 1.4129 c 0.20677,-0.0197 0.40205,-0.0295 0.58585,-0.0295 0.72533,10e-6 1.2931,0.19037 1.7034,0.57108 0.41025,0.38073 0.61538,0.89273 0.61539,1.536 -5e-6,0.71221 -0.24452,1.294 -0.73354,1.7452 -0.48903,0.45128 -1.152,0.67692 -1.9889,0.67692 -0.67939,0 -1.2505,-0.10174 -1.7132,-0.30523 z"
         id="path3288"
         inkscape:connector-curvature="0" />
      <path
         d="m 79.848,935.55 c -1.6804,0 -2.5206,-1.1799 -2.5206,-3.5397 0,-1.2242 0.22728,-2.1571 0.68185,-2.7988 0.45456,-0.64164 1.1134,-0.96246 1.9766,-0.96247 1.641,1e-5 2.4615,1.1996 2.4615,3.5988 -6e-6,1.1947 -0.22401,2.1104 -0.672,2.7471 -0.44801,0.63672 -1.0905,0.95508 -1.9274,0.95508 z m 0.06892,-6.1145 c -0.67283,0 -1.0092,0.84513 -1.0092,2.5354 -2e-6,1.5918 0.32984,2.3877 0.98954,2.3877 0.64328,0 0.96492,-0.82051 0.96493,-2.4615 -3e-6,-1.641 -0.31508,-2.4616 -0.94523,-2.4616 z"
         id="path3290"
         inkscape:connector-curvature="0" />
    </g>
    <path
       d="m 261.1419,-342.74376 c -110.97784,0 -200.943112,86.95807 -200.943112,194.23546 0,107.279759 89.967642,194.235465 200.943112,194.235465 110.97783,0 200.94311,-86.958073 200.94311,-194.235465 0,-107.27975 -89.96765,-194.23546 -200.94311,-194.23546 z m 0,22.98936 c 97.82044,0 177.12209,76.68485 177.12209,171.24728 0,94.562443 -79.30165,171.199966 -177.12209,171.199966 -97.82045,0 -177.122094,-76.63989 -177.122094,-171.199966 0,-94.56243 79.301644,-171.24728 177.122094,-171.24728 z"
       id="path11936"
       inkscape:connector-curvature="0"
       style="opacity:0.20488;fill:#666666;stroke-width:0" />
    <path
       d="M 243.6334,-362.38166 C 120.89648,-354.96941 27.734725,-256.2021 35.552032,-141.76752 43.369812,-27.332948 149.20583,59.416915 271.94275,52.004196 394.67967,44.591951 486.16865,-52.502592 478.34898,-166.93718 470.5312,-281.37175 366.36796,-369.79438 243.63104,-362.38166 z m 1.67533,24.52373 c 108.18594,-6.53375 204.82574,69.97009 211.71557,170.84032 C 463.91531,-66.147389 383.46968,34.28276 275.28374,40.817689 167.0978,47.351195 68.789971,-42.48726 61.897775,-143.35748 55.006763,-244.22771 137.12279,-331.32537 245.30873,-337.85793 z"
       id="path12430"
       inkscape:connector-curvature="0"
       style="fill:url(#linearGradient6032);stroke-width:0" />
    <path
       transform="matrix(0.78332297,0,0,0.65096226,129.97431,-431.53298)"
       d="m 209,113.55 c 0,4.747 -18.836,8.5952 -42.071,8.5952 -23.235,0 -42.071,-3.8482 -42.071,-8.5952 0,-4.747 18.836,-8.5952 42.071,-8.5952 23.235,0 42.071,3.8482 42.071,8.5952 z"
       id="path12350"
       inkscape:connector-curvature="0"
       style="opacity:0.16814156;fill:url(#linearGradient6178);stroke-width:0;filter:url(#filter12360)" />
    <path
       d="M -44.606733,-533.77564 H 560.54837 c 0.15049,0 0.27149,0.12114 0.27149,0.27147 V 71.650857 c 0,0.151426 -0.12114,0.271619 -0.27149,0.271619 H -44.606733 c -0.139186,0.236601 -0.260262,0 -0.260262,-0.236601 V -533.35085 c 0,-0.15047 0.121076,-0.27147 0.271477,-0.27147 z"
       id="rect3245"
       inkscape:connector-curvature="0"
       style="opacity:0;stroke-width:0" />
    <g
       id="text5710-1"
       style="fill:#0e232e;display:inline"
       transform="matrix(2.3660129,0,0,2.3660129,92.654182,-2426.6102)">
      <path
         d="m 103.26787,909.73943 v -1.3292 c 0.48246,0.29539 0.9961,0.44308 1.5409,0.44308 0.41026,0 0.73108,-0.0976 0.96247,-0.29292 0.23138,-0.19528 0.34708,-0.46031 0.34708,-0.79508 -1e-5,-0.69908 -0.49395,-1.0486 -1.4819,-1.0486 -0.32164,0 -0.71057,0.0295 -1.1668,0.0886 v -3.9434 h 3.9089 v 1.2702 h -2.5797 v 1.4129 c 0.20677,-0.0197 0.40205,-0.0295 0.58585,-0.0295 0.72533,1e-5 1.2931,0.19037 1.7034,0.57108 0.41025,0.38073 0.61539,0.89273 0.61539,1.536 0,0.71221 -0.24452,1.294 -0.73354,1.7452 -0.48903,0.45128 -1.152,0.67692 -1.9889,0.67692 -0.67939,0 -1.2505,-0.10174 -1.7132,-0.30523 z"
         id="path3337-7"
         inkscape:connector-curvature="0" />
    </g>
  </g>
  <g
     inkscape:groupmode="layer"
     id="layer3"
     inkscape:label="inner circle"
     style="display:inline"
     sodipodi:insensitive="true">
    <path
       d="m 341.03743,210.92391 c 0,40.71531 -35.96899,73.72316 -80.34077,73.72316 -44.36944,0 -80.34075,-33.00621 -80.34075,-73.72316 0,-40.71531 35.96896,-73.72314 80.34075,-73.72314 44.36945,0 80.34077,33.00621 80.34077,73.72314 z"
       id="path11691"
       inkscape:connector-curvature="0"
       style="opacity:0.61951001;fill:url(#radialGradient5473);fill-opacity:1;stroke:#0a0707;stroke-width:0.59358245;stroke-linecap:round;stroke-linejoin:bevel;stroke-miterlimit:4;stroke-opacity:0.89940999;stroke-dasharray:none" />
    <path
       style="fill:url(#radialGradient5522);fill-opacity:1;stroke:#0a0707;stroke-width:0.59358245;stroke-linecap:round;stroke-linejoin:bevel;stroke-miterlimit:4;stroke-opacity:0.89940999;stroke-dasharray:none"
       inkscape:connector-curvature="0"
       id="path5512"
       d="m 341.3253,210.92391 -10.57574,0 m -1.02779,38.26548 -8.82509,-5.8226 m -21.22402,32.31283 -4.76312,-9.42592 m -34.339,18.68115 0.0156,-10.57588 m -39.09012,1.20656 4.79137,-9.4112 m -34.75446,-17.17591 8.84489,-5.79216 m -20.30933,-32.51493 10.57547,0.0397 m 1.16695,-38.26304 8.80517,5.85297 m 21.32967,-32.24607 4.73489,9.44055 m 34.3945,-18.58169 -0.0469,10.5761 m 39.0934,-1.09283 -4.81956,9.39639 m 34.69618,17.28744 -8.86465,5.76159"
       inkscape:path-effect="#path-effect5514"
       inkscape:original-d="m 341.03743,210.92391 c 0,40.71531 -35.96899,73.72316 -80.34077,73.72316 -44.36944,0 -80.34075,-33.00621 -80.34075,-73.72316 0,-40.71531 35.96896,-73.72314 80.34075,-73.72314 44.36945,0 80.34077,33.00621 80.34077,73.72314 z" />
  </g>
  <g
     inkscape:groupmode="layer"
     id="layer2"
     inkscape:label="ticks"
     style="display:inline"
     sodipodi:insensitive="true">
    <path
       style="opacity:0.79203539;fill:none;stroke:#323232;stroke-width:1.11287892;stroke-linecap:butt;stroke-linejoin:miter;stroke-miterlimit:4;stroke-opacity:1;stroke-dashoffset:0"
       d="m 444.73554,305.24675 -10.57574,0 m 9.53258,18.97187 -10.5118,-1.15678 m 7.40985,19.90036 -10.32386,-2.29099 m 5.20318,20.58633 -10.01193,-3.40262 m 2.91359,21.02837 -9.57569,-4.48588 m 0.59688,21.22404 -9.03573,-5.49247 m -1.677,21.17587 -8.40601,-6.41894 m -3.89852,20.88835 -7.68653,-7.2653 m -6.06445,20.36295 -6.88389,-8.02713 m -8.14614,19.62685 -6.02282,-8.69281 m -10.11471,18.69447 -5.10561,-9.26212 m -11.96847,17.56612 -4.13226,-9.73506 m -13.70106,16.2436 -3.11286,-10.10497 m -15.28422,14.77111 -2.08226,-10.36822 m -16.6896,13.17453 -1.04188,-10.52514 m -17.91613,11.45427 0.008,-10.57575 m -18.96483,9.61703 1.05829,-10.5235 m -19.82572,7.68788 2.09851,-10.36492 m -20.48821,5.66973 3.12896,-10.09999 m -20.95187,3.56271 4.14796,-9.72838 m -21.20867,1.39697 5.12044,-9.25393 m -21.24191,-0.77358 6.03677,-8.68311 m -21.04805,-2.9409 6.89695,-8.01591 m -20.62647,-5.10438 7.69851,-7.25264 m -19.97916,-7.23705 8.41659,-6.40502 m -19.10321,-9.29616 9.0449,-5.4773 m -17.99536,-11.27615 9.58345,-4.46944 m -16.651205,-13.16861 10.017776,-3.38535 m -15.107092,-14.91872 10.327767,-2.27336 m -13.397712,-16.4755 10.51376,-1.13881 m -11.524279,-17.83489 10.575694,0.0183 m -9.499916,-18.98831 10.509808,1.17475 m -7.375873,-19.913 10.319922,2.30861 m -5.167874,-20.59516 10.006039,3.41989 m -2.877151,-21.03329 9.567906,4.50229 m -0.56079,-21.22513 9.02654,5.50763 m 1.71227,-21.17321 8.39541,6.43285 m 3.93297,-20.88193 7.67452,7.27794 m 6.09788,-20.35292 6.8708,8.03831 m 8.17792,-19.61372 6.00886,8.70248 m 10.14469,-18.67827 5.09077,9.27028 m 11.99665,-17.54685 4.11653,9.74171 m 13.72715,-16.2215 3.09676,10.10992 m 15.30765,-14.747 2.06601,10.37151 m 16.71023,-13.1485 1.02548,10.52676 m 17.93395,-11.4263 -0.0248,10.57575 m 18.97987,-9.58744 -1.07469,10.52183 m 19.83765,-7.65689 -2.11476,10.36158 m 20.49702,-5.63735 -3.14505,10.09499 m 20.95751,-3.52898 -4.16365,9.72168 m 21.21094,-1.36288 -5.13525,9.24571 m 21.24062,0.80762 -6.0507,8.67338 m 21.04319,2.97489 -6.90999,8.00467 m 20.61801,5.13823 -7.71047,7.23995 m 19.9672,7.26998 -8.42714,6.39109 m 19.08762,9.32784 -9.05405,5.46209 m 17.97613,11.30659 -9.59118,4.45299 m 16.62833,13.19731 -10.0236,3.36807 m 15.08154,14.94468 -10.33164,2.25573 m 13.36957,16.49836 -10.51569,1.12082"
       id="path5315"
       inkscape:connector-curvature="0"
       inkscape:path-effect="#path-effect5338"
       inkscape:original-d="m 442.44767,305.24675 c 0,97.28653 -81.42877,176.15285 -181.87623,176.15285 -100.44747,0 -181.87622,-78.86632 -181.87622,-176.15285 0,-97.28653 81.42875,-176.15285 181.87622,-176.15285 100.44746,0 181.87623,78.86632 181.87623,176.15285 z" />
    <path
       style="opacity:0.79203539;fill:none;stroke:#000000;stroke-width:1.11197364;stroke-linecap:butt;stroke-linejoin:miter;stroke-miterlimit:4;stroke-opacity:1;stroke-dashoffset:0;display:inline"
       d="m 448.7315,305.21428 -15.86362,0 m -10.0658,92.45987 -13.5533,-8.23919 m -55.87592,74.51673 -7.65746,-13.89371 m -85.31567,37.59758 0.014,-15.86363 m -92.94458,-8.00639 7.68256,-13.87984 m -76.989432,-52.52579 13.568822,-8.2135 m -39.319407,-84.29673 15.86353,0.031 m 10.244543,-92.44021 13.537744,8.26486 m 56.01358,-74.4141 7.63233,13.90753 m 85.38306,-37.4452 -0.042,15.86362 m 92.92974,8.17251 -7.70764,13.86593 m 76.8919,52.66759 -13.5843,8.18777"
       id="path5315-2"
       inkscape:connector-curvature="0"
       inkscape:path-effect="#path-effect5338-8"
       inkscape:original-d="m 442.29969,305.21428 c 0,97.20739 -81.36252,176.00954 -181.72827,176.00954 -100.36575,0 -181.728259,-78.80215 -181.728259,-176.00954 0,-97.20739 81.362509,-176.00954 181.728259,-176.00954 100.36575,0 181.72827,78.80215 181.72827,176.00954 z" />
  </g>
  <g
     inkscape:groupmode="layer"
     id="layer4"
     inkscape:label="hands"
     style="display:inline">
    <g
       transform="matrix(-0.81384424,-0.19486911,0.19486911,-0.81384424,389.22852,306.8763)"
       id="g8183"
       inkscape:transform-center-x="65.336151"
       inkscape:transform-center-y="-15.145131">
      <path
         sodipodi:nodetypes="csccccsscccsscc"
         inkscape:connector-curvature="0"
         id="path6701"
         d="m 333.74063,66.541288 c 1.25974,0.666344 -1.53335,-2.64968 3.80329,0.867732 4.54171,2.993474 17.12901,3.746484 25.67433,3.769 4.67434,-0.177388 10.83034,0.134362 18.62161,-5.418102 l 61.60227,0 -13.43284,2.647042 c 0,0 -29.46191,1.701126 -33.20895,4.104477 -2.61627,1.678073 -2.23436,5.468493 0,6.716418 3.88068,2.167421 34.32836,4.477612 34.32836,4.477612 l 12.94265,3.632519 -61.07699,-0.27431 c 0,0 -2.50945,-5.597015 -19.67363,-5.597015 -17.16417,0 -20.62487,0.373135 -26.22189,4.104478 -5.59701,3.731343 -3.35821,-0.373135 -3.35821,-0.373135 z"
         style="fill:url(#linearGradient6709);fill-opacity:1;stroke:none" />
      <path
         sodipodi:nodetypes="sccssss"
         inkscape:connector-curvature="0"
         id="rect6188"
         d="m 108.19701,62.362183 225.99248,3.067485 c -0.74278,14.083412 -0.33706,8.007735 0,22.478527 L 108.19701,90.362183 C 103.10216,90.417507 99,86.260318 99,81.165176 l 0,-9.605987 c 0,-5.095142 4.10233,-9.266158 9.19701,-9.197006 z"
         style="fill:#c03e11;fill-opacity:1;stroke:none" />
      <path
         sodipodi:type="arc"
         style="fill:#d4aa00;fill-opacity:1;stroke:none"
         id="path8179"
         sodipodi:cx="331.39999"
         sodipodi:cy="191.76218"
         sodipodi:rx="3.8"
         sodipodi:ry="3.8"
         d="m 335.19999,191.76218 a 3.8,3.8 0 1 1 -7.6,0 3.8,3.8 0 1 1 7.6,0 z"
         transform="translate(-10.8,-115.2)" />
      <path
         transform="translate(-38.8,-115.2)"
         d="m 335.19999,191.76218 a 3.8,3.8 0 1 1 -7.6,0 3.8,3.8 0 1 1 7.6,0 z"
         sodipodi:ry="3.8"
         sodipodi:rx="3.8"
         sodipodi:cy="191.76218"
         sodipodi:cx="331.39999"
         id="path8181"
         style="fill:#d4aa00;fill-opacity:1;stroke:none"
         sodipodi:type="arc" />
    </g>
    <g
       transform="matrix(0.88219288,-0.19876891,0.19876891,0.88219288,78.477127,196.94812)"
       id="g8376"
       inkscape:transform-center-x="-90.359096"
       inkscape:transform-center-y="-27.766625">
      <path
         style="fill:url(#linearGradient8315);fill-opacity:1;stroke:none"
         d="m 333.27437,145.97732 c 12.26003,-6.72521 16.01962,-8.872 35.35821,-15.39802 -0.0551,21.52491 -0.26845,26.25048 0.35731,52.31616 -18.56029,-7.10461 -24.03526,-10.22663 -35.2347,-15.21028 z"
         id="path8159"
         inkscape:connector-curvature="0"
         sodipodi:nodetypes="ccccc" />
      <path
         style="fill:#c03e11;fill-opacity:1;stroke:none"
         d="m 108.19701,142.36218 225.99248,3.06749 c -0.74278,14.08341 -0.33706,8.00773 0,22.47853 l -225.99248,2.45398 C 103.10216,170.41751 99,166.26032 99,161.16518 l 0,-9.60599 c 0,-5.09514 4.10233,-9.26616 9.19701,-9.19701 z"
         id="path6699"
         inkscape:connector-curvature="0"
         sodipodi:nodetypes="sccssss" />
      <path
         inkscape:connector-curvature="0"
         id="rect8163"
         d="m 368.5,130.875 0,51.90625 81.71875,0 0,-51.90625 -81.71875,0 z m 13.09375,6.53125 60.71875,0 c 1.14621,0 2.0625,1.03894 2.0625,2.3125 l 0,4.375 c 0,1.27356 -0.91629,2.28125 -2.0625,2.28125 l -60.71875,0 c -1.14621,0 -2.0625,-1.00769 -2.0625,-2.28125 l 0,-4.375 c 0,-1.27356 0.91629,-2.3125 2.0625,-2.3125 z m 0,14 60.71875,0 c 1.14621,0 2.0625,1.03894 2.0625,2.3125 l 0,4.375 c 0,1.27356 -0.91629,2.28125 -2.0625,2.28125 l -60.71875,0 c -1.14621,0 -2.0625,-1.00769 -2.0625,-2.28125 l 0,-4.375 c 0,-1.27356 0.91629,-2.3125 2.0625,-2.3125 z m 0,14 60.71875,0 c 1.14621,0 2.0625,1.03894 2.0625,2.3125 l 0,4.375 c 0,1.27356 -0.91629,2.28125 -2.0625,2.28125 l -60.71875,0 c -1.14621,0 -2.0625,-1.00769 -2.0625,-2.28125 l 0,-4.375 c 0,-1.27356 0.91629,-2.3125 2.0625,-2.3125 z"
         style="fill:url(#linearGradient8366);fill-opacity:1;stroke:none" />
      <path
         transform="translate(-10.8,-35.2)"
         d="m 335.19999,191.76218 a 3.8,3.8 0 1 1 -7.6,0 3.8,3.8 0 1 1 7.6,0 z"
         sodipodi:ry="3.8"
         sodipodi:rx="3.8"
         sodipodi:cy="191.76218"
         sodipodi:cx="331.39999"
         id="path8175"
         style="fill:#d4aa00;fill-opacity:1;stroke:none"
         sodipodi:type="arc" />
      <path
         sodipodi:type="arc"
         style="fill:#d4aa00;fill-opacity:1;stroke:none"
         id="path8177"
         sodipodi:cx="331.39999"
         sodipodi:cy="191.76218"
         sodipodi:rx="3.8"
         sodipodi:ry="3.8"
         d="m 335.19999,191.76218 a 3.8,3.8 0 1 1 -7.6,0 3.8,3.8 0 1 1 7.6,0 z"
         transform="translate(-38.8,-35.2)" />
    </g>
    <path
       style="fill:#0e232e;stroke-width:0;display:inline"
       inkscape:connector-curvature="0"
       id="path11747"
       d="m 268.09015,212.62448 c -1.14637,4.27852 -5.47303,6.83671 -9.66418,5.71364 -4.19086,-1.123 -6.65914,-5.50184 -5.51274,-9.78048 1.14638,-4.27853 5.47305,-6.83672 9.66418,-5.71364 4.19087,1.12299 6.65914,5.50183 5.51274,9.78048 z" />
    <path
       transform="translate(0,448)"
       d="m 271.38801,-140.32342 c -4.37635,4.07762 -11.39933,4.14534 -15.68648,0.15079 -4.28686,-3.99428 -4.21457,-10.53805 0.16192,-14.61579 4.37635,-4.07761 11.39934,-4.14533 15.68649,-0.15079 4.28686,3.99428 4.21457,10.53805 -0.16193,14.61579 z"
       id="path5786"
       inkscape:connector-curvature="0"
       style="fill:url(#radialGradient6069);stroke-width:0;display:inline" />
    <path
       transform="translate(0,448)"
       d="m 267.23375,-146.94437 c 0,1.83756 -1.65514,3.32721 -3.69688,3.32721 -2.04175,0 -3.6969,-1.48965 -3.6969,-3.32721 0,-1.83756 1.65515,-3.32721 3.6969,-3.32721 2.04174,0 3.69688,1.48965 3.69688,3.32721 z"
       id="path7377"
       inkscape:connector-curvature="0"
       style="fill:#2d2d2d;stroke:#000000;stroke-width:0.35490197;stroke-linecap:round;stroke-linejoin:bevel;display:inline" />
  </g>
  <g
     inkscape:groupmode="layer"
     id="layer5"
     inkscape:label="glass"
     style="display:inline"
     sodipodi:insensitive="true">
    <path
       d="M 423.11276,218.18398 C 451.28422,269.56335 403.13197,352.35305 315.55754,403.10151 227.98758,453.84736 134.15527,453.33618 105.98378,401.9568 77.812305,350.57743 125.96453,267.78773 213.539,217.03927 c 87.56996,-50.74584 181.40226,-50.23469 209.57376,1.14471 z"
       id="path12406"
       inkscape:connector-curvature="0"
       style="opacity:0.25663715;fill:url(#linearGradient11216);stroke-width:0;display:inline" />
  </g>
</svg>
