<?xml version="1.0" encoding="UTF-8" standalone="no"?>
<!-- Created with Inkscape (http://www.inkscape.org/) -->

<svg
   xmlns:osb="http://www.openswatchbook.org/uri/2009/osb"
   xmlns:dc="http://purl.org/dc/elements/1.1/"
   xmlns:cc="http://creativecommons.org/ns#"
   xmlns:rdf="http://www.w3.org/1999/02/22-rdf-syntax-ns#"
   xmlns:svg="http://www.w3.org/2000/svg"
   xmlns="http://www.w3.org/2000/svg"
   xmlns:xlink="http://www.w3.org/1999/xlink"
   xmlns:sodipodi="http://sodipodi.sourceforge.net/DTD/sodipodi-0.dtd"
   xmlns:inkscape="http://www.inkscape.org/namespaces/inkscape"
   width="24"
   height="24"
   id="svg2"
   version="1.1"
   inkscape:version="0.48.4 r9939"
   sodipodi:docname="notification_icon.svg">
  <script
     xlink:href=""
     id="script2985" />
  <defs
     id="defs4">
    <linearGradient
       id="linearGradient5683"
       osb:paint="solid">
      <stop
         style="stop-color:#ffffff;stop-opacity:1;"
         offset="0"
         id="stop5685" />
    </linearGradient>
  </defs>
  <sodipodi:namedview
     id="base"
     pagecolor="#000000"
     bordercolor="#666666"
     borderopacity="1.0"
     inkscape:pageopacity="0"
     inkscape:pageshadow="2"
     inkscape:zoom="20"
     inkscape:cx="5.418889"
     inkscape:cy="12"
     inkscape:document-units="px"
     inkscape:current-layer="layer1"
     showgrid="true"
     inkscape:window-width="979"
     inkscape:window-height="762"
     inkscape:window-x="566"
     inkscape:window-y="1256"
     inkscape:window-maximized="0"
     inkscape:snap-grids="true"
     borderlayer="true"
     inkscape:showpageshadow="true"
     showborder="true"
     inkscape:snap-global="true"
     inkscape:snap-bbox="true"
     inkscape:bbox-paths="false">
    <inkscape:grid
       type="xygrid"
       id="grid2987"
       empspacing="5"
       visible="true"
       enabled="true"
       snapvisiblegridlinesonly="true"
       spacingx="1px" />
  </sodipodi:namedview>
  <metadata
     id="metadata7">
    <rdf:RDF>
      <cc:Work
         rdf:about="">
        <dc:format>image/svg+xml</dc:format>
        <dc:type
           rdf:resource="http://purl.org/dc/dcmitype/StillImage" />
        <dc:title />
      </cc:Work>
    </rdf:RDF>
  </metadata>
  <g
     inkscape:groupmode="layer"
     id="layer2"
     inkscape:label="background WHILE EDITING"
     style="display:inline"
     sodipodi:insensitive="true">
    <rect
       style="fill:#000000;fill-opacity:1;stroke:none"
       id="rect5730"
       width="26"
       height="24"
       x="0"
       y="0"
       ry="0" />
  </g>
  <g
     inkscape:label="Layer 1"
     inkscape:groupmode="layer"
     id="layer1"
     transform="translate(0,-1028.3622)">
    <path
       sodipodi:type="arc"
       style="fill:none;stroke:#ffffff;stroke-width:3.17647409;stroke-linecap:butt;stroke-linejoin:miter;stroke-miterlimit:4;stroke-opacity:1;stroke-dasharray:none;stroke-dashoffset:0"
       id="path5708"
       sodipodi:cx="12"
       sodipodi:cy="13"
       sodipodi:rx="9"
       sodipodi:ry="9"
       d="m 21,13 c 0,4.970563 -4.029437,9 -9,9 -4.9705627,0 -9,-4.029437 -9,-9 0,-4.9705627 4.0294373,-9 9,-9 4.970563,0 9,4.0294373 9,9 z"
       transform="matrix(0.94444444,0,0,0.94444244,0.66666665,1029.0844)" />
    <rect
       style="fill:#ffffff;fill-opacity:1;stroke:none"
       id="rect5710"
       width="2"
       height="2"
       x="11"
       y="1030.3622" />
    <rect
       style="fill:#ffffff;fill-opacity:1;stroke:none"
       id="rect5712"
       width="4"
       height="1"
       x="10"
       y="1"
       transform="translate(0,1028.3622)" />
    <path
       style="fill:#ffffff;fill-opacity:1;stroke:none"
       d="m 18.717534,1029.1949 c -1.414257,1.4143 -4.949778,4.9498 -4.24266,7.0711 l -4.242618,4.2426 c -0.7834851,0.7835 -0.7834975,2.045 -3.6e-5,2.8285 0.783511,0.7834 2.044991,0.7834 2.828427,0 l 4.242654,-4.2427 c 1.414213,0 4.242647,-2.8284 5.656854,-4.2426 l 0,-1.4142 z m -1.767777,3.182 1.414207,-1.4142 c 0.195884,-0.1959 0.511254,-0.1959 0.707107,0 0.195852,0.1959 0.195887,0.5112 3e-6,0.7071 l -1.414207,1.4142 c -0.195884,0.1959 -0.511254,0.1959 -0.707107,0 -0.195902,-0.1958 -0.195887,-0.5112 -3e-6,-0.7071 z m -5.303287,8.1317 c 0.390512,-0.3905 1.023661,-0.3905 1.414214,0 0.390502,0.3906 0.390518,1.0237 -4.4e-5,1.4143 -0.390512,0.3905 -1.02366,0.3905 -1.414213,0 -0.390503,-0.3906 -0.39052,-1.0237 4.3e-5,-1.4143 z m 6.717507,-6.7175 1.414207,-1.4142 c 0.195834,-0.1958 0.511204,-0.1958 0.707107,0 0.195853,0.1959 0.195837,0.5113 3e-6,0.7071 l -1.414206,1.4142 c -0.195885,0.1959 -0.511254,0.1959 -0.707107,0 -0.195903,-0.1958 -0.195889,-0.5112 -4e-6,-0.7071 z m 1.414221,1.4142 1.414206,-1.4142 c 0.195834,-0.1958 0.511204,-0.1958 0.707107,0 0.195853,0.1959 0.195838,0.5113 4e-6,0.7071 l -1.414258,1.4143 c -0.195834,0.1958 -0.511203,0.1958 -0.707106,0 -0.195853,-0.1959 -0.195838,-0.5113 4.7e-5,-0.7072 z"
       id="rect5716"
       inkscape:connector-curvature="0"
       inkscape:transform-center-x="-4.302394"
       sodipodi:nodetypes="ccsssccccssssssssssssssssssssssssss"
       inkscape:transform-center-y="-4.302425" />
  </g>
</svg>
