<?xml version="1.0" encoding="UTF-8" standalone="no"?>
<!-- Created with Inkscape (http://www.inkscape.org/) -->

<svg
   xmlns:osb="http://www.openswatchbook.org/uri/2009/osb"
   xmlns:dc="http://purl.org/dc/elements/1.1/"
   xmlns:cc="http://creativecommons.org/ns#"
   xmlns:rdf="http://www.w3.org/1999/02/22-rdf-syntax-ns#"
   xmlns:svg="http://www.w3.org/2000/svg"
   xmlns="http://www.w3.org/2000/svg"
   xmlns:xlink="http://www.w3.org/1999/xlink"
   xmlns:sodipodi="http://sodipodi.sourceforge.net/DTD/sodipodi-0.dtd"
   xmlns:inkscape="http://www.inkscape.org/namespaces/inkscape"
   width="24"
   height="24"
   id="svg2"
   version="1.1"
   inkscape:version="0.48.4 r9939"
   sodipodi:docname="notification_icon.svg">
  <script
     xlink:href=""
     id="script2985" />
  <defs
     id="defs4">
    <linearGradient
       id="linearGradient5683"
       osb:paint="solid">
      <stop
         style="stop-color:#ffffff;stop-opacity:1;"
         offset="0"
         id="stop5685" />
    </linearGradient>
  </defs>
  <sodipodi:namedview
     id="base"
     pagecolor="#000000"
     bordercolor="#666666"
     borderopacity="1.0"
     inkscape:pageopacity="0"
     inkscape:pageshadow="2"
     inkscape:zoom="20"
     inkscape:cx="7.2193396"
     inkscape:cy="12"
     inkscape:document-units="px"
     inkscape:current-layer="layer1"
     showgrid="true"
     inkscape:window-width="1332"
     inkscape:window-height="762"
     inkscape:window-x="213"
     inkscape:window-y="1256"
     inkscape:window-maximized="0"
     inkscape:snap-grids="true"
     borderlayer="true"
     inkscape:showpageshadow="true"
     showborder="true"
     inkscape:snap-global="true"
     inkscape:snap-bbox="true"
     inkscape:bbox-paths="false">
    <inkscape:grid
       type="xygrid"
       id="grid2987"
       empspacing="5"
       visible="true"
       enabled="true"
       snapvisiblegridlinesonly="true"
       spacingx="1px" />
  </sodipodi:namedview>
  <metadata
     id="metadata7">
    <rdf:RDF>
      <cc:Work
         rdf:about="">
        <dc:format>image/svg+xml</dc:format>
        <dc:type
           rdf:resource="http://purl.org/dc/dcmitype/StillImage" />
        <dc:title />
      </cc:Work>
    </rdf:RDF>
  </metadata>
  <g
     inkscape:groupmode="layer"
     id="layer2"
     inkscape:label="background WHILE EDITING"
     style="display:inline"
     sodipodi:insensitive="true">
    <rect
       style="fill:#000000;fill-opacity:1;stroke:none"
       id="rect5730"
       width="26"
       height="24"
       x="0"
       y="0"
       ry="0" />
    <path
       style="fill:none;stroke:#ff0000;stroke-width:0.5;stroke-linecap:butt;stroke-linejoin:miter;stroke-miterlimit:4;stroke-opacity:1;stroke-dasharray:none"
       d="m 12,0 0,24"
       id="path3775"
       inkscape:connector-curvature="0" />
    <path
       style="fill:none;stroke:#ff0000;stroke-width:0.5;stroke-linecap:butt;stroke-linejoin:miter;stroke-miterlimit:4;stroke-opacity:1;stroke-dasharray:none"
       d="M 0.05,13 26,13"
       id="path3777"
       inkscape:connector-curvature="0" />
  </g>
  <g
     inkscape:label="Layer 1"
     inkscape:groupmode="layer"
     id="layer1"
     transform="translate(0,-1028.3622)">
    <path
       sodipodi:type="arc"
       style="fill:none;stroke:#ffffff;stroke-width:3.17647409;stroke-linecap:butt;stroke-linejoin:miter;stroke-miterlimit:4;stroke-opacity:1;stroke-dasharray:none;stroke-dashoffset:0"
       id="path5708"
       sodipodi:cx="12"
       sodipodi:cy="13"
       sodipodi:rx="9"
       sodipodi:ry="9"
       d="m 21,13 c 0,4.970563 -4.029437,9 -9,9 -4.9705627,0 -9,-4.029437 -9,-9 0,-4.9705627 4.0294373,-9 9,-9 4.970563,0 9,4.0294373 9,9 z"
       transform="matrix(0.94444444,0,0,0.94444244,0.66666665,1029.0844)" />
    <rect
       style="fill:#ffffff;fill-opacity:1;stroke:none"
       id="rect5710"
       width="2"
       height="2"
       x="11"
       y="1030.3622" />
    <rect
       style="fill:#ffffff;fill-opacity:1;stroke:none"
       id="rect5712"
       width="4"
       height="1"
       x="10"
       y="1"
       transform="translate(0,1028.3622)" />
    <path
       style="fill:#ffffff;fill-opacity:1;stroke:none"
       d="m 18.71751,1029.1949 c -1.414208,1.4143 -5.303296,5.0962 -3.889083,7.9247 l -4.242641,4.2426 c -0.7834923,0.7835 -1.4906321,1.3378 -0.7071063,2.1213 0.7834593,0.7834 1.5878823,-0.1736 2.3713013,-0.9571 l 3.99266,-3.9926 c 2.12132,0.7071 5.303274,-2.2678 6.717548,-3.682 l -7e-6,-1.4142 z m -1.767782,3.182 1.414204,-1.4142 c 0.195892,-0.1959 0.511262,-0.1959 0.707107,0 0.195915,0.1959 0.195897,0.5112 5e-6,0.7071 l -1.414204,1.4142 c -0.195892,0.1959 -0.511261,0.1959 -0.707107,0 -0.195848,-0.1958 -0.195826,-0.5112 -5e-6,-0.7071 z m 1.414224,1.4142 1.414204,-1.4142 c 0.195887,-0.1958 0.511258,-0.1958 0.707106,0 0.195916,0.1959 0.195893,0.5113 5e-6,0.7071 l -1.414203,1.4142 c -0.195892,0.1959 -0.511261,0.1959 -0.707107,0 -0.195849,-0.1958 -0.195897,-0.5112 -5e-6,-0.7071 z m 1.414224,1.4142 1.414203,-1.4142 c 0.195888,-0.1958 0.511258,-0.1958 0.707107,0 0.195845,0.1959 0.195893,0.5113 5e-6,0.7071 l -1.414208,1.4143 c -0.195887,0.1958 -0.511257,0.1958 -0.707106,0 -0.195846,-0.1959 -0.195894,-0.5113 -1e-6,-0.7072 z"
       id="rect5716"
       inkscape:connector-curvature="0"
       inkscape:transform-center-x="-4.2488993"
       sodipodi:nodetypes="ccsssccccsssssssssssssssssssss"
       inkscape:transform-center-y="-4.877113" />
    <rect
       style="fill:#ffffff;fill-opacity:1;stroke:none"
       id="rect2994"
       width="2"
       height="1.9999826"
       x="726.75018"
       y="732.6499"
       transform="matrix(0.71335479,0.70080307,-0.70080307,0.71335479,0,0)" />
  </g>
</svg>
