<?xml version="1.0" encoding="UTF-8" standalone="no"?>
<!-- Created with Inkscape (http://www.inkscape.org/) -->

<svg
   xmlns:dc="http://purl.org/dc/elements/1.1/"
   xmlns:cc="http://creativecommons.org/ns#"
   xmlns:rdf="http://www.w3.org/1999/02/22-rdf-syntax-ns#"
   xmlns:svg="http://www.w3.org/2000/svg"
   xmlns="http://www.w3.org/2000/svg"
   xmlns:xlink="http://www.w3.org/1999/xlink"
   xmlns:sodipodi="http://sodipodi.sourceforge.net/DTD/sodipodi-0.dtd"
   xmlns:inkscape="http://www.inkscape.org/namespaces/inkscape"
   width="102"
   height="58"
   id="svg3322"
   version="1.1"
   inkscape:version="0.48.4 r9939"
   inkscape:export-filename="C:\sourcecontrolled\BBQTimer\BBQ Timer\src\main\res\drawable-mdpi\spatula.png"
   inkscape:export-xdpi="77.14286"
   inkscape:export-ydpi="77.14286"
   sodipodi:docname="spatula.svg">
  <defs
     id="defs3324">
    <linearGradient
       inkscape:collect="always"
       xlink:href="#linearGradient6703-9"
       id="linearGradient8714"
       gradientUnits="userSpaceOnUse"
       gradientTransform="matrix(0.95426544,-0.34028171,0.34028171,0.95426544,48.407081,297.08416)"
       x1="379.79736"
       y1="101.58269"
       x2="331.46631"
       y2="41.778347" />
    <linearGradient
       id="linearGradient6703-9">
      <stop
         style="stop-color:#5f7079;stop-opacity:1;"
         offset="0"
         id="stop6705-0" />
      <stop
         style="stop-color:#d6dbde;stop-opacity:1;"
         offset="1"
         id="stop6707-5" />
    </linearGradient>
    <linearGradient
       inkscape:collect="always"
       xlink:href="#linearGradient8722"
       id="linearGradient8728"
       x1="272.04706"
       y1="272.60257"
       x2="303.83212"
       y2="308.60257"
       gradientUnits="userSpaceOnUse" />
    <linearGradient
       id="linearGradient8722">
      <stop
         style="stop-color:#9d3612;stop-opacity:1;"
         offset="0"
         id="stop8724" />
      <stop
         style="stop-color:#651c02;stop-opacity:1;"
         offset="1"
         id="stop8726" />
    </linearGradient>
    <linearGradient
       inkscape:collect="always"
       xlink:href="#linearGradient6703-9"
       id="linearGradient8710"
       gradientUnits="userSpaceOnUse"
       gradientTransform="matrix(0.96690421,-0.35010896,0.43449741,1.233179,0.98110837,181.22935)"
       x1="369.79614"
       y1="138.1991"
       x2="456.10889"
       y2="194.39566" />
    <linearGradient
       id="linearGradient3219">
      <stop
         style="stop-color:#5f7079;stop-opacity:1;"
         offset="0"
         id="stop3221" />
      <stop
         style="stop-color:#d6dbde;stop-opacity:1;"
         offset="1"
         id="stop3223" />
    </linearGradient>
    <linearGradient
       id="linearGradient6703-6">
      <stop
         style="stop-color:#5f7079;stop-opacity:1;"
         offset="0"
         id="stop6705-3" />
      <stop
         style="stop-color:#d6dbde;stop-opacity:1;"
         offset="1"
         id="stop6707-4" />
    </linearGradient>
    <linearGradient
       id="linearGradient3230">
      <stop
         style="stop-color:#9d3612;stop-opacity:1;"
         offset="0"
         id="stop3232" />
      <stop
         style="stop-color:#651c02;stop-opacity:1;"
         offset="1"
         id="stop3234" />
    </linearGradient>
  </defs>
  <sodipodi:namedview
     id="base"
     pagecolor="#ffffff"
     bordercolor="#666666"
     borderopacity="1.0"
     inkscape:pageopacity="0.0"
     inkscape:pageshadow="2"
     inkscape:zoom="6"
     inkscape:cx="32.453999"
     inkscape:cy="27.536036"
     inkscape:document-units="px"
     inkscape:current-layer="layer1"
     showgrid="false"
     inkscape:window-width="1281"
     inkscape:window-height="832"
     inkscape:window-x="135"
     inkscape:window-y="1210"
     inkscape:window-maximized="0"
     inkscape:snap-page="true" />
  <metadata
     id="metadata3327">
    <rdf:RDF>
      <cc:Work
         rdf:about="">
        <dc:format>image/svg+xml</dc:format>
        <dc:type
           rdf:resource="http://purl.org/dc/dcmitype/StillImage" />
        <dc:title></dc:title>
      </cc:Work>
    </rdf:RDF>
  </metadata>
  <g
     inkscape:label="Layer 1"
     inkscape:groupmode="layer"
     id="layer1"
     transform="translate(0,-994.36218)">
    <g
       transform="matrix(0.327677,-0.03106643,0.03108331,0.3274991,-73.447462,948.17482)"
       style="opacity:1;display:inline"
       id="g8732"
       inkscape:transform-center-x="-19.175889"
       inkscape:transform-center-y="-11.230872"
       inkscape:export-filename="C:\sourcecontrolled\AndroidStudioProjects\BBQTimer\source-assets\spatula_50.png"
       inkscape:export-xdpi="29.620001"
       inkscape:export-ydpi="29.620001">
      <path
         style="fill:url(#linearGradient8714);fill-opacity:1;stroke:none"
         d="m 395.39148,245.15401 c 8.4001,-9.45215 7.91644,-19.84189 22.40637,-31.27437 6.49092,18.35109 12.85862,36.01839 21.30866,58.03039 -17.96708,-0.41413 -25.65896,-7.56858 -36.71206,-8.41187 z"
         id="path8159"
         inkscape:connector-curvature="0"
         sodipodi:nodetypes="ccccc" />
      <path
         style="fill:url(#linearGradient8728);fill-opacity:1;stroke:none"
         d="m 202.57841,310.43843 193.42621,-66.02885 c 3.64493,12.22149 2.14512,6.92315 6.8275,19.14663 L 211.08297,334.2881 c -4.32286,1.59461 -9.07965,-0.70041 -10.62722,-5.04032 l -2.91767,-8.18213 c -1.54757,-4.33991 0.67981,-9.13869 5.04033,-10.62722 z"
         id="path6699"
         inkscape:connector-curvature="0"
         sodipodi:nodetypes="sccssss" />
      <path
         inkscape:connector-curvature="0"
         id="rect8163"
         d="m 417.72998,214.03932 21.0846,58.39594 69.97066,-23.74095 -19.97716,-58.24224 z m 14.62121,4.41855 51.633,-18.69592 c 0.97469,-0.35293 2.15681,0.50853 2.65073,1.91037 l 1.69677,4.81571 c 0.49392,1.40184 0.10553,2.79316 -0.86914,3.1461 l -51.63299,18.69593 c -0.9747,0.35293 -2.14469,-0.47413 -2.63862,-1.87598 l -1.69676,-4.8157 c -0.49392,-1.40184 -0.11767,-2.82757 0.85701,-3.18051 z m 5.42964,15.41025 51.63299,-18.69594 c 0.9747,-0.35293 2.15681,0.50853 2.65074,1.91038 l 1.69676,4.8157 c 0.49392,1.40185 0.10554,2.79318 -0.86914,3.1461 l -51.63299,18.69594 c -0.97469,0.35293 -2.14469,-0.47414 -2.63862,-1.87598 l -1.69676,-4.8157 c -0.49392,-1.40185 -0.11767,-2.82758 0.85702,-3.1805 z m 5.42963,15.41023 51.633,-18.69593 c 0.97469,-0.35293 2.15681,0.50853 2.65073,1.91037 l 1.69676,4.81571 c 0.49392,1.40184 0.10554,2.79317 -0.86913,3.14611 l -51.633,18.69592 c -0.97469,0.35293 -2.14469,-0.47413 -2.63862,-1.87598 l -1.69676,-4.8157 c -0.49392,-1.40184 -0.11766,-2.82756 0.85702,-3.1805 z"
         style="fill:url(#linearGradient8710);fill-opacity:1;stroke:none"
         sodipodi:nodetypes="ccccccssscssscssssssssscssscsssc" />
      <path
         transform="matrix(0.85177395,-0.30373425,0.30373425,0.85177395,47.288139,195.33906)"
         d="m 335.19999,191.76218 c 0,2.09868 -1.70131,3.8 -3.8,3.8 -2.09868,0 -3.8,-1.70132 -3.8,-3.8 0,-2.09869 1.70132,-3.8 3.8,-3.8 2.09869,0 3.8,1.70131 3.8,3.8 z"
         sodipodi:ry="3.8"
         sodipodi:rx="3.8"
         sodipodi:cy="191.76218"
         sodipodi:cx="331.39999"
         id="path8175"
         style="fill:#d4aa00;fill-opacity:1;stroke:none"
         sodipodi:type="arc" />
      <path
         sodipodi:type="arc"
         style="fill:#d4aa00;fill-opacity:1;stroke:none"
         id="path8177"
         sodipodi:cx="331.39999"
         sodipodi:cy="191.76218"
         sodipodi:rx="3.8"
         sodipodi:ry="3.8"
         d="m 335.19999,191.76218 c 0,2.09868 -1.70131,3.8 -3.8,3.8 -2.09868,0 -3.8,-1.70132 -3.8,-3.8 0,-2.09869 1.70132,-3.8 3.8,-3.8 2.09869,0 3.8,1.70131 3.8,3.8 z"
         transform="matrix(0.85177395,-0.30373425,0.30373425,0.85177395,23.438468,203.84362)" />
    </g>
  </g>
</svg>
