<?xml version="1.0" encoding="UTF-8" standalone="no"?>
<!-- Created with Inkscape (http://www.inkscape.org/) -->

<svg
   xmlns:dc="http://purl.org/dc/elements/1.1/"
   xmlns:cc="http://creativecommons.org/ns#"
   xmlns:rdf="http://www.w3.org/1999/02/22-rdf-syntax-ns#"
   xmlns:svg="http://www.w3.org/2000/svg"
   xmlns="http://www.w3.org/2000/svg"
   xmlns:xlink="http://www.w3.org/1999/xlink"
   xmlns:sodipodi="http://sodipodi.sourceforge.net/DTD/sodipodi-0.dtd"
   xmlns:inkscape="http://www.inkscape.org/namespaces/inkscape"
   width="512"
   height="512"
   id="svg9384"
   version="1.1"
   inkscape:version="0.48.4 r9939"
   sodipodi:docname="stop_watch_icon_2.svg">
  <defs
     id="defs9386">
    <inkscape:path-effect
       effect="skeletal"
       id="path-effect5514"
       is_visible="true"
       pattern="M -1.0191228,-4.0582933 V 6.517447"
       copytype="repeated"
       prop_scale="1"
       scale_y_rel="false"
       spacing="35.5"
       normal_offset="5"
       tang_offset="0"
       prop_units="false"
       vertical_pattern="false"
       fuse_tolerance="0" />
    <inkscape:path-effect
       effect="skeletal"
       id="path-effect5338"
       is_visible="true"
       pattern="M 0,0 V 10.57574"
       copytype="repeated"
       prop_scale="1"
       scale_y_rel="false"
       spacing="16.85"
       normal_offset="3"
       tang_offset="0"
       prop_units="false"
       vertical_pattern="false"
       fuse_tolerance="0" />
    <inkscape:path-effect
       effect="skeletal"
       id="path-effect5329"
       is_visible="true"
       pattern="M 0,0 1,0"
       copytype="single_stretched"
       prop_scale="1"
       scale_y_rel="false"
       spacing="0"
       normal_offset="0"
       tang_offset="0"
       prop_units="false"
       vertical_pattern="false"
       fuse_tolerance="0" />
    <filter
       id="filter12397"
       color-interpolation-filters="sRGB">
      <feGaussianBlur
         id="feGaussianBlur12399"
         stdDeviation="1.7810462" />
    </filter>
    <filter
       id="filter12470"
       color-interpolation-filters="sRGB">
      <feGaussianBlur
         id="feGaussianBlur12472"
         stdDeviation="1.3604296" />
    </filter>
    <radialGradient
       id="radialGradient11934"
       gradientUnits="userSpaceOnUse"
       cy="778.90002"
       cx="281.38"
       gradientTransform="matrix(0.17013,0.5543,-0.46204,0.14181,499.7,637.13)"
       r="164.86">
      <stop
         id="stop11930"
         stop-color="#666"
         offset="0" />
      <stop
         id="stop11932"
         stop-color="#fff"
         offset="1" />
    </radialGradient>
    <linearGradient
       id="linearGradient12516"
       y2="358.32001"
       gradientUnits="userSpaceOnUse"
       y1="256.16"
       x2="154.21001"
       x1="155.89">
      <stop
         id="stop12512"
         stop-color="#fff"
         offset="0" />
      <stop
         id="stop12514"
         stop-color="#999"
         offset="1" />
    </linearGradient>
    <radialGradient
       id="radialGradient7408"
       gradientUnits="userSpaceOnUse"
       cy="820.04999"
       cx="368.85001"
       gradientTransform="matrix(0.1126,0.043242,-0.8148,2.1217,995.5,-936)"
       r="23.292999">
      <stop
         id="stop7371"
         stop-color="#ccc"
         offset="0" />
      <stop
         id="stop7373"
         stop-color="#2d2d2d"
         offset="1" />
    </radialGradient>
    <radialGradient
       id="radialGradient7415"
       gradientUnits="userSpaceOnUse"
       cy="838.87"
       cx="441.44"
       gradientTransform="matrix(-0.51135,0.29816,-0.48749,-0.9623,1076.1,1514.6)"
       r="10.607">
      <stop
         id="stop7363"
         stop-color="#999"
         offset="0" />
      <stop
         id="stop7365"
         stop-color="#2d2d2d"
         offset="1" />
    </radialGradient>
    <radialGradient
       id="radialGradient11917"
       gradientUnits="userSpaceOnUse"
       cy="793.67999"
       cx="394.26001"
       gradientTransform="matrix(-1.0674,0.020074,-0.018004,-0.88068,829.37,1477.1)"
       r="206.88">
      <stop
         id="stop7389"
         stop-color="#fff"
         offset="0" />
      <stop
         id="stop7391"
         stop-color="#0e232e"
         stop-opacity="0"
         offset="1"
         style="stop-color:#7b8b93;stop-opacity:0;" />
    </radialGradient>
    <radialGradient
       id="radialGradient11948"
       gradientUnits="userSpaceOnUse"
       cy="682.25"
       cx="156"
       gradientTransform="matrix(-0.53906,-0.41982,0.29697,-0.38134,-18.586,1285.3)"
       r="182.11">
      <stop
         id="stop7397"
         stop-color="#fff"
         offset="0" />
      <stop
         id="stop7399"
         stop-color="#ccc"
         offset="1" />
    </radialGradient>
    <linearGradient
       id="linearGradient11960"
       x1="142.95"
       xlink:href="#linearGradient11952"
       gradientUnits="userSpaceOnUse"
       y1="87.762001"
       gradientTransform="matrix(0.43783,0,0,0.46429,58.206,823.64)"
       x2="164.67"
       y2="89.570999" />
    <linearGradient
       id="linearGradient11952">
      <stop
         id="stop11954"
         stop-color="#ccc"
         offset="0" />
      <stop
         id="stop11956"
         stop-color="#fff"
         offset="1" />
    </linearGradient>
    <linearGradient
       id="linearGradient11982"
       x1="176.42999"
       xlink:href="#linearGradient11976"
       gradientUnits="userSpaceOnUse"
       y1="701.31"
       gradientTransform="matrix(0.45921,0,0,0.5,53.446,512.18)"
       x2="154.71001"
       y2="701.31" />
    <linearGradient
       id="linearGradient11976">
      <stop
         id="stop11978"
         stop-color="#364e59"
         offset="0" />
      <stop
         id="stop11980"
         stop-color="#364e59"
         stop-opacity="0"
         offset="1" />
    </linearGradient>
    <linearGradient
       id="linearGradient12300"
       x1="180.95"
       xlink:href="#linearGradient12294"
       gradientUnits="userSpaceOnUse"
       y1="529.40997"
       gradientTransform="matrix(0.23356,0,0,0.25501,78.983,704.76)"
       x2="180.95"
       y2="571.92999" />
    <linearGradient
       id="linearGradient12294">
      <stop
         id="stop12296"
         stop-color="#ccc"
         offset="0" />
      <stop
         id="stop12298"
         stop-color="#999"
         offset="1" />
    </linearGradient>
    <linearGradient
       id="linearGradient12312"
       x1="201.75999"
       xlink:href="#linearGradient12306"
       gradientUnits="userSpaceOnUse"
       y1="580.08002"
       gradientTransform="matrix(0.23356,0,0,0.25501,78.983,704.76)"
       x2="200.86"
       y2="539.35999" />
    <linearGradient
       id="linearGradient12306">
      <stop
         id="stop12308"
         stop-color="#ccc"
         offset="0" />
      <stop
         id="stop12310"
         stop-color="#0e232e"
         offset="1" />
    </linearGradient>
    <linearGradient
       id="linearGradient12322"
       x1="204.48"
       xlink:href="#linearGradient12316"
       gradientUnits="userSpaceOnUse"
       y1="-114"
       gradientTransform="matrix(0.23356,0,0,0.25501,78.983,861.68)"
       x2="202.67"
       y2="-95.904999" />
    <linearGradient
       id="linearGradient12316">
      <stop
         id="stop12318"
         stop-color="#ccc"
         offset="0" />
      <stop
         id="stop12320"
         stop-color="#666"
         offset="1" />
    </linearGradient>
    <linearGradient
       id="linearGradient12340"
       x1="142.95"
       xlink:href="#linearGradient11952"
       gradientUnits="userSpaceOnUse"
       y1="87.762001"
       gradientTransform="matrix(0.19508,0.11263,-0.078841,0.13656,154.83,851.97)"
       x2="164.67"
       y2="89.570999" />
    <linearGradient
       id="linearGradient9991">
      <stop
         id="stop9993"
         stop-color="#ccc"
         offset="0" />
      <stop
         id="stop9995"
         stop-color="#fff"
         offset="1" />
    </linearGradient>
    <linearGradient
       id="linearGradient12342"
       x1="176.42999"
       xlink:href="#linearGradient11976"
       gradientUnits="userSpaceOnUse"
       y1="701.31"
       gradientTransform="matrix(0.20461,0.11813,-0.084906,0.14706,205.6,759.14)"
       x2="154.71001"
       y2="701.31" />
    <linearGradient
       id="linearGradient9998">
      <stop
         id="stop10000"
         stop-color="#364e59"
         offset="0" />
      <stop
         id="stop10002"
         stop-color="#364e59"
         stop-opacity="0"
         offset="1" />
    </linearGradient>
    <linearGradient
       id="linearGradient12344"
       x1="180.95"
       xlink:href="#linearGradient12294"
       gradientUnits="userSpaceOnUse"
       y1="529.40997"
       gradientTransform="matrix(0.10825,0.0625,-0.0625,0.10825,195.05,801.17)"
       x2="180.95"
       y2="571.92999" />
    <linearGradient
       id="linearGradient10005">
      <stop
         id="stop10007"
         stop-color="#ccc"
         offset="0" />
      <stop
         id="stop10009"
         stop-color="#999"
         offset="1" />
    </linearGradient>
    <linearGradient
       id="linearGradient12346"
       x1="201.75999"
       xlink:href="#linearGradient12306"
       gradientUnits="userSpaceOnUse"
       y1="580.08002"
       gradientTransform="matrix(0.10825,0.0625,-0.0625,0.10825,195.05,801.17)"
       x2="200.86"
       y2="539.35999" />
    <linearGradient
       id="linearGradient10012">
      <stop
         id="stop10014"
         stop-color="#ccc"
         offset="0" />
      <stop
         id="stop10016"
         stop-color="#0e232e"
         offset="1" />
    </linearGradient>
    <linearGradient
       id="linearGradient12348"
       x1="204.48"
       xlink:href="#linearGradient12316"
       gradientUnits="userSpaceOnUse"
       y1="-114"
       gradientTransform="matrix(0.10825,0.0625,-0.0625,0.10825,156.59,867.78)"
       x2="202.67"
       y2="-95.904999" />
    <linearGradient
       id="linearGradient10019">
      <stop
         id="stop10021"
         stop-color="#ccc"
         offset="0" />
      <stop
         id="stop10023"
         stop-color="#666"
         offset="1" />
    </linearGradient>
    <linearGradient
       id="linearGradient12358"
       x1="158.12"
       gradientUnits="userSpaceOnUse"
       x2="149.32001"
       y1="118.1"
       y2="90.795998">
      <stop
         id="stop12354"
         stop-color="#2d2d2d"
         offset="0" />
      <stop
         id="stop12356"
         stop-color="#2d2d2d"
         stop-opacity="0"
         offset="1" />
    </linearGradient>
    <filter
       id="filter12360"
       width="1.146"
       y="-0.35730001"
       x="-0.072995998"
       height="1.7146"
       color-interpolation-filters="sRGB">
      <feGaussianBlur
         id="feGaussianBlur12362"
         stdDeviation="2.5592131" />
    </filter>
    <linearGradient
       id="linearGradient10030"
       x1="158.12"
       gradientUnits="userSpaceOnUse"
       x2="149.32001"
       y1="118.1"
       y2="90.795998">
      <stop
         id="stop10032"
         stop-color="#2d2d2d"
         offset="0" />
      <stop
         id="stop10034"
         stop-color="#2d2d2d"
         stop-opacity="0"
         offset="1" />
    </linearGradient>
    <filter
       id="filter10036"
       width="1.146"
       y="-0.35730001"
       x="-0.072995998"
       height="1.7146"
       color-interpolation-filters="sRGB">
      <feGaussianBlur
         id="feGaussianBlur10038"
         stdDeviation="2.5592131" />
    </filter>
    <linearGradient
       id="linearGradient12480"
       y2="199.73"
       gradientUnits="userSpaceOnUse"
       y1="301.26001"
       x2="115.34"
       x1="110.32">
      <stop
         id="stop12476"
         stop-color="#fff"
         offset="0" />
      <stop
         id="stop12478"
         stop-color="#fff"
         stop-opacity="0"
         offset="1" />
    </linearGradient>
    <linearGradient
       id="linearGradient12448"
       x1="94.751999"
       gradientUnits="userSpaceOnUse"
       y1="805.58002"
       gradientTransform="translate(-39,98)"
       x2="82.024002"
       y2="890.42999">
      <stop
         id="stop12444"
         stop-color="#fff"
         offset="0" />
      <stop
         id="stop12446"
         stop-color="#fff"
         stop-opacity="0"
         offset="1" />
    </linearGradient>
    <filter
       id="filter12524"
       width="1.0693001"
       y="-0.51980001"
       x="-0.034653001"
       height="2.0395999"
       color-interpolation-filters="sRGB">
      <feGaussianBlur
         id="feGaussianBlur12526"
         stdDeviation="2.1440456" />
    </filter>
    <linearGradient
       inkscape:collect="always"
       xlink:href="#linearGradient12448"
       id="linearGradient10842"
       gradientUnits="userSpaceOnUse"
       gradientTransform="matrix(2.0926191,0,0,2.0926191,-91.495371,-1927.1771)"
       x1="94.751999"
       y1="805.58002"
       x2="82.024002"
       y2="890.42999" />
    <linearGradient
       inkscape:collect="always"
       xlink:href="#linearGradient12480"
       id="linearGradient10845"
       gradientUnits="userSpaceOnUse"
       x1="110.32"
       y1="301.26001"
       x2="115.34"
       y2="199.73"
       gradientTransform="matrix(1.1148638,-0.68026862,0.46112955,0.88555456,-14.21704,-235.42013)" />
    <linearGradient
       inkscape:collect="always"
       xlink:href="#linearGradient12316"
       id="linearGradient10851"
       gradientUnits="userSpaceOnUse"
       gradientTransform="matrix(0.22652602,0.1307887,-0.1307887,0.22652602,317.8,-316.32078)"
       x1="204.48"
       y1="-114"
       x2="202.67"
       y2="-95.904999" />
    <linearGradient
       inkscape:collect="always"
       xlink:href="#linearGradient12306"
       id="linearGradient10854"
       gradientUnits="userSpaceOnUse"
       gradientTransform="matrix(0.22652602,0.1307887,-0.1307887,0.22652602,398.28213,-455.71015)"
       x1="201.75999"
       y1="580.08002"
       x2="200.86"
       y2="539.35999" />
    <linearGradient
       inkscape:collect="always"
       xlink:href="#linearGradient12294"
       id="linearGradient10857"
       gradientUnits="userSpaceOnUse"
       gradientTransform="matrix(0.22652602,0.1307887,-0.1307887,0.22652602,398.28213,-455.71015)"
       x1="180.95"
       y1="529.40997"
       x2="180.95"
       y2="571.92999" />
    <linearGradient
       inkscape:collect="always"
       xlink:href="#linearGradient11976"
       id="linearGradient10860"
       gradientUnits="userSpaceOnUse"
       gradientTransform="matrix(0.42817079,0.24720109,-0.17767591,0.30774057,420.35926,-543.66292)"
       x1="176.42999"
       y1="701.31"
       x2="154.71001"
       y2="701.31" />
    <linearGradient
       inkscape:collect="always"
       xlink:href="#linearGradient11952"
       id="linearGradient10864"
       gradientUnits="userSpaceOnUse"
       gradientTransform="matrix(0.40822813,0.23569168,-0.16498418,0.28576806,314.11699,-349.40509)"
       x1="142.95"
       y1="87.762001"
       x2="164.67"
       y2="89.570999" />
    <linearGradient
       inkscape:collect="always"
       xlink:href="#linearGradient12316"
       id="linearGradient10868"
       gradientUnits="userSpaceOnUse"
       gradientTransform="matrix(0.48875212,0,0,0.5336388,155.39811,-329.08576)"
       x1="204.48"
       y1="-114"
       x2="202.67"
       y2="-95.904999" />
    <linearGradient
       inkscape:collect="always"
       xlink:href="#linearGradient12306"
       id="linearGradient10871"
       gradientUnits="userSpaceOnUse"
       gradientTransform="matrix(0.48875212,0,0,0.5336388,155.39811,-657.45955)"
       x1="201.75999"
       y1="580.08002"
       x2="200.86"
       y2="539.35999" />
    <linearGradient
       inkscape:collect="always"
       xlink:href="#linearGradient12294"
       id="linearGradient10874"
       gradientUnits="userSpaceOnUse"
       gradientTransform="matrix(0.48875212,0,0,0.5336388,155.39811,-657.45955)"
       x1="180.95"
       y1="529.40997"
       x2="180.95"
       y2="571.92999" />
    <linearGradient
       inkscape:collect="always"
       xlink:href="#linearGradient11976"
       id="linearGradient10877"
       gradientUnits="userSpaceOnUse"
       gradientTransform="matrix(0.96095162,0,0,0.8816027,101.9589,-941.51796)"
       x1="176.42999"
       y1="701.31"
       x2="154.71001"
       y2="701.31" />
    <linearGradient
       inkscape:collect="always"
       xlink:href="#linearGradient11952"
       id="linearGradient10881"
       gradientUnits="userSpaceOnUse"
       gradientTransform="matrix(0.91621142,0,0,0.8186386,111.91977,-392.35007)"
       x1="142.95"
       y1="87.762001"
       x2="164.67"
       y2="89.570999" />
    <radialGradient
       inkscape:collect="always"
       xlink:href="#radialGradient11948"
       id="radialGradient10884"
       gradientUnits="userSpaceOnUse"
       gradientTransform="matrix(-1.1280473,-0.87852339,0.62144512,-0.7979994,-48.776646,557.38957)"
       cx="156"
       cy="682.25"
       r="182.11" />
    <radialGradient
       inkscape:collect="always"
       xlink:href="#radialGradient7415"
       id="radialGradient11017"
       gradientUnits="userSpaceOnUse"
       gradientTransform="matrix(-0.51085035,-0.14077931,0.26503112,-0.83491896,265.05404,638.75708)"
       cx="441.44"
       cy="838.87"
       r="10.607" />
    <linearGradient
       inkscape:collect="always"
       xlink:href="#linearGradient12516"
       id="linearGradient11068"
       gradientUnits="userSpaceOnUse"
       x1="155.89"
       y1="256.16"
       x2="154.21001"
       y2="358.32001"
       gradientTransform="matrix(1.0279783,-0.01432503,0.01688346,1.1109088,84.40601,-439.26218)" />
    <radialGradient
       inkscape:collect="always"
       xlink:href="#radialGradient11934"
       id="radialGradient11071"
       gradientUnits="userSpaceOnUse"
       gradientTransform="matrix(0.35601729,1.1599388,-0.96687373,0.29675431,1035.7986,-798.98339)"
       cx="281.38"
       cy="778.90002"
       r="164.86" />
    <radialGradient
       inkscape:collect="always"
       xlink:href="#radialGradient7408"
       id="radialGradient11078"
       gradientUnits="userSpaceOnUse"
       gradientTransform="matrix(0.1126,0.043242,-0.8148,2.1217,995.5,-936)"
       cx="368.85001"
       cy="820.04999"
       r="23.292999" />
    <linearGradient
       inkscape:collect="always"
       xlink:href="#linearGradient12358"
       id="linearGradient11080"
       gradientUnits="userSpaceOnUse"
       x1="158.12"
       y1="118.1"
       x2="149.32001"
       y2="90.795998" />
    <linearGradient
       inkscape:collect="always"
       xlink:href="#linearGradient12358"
       id="linearGradient11082"
       gradientUnits="userSpaceOnUse"
       x1="158.12"
       y1="118.1"
       x2="149.32001"
       y2="90.795998" />
    <linearGradient
       inkscape:collect="always"
       xlink:href="#linearGradient12480"
       id="linearGradient11216"
       gradientUnits="userSpaceOnUse"
       gradientTransform="matrix(1.2542112,-0.79975622,0.51876638,1.0411002,-63.589702,-269.46911)"
       x1="110.32"
       y1="301.26001"
       x2="115.34"
       y2="199.73" />
    <radialGradient
       inkscape:collect="always"
       xlink:href="#radialGradient11917"
       id="radialGradient4081"
       gradientUnits="userSpaceOnUse"
       gradientTransform="matrix(-0.22687302,0.00444815,-0.0038267,-0.19514764,358.84069,-23.458496)"
       cx="402.55374"
       cy="824.61499"
       fx="402.55374"
       fy="824.61499"
       r="206.88" />
    <inkscape:path-effect
       effect="skeletal"
       id="path-effect5338-8"
       is_visible="true"
       pattern="M -2.1431429e-5,0.28571114 V 10.861452"
       copytype="repeated"
       prop_scale="1.5"
       scale_y_rel="false"
       spacing="84.23"
       normal_offset="1"
       tang_offset="0"
       prop_units="false"
       vertical_pattern="false"
       fuse_tolerance="0" />
    <radialGradient
       inkscape:collect="always"
       xlink:href="#radialGradient11917"
       id="radialGradient5473"
       gradientUnits="userSpaceOnUse"
       gradientTransform="matrix(-0.36595511,0.00717537,-0.00617262,-0.31479526,418.31065,507.02384)"
       cx="402.55374"
       cy="824.61499"
       fx="402.55374"
       fy="824.61499"
       r="206.88" />
    <radialGradient
       inkscape:collect="always"
       xlink:href="#radialGradient11917"
       id="radialGradient5522"
       gradientUnits="userSpaceOnUse"
       gradientTransform="matrix(-0.36595511,0.00717537,-0.00617262,-0.31479526,418.31065,507.02384)"
       cx="402.55374"
       cy="824.61499"
       fx="402.55374"
       fy="824.61499"
       r="206.88" />
  </defs>
  <sodipodi:namedview
     id="base"
     pagecolor="#ffffff"
     bordercolor="#666666"
     borderopacity="1.0"
     inkscape:pageopacity="0.0"
     inkscape:pageshadow="2"
     inkscape:zoom="2"
     inkscape:cx="244.03901"
     inkscape:cy="236.93817"
     inkscape:current-layer="layer1"
     showgrid="true"
     inkscape:document-units="px"
     inkscape:grid-bbox="true"
     inkscape:window-width="1600"
     inkscape:window-height="1178"
     inkscape:window-x="-8"
     inkscape:window-y="-8"
     inkscape:window-maximized="1" />
  <metadata
     id="metadata9389">
    <rdf:RDF>
      <cc:Work
         rdf:about="">
        <dc:format>image/svg+xml</dc:format>
        <dc:type
           rdf:resource="http://purl.org/dc/dcmitype/StillImage" />
        <dc:title />
      </cc:Work>
    </rdf:RDF>
  </metadata>
  <g
     id="layer1"
     inkscape:label="Layer 1"
     inkscape:groupmode="layer"
     transform="translate(0,448)"
     style="display:inline"
     sodipodi:insensitive="true">
    <path
       transform="matrix(2.0524617,0,0,1.0030133,-102.19284,-272.10374)"
       d="m 253.14,330.23 c 0,2.7337 -33.241,4.9498 -74.246,4.9498 -41.005,0 -74.246,-2.2161 -74.246,-4.9498 0,-2.7337 33.241,-4.9498 74.246,-4.9498 41.005,0 74.246,2.2161 74.246,4.9498 z"
       id="path12522"
       inkscape:connector-curvature="0"
       style="opacity:0.39024;fill:#2d2d2d;stroke-width:0;filter:url(#filter12524)" />
    <g
       transform="matrix(1.0463096,0,0,1.0463096,265.50544,-1040.5763)"
       id="g12401"
       style="stroke:#000000;stroke-linecap:round;stroke-linejoin:bevel">
      <path
         d="m -7.2265,568.65 c -27.162,-0.36438 -53.863,15.817 -63.95,39.899 -9.6886,21.787 -4.2353,48.507 13.085,65.462 19,19.593 50.934,25.964 76.839,15.984 24.049,-8.6863 41.994,-31.322 42.692,-55.909 1.3267,-23.804 -13.667,-47.087 -35.912,-57.832 -10.05,-5.02 -21.401,-7.6191 -32.754,-7.6035 z m 0,7.4566 c 26.404,-0.44821 52.13,17.172 58.663,41.664 6.5248,21.893 -3.6994,46.678 -23.6,59.164 -22.826,15.341 -56.528,13.196 -76.853,-5.0882 -18.263,-15.352 -24.147,-42.19 -13.43,-63.053 9.6455,-19.953 32.201,-32.926 55.22,-32.688 z"
         id="path12395"
         inkscape:connector-curvature="0"
         style="fill:#cccccc;stroke-width:0.184" />
      <path
         d="m -6.8922,571.41 c -25.583,-0.34322 -50.733,14.898 -60.233,37.58 -9.1255,20.521 -3.9891,45.687 12.324,61.657 17.896,18.454 47.974,24.455 72.373,15.055 22.651,-8.1814 39.553,-29.501 40.21,-52.659 1.2495,-22.42 -12.873,-44.35 -33.825,-54.471 -9.4659,-4.7283 -20.157,-7.1763 -30.85,-7.1616 z m 0,7.0232 c 24.869,-0.42213 49.1,16.174 55.254,39.243 6.1455,20.621 -3.4844,43.965 -22.229,55.726 -21.5,14.449 -53.242,12.429 -72.386,-4.7925 -17.202,-14.459 -22.744,-39.737 -12.649,-59.388 9.0849,-18.794 30.33,-31.012 52.01,-30.788 z"
         id="path12389"
         inkscape:connector-curvature="0"
         style="fill:#666666;stroke-width:0.1733;filter:url(#filter12397)" />
      <path
         d="m -7.2247,572.35 c -24.399,-0.32735 -48.385,14.208 -57.445,35.841 -8.7032,19.571 -3.8045,43.573 11.754,58.804 17.068,17.6 45.754,23.323 69.024,14.358 21.603,-7.8028 37.723,-28.136 38.349,-50.222 1.1917,-21.383 -12.277,-42.298 -32.259,-51.95 -9.0278,-4.5095 -19.225,-6.8442 -29.423,-6.8301 z m 0,6.6982 c 23.718,-0.40257 46.828,15.426 52.697,37.426 5.8611,19.666 -3.3231,41.93 -21.2,53.147 -20.505,13.78 -50.778,11.854 -69.036,-4.5707 -16.406,-13.79 -21.691,-37.898 -12.064,-56.639 8.6644,-17.924 28.926,-29.577 49.603,-29.363 z"
         id="path12368"
         inkscape:connector-curvature="0"
         style="fill:#cccccc;stroke-width:0.16528" />
    </g>
    <path
       transform="matrix(2.1154286,0,0,2.1166842,-99.018336,-1946.5762)"
       d="m 168.34,769.92 c -52.15,0 -94.426,39.85 -94.426,89.012 0,49.162 42.277,89.012 94.426,89.012 52.15,0 94.426,-39.85 94.426,-89.012 0,-49.162 -42.277,-89.012 -94.426,-89.012 z m 0,10.535 c 45.967,0 83.233,35.143 83.233,78.477 0,43.335 -37.265,78.456 -83.233,78.456 -45.967,0 -83.232,-35.121 -83.232,-78.456 0,-43.335 37.265,-78.477 83.232,-78.477 z"
       id="path12375"
       inkscape:connector-curvature="0"
       style="opacity:0.44878001;fill:#666666;stroke-width:0;filter:url(#filter12470)" />
    <path
       d="m 260.77613,-291.75344 c -95.26439,0 -172.492501,74.64582 -172.492501,166.7357 0,92.089895 77.228111,166.735712 172.492501,166.735712 95.26439,0 172.4925,-74.645817 172.4925,-166.735712 0,-92.08988 -77.22811,-166.7357 -172.4925,-166.7357 z m 0,19.73444 c 83.97052,0 152.04551,65.82753 152.04551,147.00022 0,81.172695 -68.07289,146.960455 -152.04551,146.960455 -83.97052,0 -152.04552,-65.78776 -152.04552,-146.960455 0,-81.17269 68.0729,-147.00022 152.04552,-147.00022 z"
       id="path11919"
       inkscape:connector-curvature="0"
       style="fill:url(#radialGradient11071);stroke-width:0" />
    <path
       d="m 427.95838,-126.618 c 1.3846,91.105625 -74.62219,166.033643 -169.76157,167.359424 -95.1435,1.325839 -173.391035,-71.454845 -174.775614,-162.558244 -1.384612,-91.10563 74.622184,-166.03364 169.761564,-167.35942 95.1435,-1.32585 173.39103,71.45484 174.77562,162.55824 z"
       id="path7337"
       inkscape:connector-curvature="0"
       style="fill:url(#linearGradient11068);stroke:#8e8e8e;stroke-width:1.25941789;stroke-linecap:round;stroke-linejoin:bevel" />
    <g
       id="text5710"
       style="fill:#0e232e"
       transform="matrix(2.0926191,0,0,2.0926191,-25.146682,-2142.9713)">
      <path
         d="m 95.665,911.26 v -1.3292 c 0.48246,0.29539 0.9961,0.44308 1.5409,0.44308 0.41026,0 0.73108,-0.0976 0.96247,-0.29292 0.23138,-0.19528 0.34708,-0.46031 0.34708,-0.79508 -3e-6,-0.69908 -0.49395,-1.0486 -1.4819,-1.0486 -0.32164,0 -0.71057,0.0295 -1.1668,0.0886 v -3.9434 h 3.9089 v 1.2702 h -2.5797 v 1.4129 c 0.20677,-0.0197 0.40205,-0.0295 0.58585,-0.0295 0.72533,10e-6 1.2931,0.19037 1.7034,0.57108 0.41025,0.38073 0.61539,0.89273 0.61539,1.536 0,0.71221 -0.24452,1.294 -0.73354,1.7452 -0.48903,0.45128 -1.152,0.67692 -1.9889,0.67692 -0.67939,0 -1.2505,-0.10174 -1.7132,-0.30523 z"
         id="path3337"
         inkscape:connector-curvature="0" />
      <path
         d="m 101.47,911.26 v -1.3292 c 0.48247,0.29539 0.99611,0.44308 1.5409,0.44308 0.41026,0 0.73108,-0.0976 0.96247,-0.29292 0.23138,-0.19528 0.34707,-0.46031 0.34708,-0.79508 -10e-6,-0.69908 -0.49396,-1.0486 -1.4818,-1.0486 -0.32165,0 -0.71057,0.0295 -1.1668,0.0886 v -3.9434 h 3.9089 v 1.2702 h -2.5797 v 1.4129 c 0.20676,-0.0197 0.40205,-0.0295 0.58585,-0.0295 0.72533,10e-6 1.2931,0.19037 1.7034,0.57108 0.41025,0.38073 0.61538,0.89273 0.61538,1.536 0,0.71221 -0.24451,1.294 -0.73354,1.7452 -0.48903,0.45128 -1.152,0.67692 -1.9889,0.67692 -0.67939,0 -1.2505,-0.10174 -1.7132,-0.30523 z"
         id="path3339"
         inkscape:connector-curvature="0" />
    </g>
    <g
       id="text5730"
       style="fill:#0e232e"
       transform="matrix(2.0926191,0,0,2.0926191,-29.236779,-2133.5466)">
      <path
         d="m 72.707,961.93 h -0.84677 v 1.5016 h -1.4179 V 961.93 h -3.0769 v -0.98954 l 2.9637,-4.5686 h 1.5311 v 4.4505 H 72.707 z m -2.2449,-4.0025 h -0.02954 c -0.04595,0.11816 -0.13457,0.30196 -0.26585,0.55139 l -1.5114,2.3434 h 1.7871 v -2.2203 c -3e-6,-0.19692 0.0066,-0.42174 0.01969,-0.67447 z"
         id="path3332"
         inkscape:connector-curvature="0" />
      <path
         d="m 73.79,963.25 v -1.3292 c 0.48246,0.29538 0.9961,0.44307 1.5409,0.44307 0.41026,0 0.73108,-0.0976 0.96247,-0.29292 0.23138,-0.19528 0.34707,-0.46031 0.34708,-0.79508 -4e-6,-0.69908 -0.49395,-1.0486 -1.4819,-1.0486 -0.32164,0 -0.71057,0.0295 -1.1668,0.0886 v -3.9434 h 3.9089 v 1.2702 h -2.5797 v 1.4129 c 0.20677,-0.0197 0.40205,-0.0295 0.58585,-0.0295 0.72533,10e-6 1.2931,0.19037 1.7034,0.57108 0.41025,0.38073 0.61538,0.89273 0.61539,1.536 -5e-6,0.71221 -0.24452,1.294 -0.73354,1.7452 -0.48903,0.45128 -1.152,0.67692 -1.9889,0.67692 -0.67939,0 -1.2505,-0.10174 -1.7132,-0.30523 z"
         id="path3334"
         inkscape:connector-curvature="0" />
    </g>
    <g
       id="text5758"
       style="fill:#0e232e"
       transform="matrix(2.0926191,0,0,2.0926191,-1.8832257,-2140.2538)">
      <path
         d="m 180.48,934.26 h -4.4652 v -1.2308 h 1.4622 v -4.3963 l -1.5015,0.32493 v -1.2603 l 3.0523,-0.61538 v 5.9471 h 1.4523 z"
         id="path3324"
         inkscape:connector-curvature="0" />
      <path
         d="m 183.86,934.38 c -1.6804,0 -2.5206,-1.1799 -2.5206,-3.5397 0,-1.2242 0.22728,-2.1571 0.68185,-2.7988 0.45456,-0.64164 1.1134,-0.96246 1.9766,-0.96246 1.641,0 2.4615,1.1996 2.4616,3.5988 -1e-5,1.1947 -0.22401,2.1104 -0.67201,2.7471 -0.448,0.63672 -1.0905,0.95508 -1.9274,0.95508 z m 0.0689,-6.1145 c -0.67283,10e-6 -1.0092,0.84514 -1.0092,2.5354 0,1.5918 0.32985,2.3877 0.98954,2.3877 0.64328,0 0.96493,-0.82052 0.96493,-2.4616 0,-1.641 -0.31508,-2.4615 -0.94523,-2.4616 z"
         id="path3326"
         inkscape:connector-curvature="0" />
    </g>
    <g
       id="text5762"
       style="fill:#0e232e"
       transform="matrix(2.0926191,0,0,2.0926191,8.1167743,-2134.2538)">
      <path
         d="m 184.81,963.92 h -4.4652 v -1.2308 h 1.4622 v -4.3963 l -1.5016,0.32492 v -1.2603 l 3.0523,-0.61539 v 5.9471 h 1.4523 z"
         id="path3319"
         inkscape:connector-curvature="0" />
      <path
         d="m 186.13,963.73 v -1.3292 c 0.48247,0.29538 0.99611,0.44308 1.5409,0.44308 0.41026,0 0.73108,-0.0976 0.96247,-0.29293 0.23138,-0.19528 0.34707,-0.46031 0.34708,-0.79508 -1e-5,-0.69907 -0.49396,-1.0486 -1.4819,-1.0486 -0.32164,10e-6 -0.71056,0.0295 -1.1668,0.0886 v -3.9434 h 3.9089 v 1.2702 h -2.5797 v 1.4129 c 0.20676,-0.0197 0.40205,-0.0295 0.58585,-0.0295 0.72533,0 1.2931,0.19036 1.7034,0.57108 0.41025,0.38072 0.61538,0.89272 0.61538,1.536 0,0.71221 -0.24452,1.294 -0.73354,1.7452 -0.48903,0.45128 -1.152,0.67693 -1.9889,0.67693 -0.67939,0 -1.2505,-0.10175 -1.7132,-0.30524 z"
         id="path3321"
         inkscape:connector-curvature="0" />
    </g>
    <g
       id="text5766"
       style="fill:#0e232e"
       transform="matrix(2.0926191,0,0,2.0926191,0.1167743,-2127.7538)">
      <path
         d="m 176.72,992.79 v 0.0295 h 2.8652 v 1.2899 h -4.6474 v -1.2111 l 2.0234,-1.9348 c 0.40697,-0.39057 0.69333,-0.71795 0.85908,-0.98216 0.16574,-0.2642 0.24861,-0.54236 0.24862,-0.83447 -1e-5,-0.64984 -0.34955,-0.97476 -1.0486,-0.97477 -0.60719,10e-6 -1.1881,0.24124 -1.7428,0.7237 v -1.3686 c 0.61374,-0.39713 1.3063,-0.59569 2.0776,-0.5957 0.72205,10e-6 1.2857,0.18134 1.6911,0.544 0.40533,0.36268 0.608,0.85252 0.608,1.4696 0,0.8238 -0.49395,1.6755 -1.4818,2.5551 z"
         id="path3314"
         inkscape:connector-curvature="0" />
      <path
         d="m 183.07,994.23 c -1.6804,0 -2.5206,-1.1799 -2.5206,-3.5397 0,-1.2242 0.22728,-2.1571 0.68185,-2.7988 0.45456,-0.64164 1.1134,-0.96246 1.9766,-0.96247 1.641,10e-6 2.4615,1.1996 2.4616,3.5988 -1e-5,1.1947 -0.22401,2.1104 -0.672,2.7471 -0.44801,0.63672 -1.0905,0.95508 -1.9274,0.95508 z m 0.0689,-6.1145 c -0.67283,0 -1.0092,0.84513 -1.0092,2.5354 0,1.5918 0.32985,2.3877 0.98955,2.3877 0.64328,0 0.96492,-0.82051 0.96492,-2.4615 0,-1.64099 -0.31508,-2.4616 -0.94523,-2.4616 z"
         id="path3316"
         inkscape:connector-curvature="0" />
    </g>
    <g
       transform="matrix(2.0187496,0,0,2.1692089,-1.8832257,-2116.2538)"
       id="text5770"
       style="fill:#0e232e">
      <path
         d="m 161.1,974.25 v 0.0295 h 2.8652 v 1.2898 h -4.6474 v -1.2111 l 2.0234,-1.9348 c 0.40697,-0.39056 0.69333,-0.71795 0.85908,-0.98216 0.16574,-0.2642 0.24861,-0.54235 0.24862,-0.83446 -1e-5,-0.64985 -0.34955,-0.97477 -1.0486,-0.97478 -0.60719,1e-5 -1.1881,0.24124 -1.7428,0.7237 v -1.3686 c 0.61374,-0.39712 1.3063,-0.59569 2.0776,-0.5957 0.72205,10e-6 1.2857,0.18134 1.6911,0.54401 0.40533,0.36267 0.608,0.85252 0.608,1.4695 0,0.8238 -0.49395,1.6755 -1.4818,2.5551 z"
         id="path3309"
         inkscape:connector-curvature="0" />
      <path
         d="m 165.39,975.39 v -1.3292 c 0.48246,0.29539 0.99611,0.44308 1.5409,0.44308 0.41026,0 0.73108,-0.0976 0.96247,-0.29293 0.23138,-0.19528 0.34707,-0.4603 0.34707,-0.79508 0,-0.69907 -0.49395,-1.0486 -1.4818,-1.0486 -0.32164,1e-5 -0.71057,0.0295 -1.1668,0.0886 v -3.9434 h 3.9089 v 1.2702 h -2.5797 v 1.4129 c 0.20677,-0.0197 0.40205,-0.0295 0.58585,-0.0295 0.72533,0 1.2931,0.19036 1.7034,0.57108 0.41026,0.38072 0.61539,0.89272 0.61539,1.536 0,0.71221 -0.24452,1.294 -0.73354,1.7452 -0.48903,0.45128 -1.152,0.67693 -1.9889,0.67693 -0.67939,0 -1.2505,-0.10175 -1.7132,-0.30524 z"
         id="path3311"
         inkscape:connector-curvature="0" />
    </g>
    <g
       id="text5774"
       style="fill:#0e232e"
       transform="matrix(2.0926191,0,0,2.0926191,-9.7331892,-2117.9002)">
      <path
         d="m 123.81,1020.8 v -1.3538 c 0.47262,0.3446 1.024,0.5169 1.6542,0.5169 0.39713,0 0.70646,-0.085 0.92801,-0.256 0.22153,-0.1707 0.3323,-0.4086 0.33231,-0.7139 -1e-5,-0.3151 -0.13703,-0.5579 -0.41108,-0.7286 -0.27406,-0.1707 -0.65067,-0.256 -1.1298,-0.256 h -0.63508 v -1.1914 h 0.58585 c 0.91897,0 1.3785,-0.3052 1.3785,-0.9157 0,-0.5743 -0.35282,-0.8615 -1.0585,-0.8615 -0.47262,0 -0.93211,0.1526 -1.3785,0.4578 v -1.2701 c 0.49559,-0.2495 1.0732,-0.3742 1.7329,-0.3742 0.72205,0 1.2841,0.1625 1.6862,0.4874 0.40205,0.3249 0.60307,0.7467 0.60308,1.2652 -1e-5,0.9223 -0.4677,1.4999 -1.4031,1.733 v 0.025 c 0.49887,0.062 0.89271,0.2437 1.1815,0.544 0.28882,0.3003 0.43323,0.6687 0.43323,1.1052 0,0.6597 -0.24123,1.1816 -0.72369,1.5656 -0.48247,0.384 -1.1487,0.576 -1.9988,0.576 -0.72862,0 -1.321,-0.1182 -1.7772,-0.3545 z"
         id="path3304"
         inkscape:connector-curvature="0" />
      <path
         d="m 131.76,1021.2 c -1.6804,0 -2.5206,-1.1799 -2.5206,-3.5397 0,-1.2242 0.22728,-2.1572 0.68185,-2.7988 0.45456,-0.6417 1.1134,-0.9625 1.9766,-0.9625 1.641,0 2.4615,1.1996 2.4616,3.5988 -1e-5,1.1947 -0.22401,2.1104 -0.672,2.7471 -0.44801,0.6367 -1.0905,0.9551 -1.9274,0.9551 z m 0.0689,-6.1145 c -0.67283,0 -1.0092,0.8451 -1.0092,2.5354 0,1.5918 0.32985,2.3877 0.98954,2.3877 0.64329,0 0.96493,-0.8205 0.96493,-2.4616 0,-1.641 -0.31508,-2.4615 -0.94523,-2.4615 z"
         id="path3306"
         inkscape:connector-curvature="0" />
    </g>
    <g
       id="text5778"
       style="fill:#0e232e"
       transform="matrix(2.0926191,0,0,2.0926191,-27.883226,-2122.2538)">
      <path
         d="m 97.738,1013.7 v -1.3538 c 0.47262,0.3446 1.024,0.5169 1.6542,0.5169 0.39713,0 0.70646,-0.085 0.928,-0.256 0.22154,-0.1707 0.33231,-0.4086 0.33231,-0.7139 0,-0.315 -0.13703,-0.5579 -0.41108,-0.7286 -0.27405,-0.1706 -0.65067,-0.256 -1.1298,-0.256 h -0.63508 v -1.1914 h 0.58585 c 0.91898,0 1.3785,-0.3052 1.3785,-0.9157 -1e-5,-0.5743 -0.35283,-0.8615 -1.0585,-0.8615 -0.47262,0 -0.93211,0.1526 -1.3785,0.4578 v -1.2701 c 0.49559,-0.2494 1.0732,-0.3742 1.7329,-0.3742 0.72205,0 1.2841,0.1625 1.6862,0.4874 0.40205,0.3249 0.60308,0.7467 0.60308,1.2653 0,0.9222 -0.46769,1.4999 -1.4031,1.7329 v 0.025 c 0.49887,0.062 0.89272,0.2437 1.1815,0.544 0.28882,0.3003 0.43323,0.6687 0.43324,1.1052 -10e-6,0.6597 -0.24124,1.1816 -0.7237,1.5656 -0.48247,0.384 -1.1487,0.576 -1.9988,0.576 -0.72862,0 -1.321,-0.1182 -1.7772,-0.3545 z"
         id="path3299"
         inkscape:connector-curvature="0" />
      <path
         d="m 103.63,1013.8 v -1.3293 c 0.48247,0.2954 0.99611,0.4431 1.5409,0.4431 0.41026,0 0.73108,-0.098 0.96247,-0.2929 0.23138,-0.1953 0.34707,-0.4603 0.34708,-0.7951 -1e-5,-0.6991 -0.49396,-1.0486 -1.4819,-1.0486 -0.32164,0 -0.71056,0.029 -1.1668,0.089 v -3.9434 h 3.9089 v 1.2701 h -2.5797 v 1.413 c 0.20676,-0.02 0.40205,-0.03 0.58584,-0.03 0.72534,0 1.2931,0.1904 1.7034,0.5711 0.41025,0.3807 0.61538,0.8927 0.61538,1.536 0,0.7122 -0.24452,1.294 -0.73354,1.7453 -0.48903,0.4512 -1.152,0.6769 -1.9889,0.6769 -0.67939,0 -1.2505,-0.1018 -1.7132,-0.3052 z"
         id="path3301"
         inkscape:connector-curvature="0" />
    </g>
    <g
       id="text5782"
       style="fill:#0e232e"
       transform="matrix(2.0926191,0,0,2.0926191,-32.883226,-2131.2538)">
      <path
         d="m 81.512,991.94 h -0.84677 v 1.5015 h -1.4179 V 991.94 h -3.0769 v -0.98954 l 2.9637,-4.5686 h 1.5311 v 4.4505 H 81.512 z m -2.2449,-4.0025 h -0.02954 c -0.04595,0.11816 -0.13457,0.30196 -0.26585,0.55139 l -1.5114,2.3434 h 1.7871 v -2.2203 c -4e-6,-0.19691 0.0066,-0.42174 0.01969,-0.67446 z"
         id="path3294"
         inkscape:connector-curvature="0" />
      <path
         d="m 84.653,993.56 c -1.6804,0 -2.5206,-1.1799 -2.5206,-3.5397 0,-1.2242 0.22728,-2.1571 0.68185,-2.7988 0.45456,-0.64163 1.1134,-0.96246 1.9766,-0.96246 1.641,0 2.4615,1.1996 2.4615,3.5988 -6e-6,1.1947 -0.22401,2.1104 -0.672,2.7471 -0.44801,0.63672 -1.0905,0.95508 -1.9274,0.95508 z m 0.06892,-6.1145 c -0.67282,10e-6 -1.0092,0.84514 -1.0092,2.5354 -2e-6,1.5918 0.32985,2.3877 0.98954,2.3877 0.64328,0 0.96492,-0.82051 0.96493,-2.4616 -4e-6,-1.641 -0.31508,-2.4615 -0.94524,-2.4616 z"
         id="path3296"
         inkscape:connector-curvature="0" />
    </g>
    <g
       transform="matrix(1.1101135,0.59717071,-0.64092738,1.0343398,404.69755,-1211.1875)"
       id="g5819">
      <path
         d="m 345.79,870.4 c 0.4836,3.3467 2.285,3.3205 4.7009,1.7214 l 41.884,-104.77 -0.17682,-0.0509 z"
         id="path5788"
         inkscape:connector-curvature="0"
         style="fill:url(#radialGradient11078);stroke-width:0" />
    </g>
    <path
       d="m 269.8383,-117.78699 c -3.87066,3.60645 -10.08213,3.66634 -13.8739,0.13336 -3.79151,-3.53274 -3.72758,-9.32037 0.14321,-12.92693 3.87066,-3.60644 10.08214,-3.66633 13.87391,-0.13336 3.79151,3.53274 3.72757,9.32037 -0.14322,12.92693 z"
       id="path5786"
       inkscape:connector-curvature="0"
       style="fill:url(#radialGradient11017);stroke-width:0" />
    <text
       x="285.78995"
       y="-388.86578"
       line-height="125%"
       font-size="11px"
       xml:space="preserve"
       style="font-size:23.01881027px;line-height:125%;letter-spacing:0px;word-spacing:0px;fill:#0e232e;font-family:Sans"
       id="text5861"
       sodipodi:linespacing="125%">       <tspan
   x="285.78995"
   y="-388.86578"
   id="tspan5863" />     </text>
    <use
       x="-50.393002"
       y="-23.148001"
       width="100.786"
       height="46.297001"
       transform="matrix(1.742231,0,0,-1.742231,14.029133,-1076.8623)"
       id="use44" />
    <g
       id="text7357"
       style="fill:#0e232e"
       transform="matrix(2.0926191,0,0,2.0926191,-17.883226,-2144.2538)">
      <path
         d="m 71.981,935.25 v -1.3292 c 0.48246,0.29538 0.9961,0.44307 1.5409,0.44307 0.41026,0 0.73108,-0.0976 0.96247,-0.29292 0.23138,-0.19528 0.34707,-0.46031 0.34708,-0.79508 -4e-6,-0.69908 -0.49395,-1.0486 -1.4819,-1.0486 -0.32164,0 -0.71057,0.0295 -1.1668,0.0886 v -3.9434 h 3.9089 v 1.2702 h -2.5797 v 1.4129 c 0.20677,-0.0197 0.40205,-0.0295 0.58585,-0.0295 0.72533,10e-6 1.2931,0.19037 1.7034,0.57108 0.41025,0.38073 0.61538,0.89273 0.61539,1.536 -5e-6,0.71221 -0.24452,1.294 -0.73354,1.7452 -0.48903,0.45128 -1.152,0.67692 -1.9889,0.67692 -0.67939,0 -1.2505,-0.10174 -1.7132,-0.30523 z"
         id="path3288"
         inkscape:connector-curvature="0" />
      <path
         d="m 79.848,935.55 c -1.6804,0 -2.5206,-1.1799 -2.5206,-3.5397 0,-1.2242 0.22728,-2.1571 0.68185,-2.7988 0.45456,-0.64164 1.1134,-0.96246 1.9766,-0.96247 1.641,1e-5 2.4615,1.1996 2.4615,3.5988 -6e-6,1.1947 -0.22401,2.1104 -0.672,2.7471 -0.44801,0.63672 -1.0905,0.95508 -1.9274,0.95508 z m 0.06892,-6.1145 c -0.67283,0 -1.0092,0.84513 -1.0092,2.5354 -2e-6,1.5918 0.32984,2.3877 0.98954,2.3877 0.64328,0 0.96492,-0.82051 0.96493,-2.4615 -3e-6,-1.641 -0.31508,-2.4616 -0.94523,-2.4616 z"
         id="path3290"
         inkscape:connector-curvature="0" />
    </g>
    <path
       d="m 266.16407,-123.64289 c 0,1.62523 -1.46389,2.94275 -3.26971,2.94275 -1.80582,0 -3.26972,-1.31752 -3.26972,-2.94275 0,-1.62523 1.4639,-2.94275 3.26972,-2.94275 1.80582,0 3.26971,1.31752 3.26971,2.94275 z"
       id="path7377"
       inkscape:connector-curvature="0"
       style="fill:#2d2d2d;stroke:#000000;stroke-width:0.3138929;stroke-linecap:round;stroke-linejoin:bevel" />
    <path
       d="m 260.77613,-296.81758 c -98.1543,0 -177.724049,76.91003 -177.724049,171.79147 0,94.883541 79.571839,171.791479 177.724049,171.791479 98.1543,0 177.72405,-76.910031 177.72405,-171.791479 0,-94.88353 -79.57185,-171.79147 -177.72405,-171.79147 z m 0,20.33293 c 86.51725,0 156.65556,67.82389 156.65556,151.45959 0,83.63571 -70.13831,151.417735 -156.65556,151.417735 -86.51725,0 -156.65556,-67.784118 -156.65556,-151.417735 0,-83.6357 70.13831,-151.45959 156.65556,-151.45959 z"
       id="path11936"
       inkscape:connector-curvature="0"
       style="opacity:0.20488;fill:#666666;stroke-width:0" />
    <path
       d="m 260.77613,-308.95476 c -105.08715,0 -190.279763,82.34246 -190.279763,183.92865 0,101.586201 85.192613,183.928669 190.279763,183.928669 105.08715,0 190.27976,-82.342468 190.27976,-183.928669 0,-101.58619 -85.19261,-183.92865 -190.27976,-183.92865 z m 0,21.76951 c 92.62979,0 167.72342,72.61597 167.72342,162.15914 0,89.543178 -75.09363,162.115208 -167.72342,162.115208 -92.62979,0 -167.723422,-72.57203 -167.723422,-162.115208 0,-89.54317 75.093632,-162.15914 167.723422,-162.15914 z"
       id="path11940"
       inkscape:connector-curvature="0"
       style="opacity:0.20488;fill:url(#radialGradient10884);stroke:#000000;stroke-width:0.5231548;stroke-linecap:round;stroke-linejoin:bevel" />
    <path
       d="m 242.54941,-304.89508 1.18209,-41.53407 30.67151,-0.74066 0.82895,41.47763 z"
       id="path11950"
       inkscape:connector-curvature="0"
       style="fill:url(#linearGradient10881);stroke-width:0" />
    <path
       d="m 251.95021,-307.91016 -0.21813,-38.55426 4.03561,-0.70097 0.10903,39.256 z"
       id="path11962"
       inkscape:connector-curvature="0"
       style="opacity:0.80088495;fill:#e5c7c0;fill-opacity:1;stroke-width:0" />
    <path
       d="m 254.95865,-305.68853 -1.12198,-40.7371 20.75627,-0.74064 0.56097,41.47764 z"
       id="path11966"
       inkscape:connector-curvature="0"
       style="opacity:0.66341002;fill:url(#linearGradient10877);stroke-width:0" />
    <path
       d="m 354.69288,-285.26632 8.89739,-14.19423 13.81484,7.63136 -7.98982,14.69186 z"
       id="path12326"
       inkscape:connector-curvature="0"
       style="fill:url(#linearGradient10864);stroke-width:0" />
    <path
       d="m 359.26908,-283.50743 7.6728,-13.51434 1.93937,0.79346 -7.8628,13.73093 z"
       id="path12328"
       inkscape:connector-curvature="0"
       style="opacity:0.79203539;fill:#e5c7c0;fill-opacity:1;stroke-width:0" />
    <path
       d="m 360.3848,-282.35758 7.71005,-14.50855 9.39732,5.08088 -8.10932,14.62281 z"
       id="path12330"
       inkscape:connector-curvature="0"
       style="opacity:0.66341002;fill:url(#linearGradient10860);stroke-width:0" />
    <path
       d="m 364.84208,-320.02472 c -0.25985,-0.14272 -0.6483,0.0437 -0.81056,0.3249 l -7.8515,13.5991 c -0.18541,0.32115 -0.008,0.63449 0.23826,0.91154 0.0247,0.0276 0.0511,0.0537 0.0755,0.0814 l 8.52176,-14.76008 c -0.0249,-0.0281 -0.0506,-0.0533 -0.0755,-0.0814 -0.0306,-0.0347 -0.0609,-0.0551 -0.0982,-0.0755 z m 29.6001,17.09962 c -0.0358,-0.023 -0.0724,-0.0467 -0.1174,-0.0582 -0.5169,-0.13519 -1.03822,-0.26442 -1.55459,-0.39726 l -8.49729,14.71759 c 0.50933,0.14733 1.01885,0.29965 1.53006,0.43978 0.0594,0.0168 0.11782,0.0272 0.17724,0.0362 l 8.41945,-14.58304 c 0.0247,-0.0429 0.0449,-0.0885 0.0664,-0.13162 -0.008,-0.008 -0.0146,-0.0168 -0.024,-0.0236 z m 0.17033,0.21161 c -0.0594,0.0768 -0.12095,0.1605 -0.17243,0.24969 l -8.25203,14.2928 c 0.21679,-0.008 0.40563,-0.0978 0.52349,-0.30184 l 7.8515,-13.5991 c 0.11196,-0.19377 0.13142,-0.44629 0.0496,-0.6416 z m -29.38246,-16.9069 -8.51759,14.75297 c 0.40593,0.44888 0.82012,0.88966 1.23212,1.31544 l 8.50942,-14.73873 c -0.40335,-0.42975 -0.81419,-0.87154 -1.22395,-1.32962 z m 27.31287,16.17469 c -0.57895,-0.14858 -1.1622,-0.29602 -1.74193,-0.44876 l -8.46046,14.65377 c 0.56656,0.1762 1.13586,0.34661 1.70516,0.51247 l 8.48892,-14.70337 c 0.002,-0.006 0.004,-0.0105 0.008,-0.0146 z m -25.96104,-14.70567 -8.50943,14.73874 c 0.83894,0.86082 1.6826,1.67083 2.54526,2.44167 l 8.46443,-14.6609 c -0.82024,-0.78027 -1.6536,-1.62225 -2.50026,-2.51951 z m 23.98141,14.19508 c -0.57247,-0.15235 -1.14342,-0.31072 -1.71847,-0.47304 l -8.41548,14.57592 c 0.55646,0.18729 1.11814,0.36816 1.67762,0.54385 l 8.45627,-14.64665 z m -1.76503,-0.4905 c -0.56399,-0.15988 -1.12745,-0.32138 -1.69506,-0.49731 l -8.37048,14.49809 c 0.54885,0.19879 1.09797,0.38899 1.6501,0.57515 l 8.41548,-14.57593 z m -19.63651,-11.11054 -8.46046,14.65377 c 0.43758,0.38935 0.87986,0.77385 1.32316,1.14148 l 8.43179,-14.60439 c -0.42815,-0.38171 -0.85946,-0.77866 -1.29453,-1.19103 z m 17.83016,10.57735 c -1.08787,-0.33925 -2.1847,-0.71578 -3.29316,-1.14617 l -8.29681,14.37064 c 1.06748,0.4505 2.13719,0.87973 3.21949,1.27361 l 8.37048,-14.49808 z m -16.49717,-9.35485 -8.43178,14.60439 c 0.45419,0.37592 0.91409,0.73181 1.37407,1.08593 l 8.39496,-14.54057 c -0.44273,-0.36834 -0.88735,-0.74924 -1.33731,-1.14965 z m 1.52215,1.30356 -8.39098,14.53345 c 0.46257,0.3526 0.92753,0.70061 1.39559,1.03228 l 8.35834,-14.47673 c -0.45178,-0.34589 -0.90385,-0.71061 -1.36292,-1.08894 z m 11.50983,6.84349 c -0.53203,-0.20906 -1.06571,-0.43395 -1.60408,-0.67123 l -8.27652,14.33528 c 0.52714,0.24197 1.05638,0.47353 1.58771,0.69957 l 8.29285,-14.36353 z m -9.96087,-5.61889 -8.35415,14.46983 c 0.4737,0.33248 0.94214,0.65935 1.42122,0.97158 0.008,-0.0105 0.0146,-0.0234 0.0209,-0.0354 l 8.30917,-14.39199 c -0.45969,-0.3217 -0.92975,-0.6601 -1.39672,-1.01406 z m 8.01787,4.799 c -0.51545,-0.23268 -1.03678,-0.48584 -1.55908,-0.74909 l -8.27233,14.32816 c 0.51605,0.25975 1.03862,0.50627 1.5591,0.74912 l 8.27233,-14.32817 z m -6.46661,-3.67694 -8.32548,14.42024 c 0.48452,0.3132 0.97545,0.61816 1.46508,0.91194 l 8.29681,-14.37064 c -0.47758,-0.30304 -0.95145,-0.62519 -1.43648,-0.9615 z m 4.79712,2.87337 c -0.50325,-0.2555 -1.01185,-0.52535 -1.52232,-0.81281 l -8.27651,14.33528 c 0.50725,0.27702 1.01448,0.54657 1.52639,0.80574 l 8.27234,-14.32816 z m -3.23017,-1.82729 -8.29283,14.36353 c 0.49302,0.29431 0.99221,0.57647 1.49079,0.85105 l 8.27652,-14.33528 c -0.48747,-0.27903 -0.97951,-0.56794 -1.47437,-0.87949 z"
       id="path12332"
       inkscape:connector-curvature="0"
       style="opacity:0.66341002;fill:url(#linearGradient10857);stroke-width:0" />
    <path
       d="m 365.03041,-321.30122 c -0.22044,-0.12117 -0.46351,-0.0935 -0.66612,-0.008 -0.20256,0.0864 -0.38087,0.23467 -0.49466,0.43173 l -7.8515,13.59909 c -0.12912,0.22373 -0.13749,0.48091 -0.067,0.68814 0.0701,0.20717 0.19921,0.38092 0.33423,0.53278 0.032,0.036 0.058,0.0617 0.0755,0.0814 l 0.19169,-0.0213 0.0283,0.26173 c 0.40816,0.45136 0.82539,0.89187 1.2392,1.31954 l 0.11049,-0.0125 0.0168,0.15109 c 0.84285,0.86485 1.68796,1.68188 2.5553,2.45694 l 0.074,-0.0146 0.008,0.0812 c 0.43907,0.39068 0.88373,0.7753 1.33019,1.14554 l 0.0334,-0.0105 0.004,0.0404 c 0.45855,0.37952 0.92791,0.73973 1.38822,1.09411 l 0.15214,-0.0349 0.0367,0.18163 c 0.46376,0.35354 0.93083,0.70204 1.40267,1.03637 l 0.15235,-0.0349 0.0377,0.16343 c 0.4741,0.33269 0.94463,0.66039 1.4283,0.97565 l 0.12974,-0.0289 0.0287,0.12974 c 0.48716,0.31496 0.98018,0.62086 1.47216,0.91602 l 0.10757,-0.0228 0.0268,0.10045 c 0.49658,0.29638 0.99797,0.57981 1.49788,0.85515 l 0.1898,-0.0508 0.0508,0.1898 c 0.50899,0.27802 1.01848,0.5491 1.53348,0.80985 l 0.0892,-0.0238 0.0209,0.0781 c 0.52003,0.26183 1.04501,0.51008 1.56616,0.75322 l 0.25794,-0.0871 0.077,0.24267 c 0.52993,0.24328 1.06181,0.47695 1.59478,0.70364 l 0.131,-0.0471 0.0371,0.11572 c 1.07031,0.45171 2.13887,0.88189 3.22661,1.27771 l 0.0862,-0.0352 0.0251,0.0711 c 0.55111,0.19965 1.10365,0.39269 1.65719,0.57925 l 0.0375,-0.0168 0.0105,0.0335 c 0.5586,0.18793 1.12396,0.37178 1.6847,0.54791 l 0.18395,-0.073 0.05,0.1421 c 0.5684,0.17682 1.13876,0.33913 1.70923,0.5054 l 0.17264,-0.0701 0.0542,0.13497 c 0.50775,0.14691 1.02201,0.30266 1.53713,0.44382 0.0724,0.0209 0.14356,0.0352 0.20974,0.0454 l 0.18897,-0.0986 0.0663,0.11384 c 0.28266,-0.0105 0.57822,-0.15129 0.74005,-0.43166 l 7.85152,-13.5991 c 0.15443,-0.2676 0.17829,-0.58861 0.0596,-0.8717 l -0.10589,-0.12724 -0.074,0.0146 -0.048,-0.17872 c 0.0462,0.0365 0.0383,0.0105 -0.0414,-0.0427 -0.002,-10e-4 -0.006,-0.004 -0.008,-0.004 -0.0371,-0.0236 -0.0952,-0.0644 -0.18519,-0.0881 -0.5191,-0.13581 -1.03972,-0.26482 -1.55462,-0.39726 l -0.16552,0.0743 -0.0613,-0.13916 c -0.57981,-0.14878 -1.16403,-0.29652 -1.74193,-0.44879 l -0.17682,0.0775 -0.0613,-0.13916 c -0.57047,-0.15172 -1.13709,-0.30684 -1.71128,-0.46937 l -0.0377,0.0168 -0.008,-0.0335 c -0.56341,-0.15967 -1.12384,-0.31835 -1.68799,-0.49325 l -0.0862,0.0352 -0.0252,-0.0712 c -1.08305,-0.33786 -2.17694,-0.71006 -3.27892,-1.138 l -0.131,0.0471 -0.0412,-0.10862 c -0.52803,-0.20737 -1.05711,-0.43808 -1.5929,-0.67424 l -0.2579,0.0871 -0.074,-0.23152 c -0.5109,-0.23069 -1.03199,-0.48295 -1.55202,-0.74501 l -0.0892,0.0238 -0.0209,-0.0783 c -0.50038,-0.25423 -1.0086,-0.52337 -1.51525,-0.80874 l -0.1787,0.0479 -0.0479,-0.17872 c -0.48579,-0.27807 -0.97702,-0.56649 -1.46726,-0.87551 l -0.0808,0.12326 -0.0498,-0.208 c -0.47285,-0.30019 -0.94567,-0.622 -1.4294,-0.95742 l -0.11865,0.0258 -0.0287,-0.12974 c -0.4577,-0.32032 -0.93009,-0.65153 -1.39371,-1.00286 l -0.14815,0.0276 -0.0379,-0.16344 c -0.44817,-0.34321 -0.89815,-0.70766 -1.35582,-1.08483 l -0.14816,0.0276 -0.0367,-0.18164 c -0.44075,-0.36671 -0.88266,-0.74727 -1.33021,-1.14556 l -0.0293,0.002 -0.0105,-0.0335 c -0.42606,-0.37985 -0.8542,-0.77628 -1.28743,-1.18693 l -0.0628,0.0105 -0.0168,-0.0853 c -0.81626,-0.77648 -1.64626,-1.60992 -2.49022,-2.50424 l -0.11049,0.0125 -0.0168,-0.15109 c -0.40279,-0.42912 -0.80933,-0.86992 -1.21686,-1.32551 l -0.18772,0.0146 -0.0283,-0.2617 c -0.033,-0.0373 -0.059,-0.0626 -0.0757,-0.0814 -0.0535,-0.0605 -0.11908,-0.10778 -0.16783,-0.13456 z m -0.29506,0.46206 -8.20285,14.20783 c -0.0244,-0.0418 -0.0753,-0.09 -0.0877,-0.12598 -0.0337,-0.0992 -0.0297,-0.16092 0.0266,-0.25846 l 7.8515,-13.59909 c 0.0484,-0.0839 0.14606,-0.1672 0.24324,-0.20884 0.0783,-0.0335 0.1266,-0.0268 0.1693,-0.0147 z m 29.4306,17.01968 -8.25203,14.2928 c -0.39187,-0.10715 -0.78699,-0.22701 -1.18068,-0.34194 l 8.23153,-14.25743 c 0.40067,0.1019 0.80257,0.2032 1.20114,0.30647 z m -28.82164,-16.40467 c 0.28564,0.31488 0.57124,0.62592 0.85263,0.92646 l -8.23969,14.27167 c -0.2875,-0.30069 -0.57285,-0.60797 -0.85671,-0.91939 l 8.24366,-14.27857 z m 26.86713,15.8991 -8.22336,14.2432 c -0.39844,-0.11657 -0.79395,-0.23538 -1.19079,-0.35709 l 8.19888,-14.20072 c 0.40626,0.10567 0.81069,0.2107 1.21531,0.31459 z m -25.50903,-14.4441 c 0.71566,0.75159 1.42305,1.46205 2.12066,2.1305 l -8.20285,14.20784 c -0.72765,-0.65889 -1.44615,-1.34234 -2.15749,-2.06685 l 8.23968,-14.27166 z m 23.5336,13.92638 -8.18256,14.17247 c -0.38948,-0.12304 -0.7836,-0.24581 -1.17144,-0.37422 l 8.15389,-14.12287 c 0.40102,0.11278 0.79979,0.21645 1.2,0.32476 z m -1.76504,-0.49049 -8.14154,14.10174 c -0.38425,-0.13037 -0.76595,-0.26222 -1.14801,-0.3985 l 8.10889,-14.04503 c 0.39432,0.12012 0.78965,0.23034 1.18068,0.34194 z m -19.17948,-10.85609 c 0.30127,0.28242 0.60058,0.5625 0.89868,0.83034 l -8.17022,14.15112 c -0.30738,-0.25902 -0.61383,-0.52494 -0.91912,-0.79495 l 8.19072,-14.1867 z m 17.38108,10.30866 -8.10073,14.0308 c -0.9158,-0.33747 -1.82309,-0.69651 -2.72962,-1.07575 l 8.03942,-13.92471 c 0.93888,0.35926 1.86785,0.67613 2.79093,0.96956 z m -16.04411,-9.09327 c 0.3131,0.27489 0.62384,0.54373 0.93329,0.80311 l -8.13757,14.09462 c -0.32183,-0.24862 -0.64087,-0.50247 -0.95779,-0.76062 l 8.16205,-14.13711 z m 1.52627,1.29649 c 0.31791,0.25979 0.63511,0.51162 0.9507,0.75654 l -8.09655,14.02389 c -0.32461,-0.23405 -0.65203,-0.46914 -0.97523,-0.71408 l 8.12125,-14.06616 z m 11.06075,6.5748 -8.02707,13.90335 c -0.37017,-0.15883 -0.73443,-0.32845 -1.10196,-0.49462 l 8.01494,-13.88223 c 0.37243,0.16197 0.7442,0.32442 1.1142,0.47339 z m -9.50384,-5.36423 c 0.3257,0.24279 0.65093,0.47612 0.97225,0.70292 l -8.06809,13.9743 c -0.3298,-0.21942 -0.65919,-0.44402 -0.98862,-0.67455 l 8.08442,-14.00256 z m 7.569,4.53031 -8.00678,13.86801 c -0.3638,-0.17035 -0.72548,-0.34518 -1.08556,-0.52299 l 8.00678,-13.868 c 0.36367,0.18122 0.72413,0.35572 1.08558,0.52296 z m -6.00937,-3.42247 c 0.33535,0.23084 0.66618,0.45592 0.99979,0.67158 l -8.03942,13.92471 c -0.34137,-0.20675 -0.68169,-0.41978 -1.02018,-0.63624 l 8.05994,-13.96007 z m 4.34826,2.60489 -8.01076,13.87511 c -0.35549,-0.18247 -0.71135,-0.36683 -1.06516,-0.5583 l 8.01494,-13.88224 c 0.35443,0.19609 0.71054,0.38486 1.06104,0.56548 z m -2.77315,-1.57277 c 0.34464,0.21261 0.68158,0.42165 1.02131,0.61794 l -8.01494,13.88222 c -0.347,-0.19315 -0.6941,-0.38816 -1.03775,-0.58947 l 8.03126,-13.91048 z"
       style="text-indent:0;text-transform:none;block-progression:tb;opacity:0.47731999;color:#000000;fill:url(#linearGradient10854)"
       id="path12334"
       inkscape:connector-curvature="0" />
    <path
       d="m 364.88393,-321.65696 c 0,0 4.37964,1.1768 6.44882,2.08358 7.08163,3.10272 13.41788,5.64462 19.17949,10.8 1.28935,1.1537 4.05884,4.80298 4.05884,4.80298 -8.95599,-3.13725 -16.66311,-2.60887 -29.68799,-17.6864 z"
       id="path12336"
       inkscape:connector-curvature="0"
       style="fill:url(#linearGradient10851);stroke-width:0" />
    <path
       d="m 387.51887,-308.31474 c -0.45748,0.79239 -4.26919,-0.55191 -8.51392,-3.00272 -4.24474,-2.45081 -7.31473,-5.07983 -6.85725,-5.87222 0.45747,-0.79237 4.26918,0.55192 8.51392,3.00272 4.24474,2.45082 7.31472,5.07984 6.85725,5.87222 z"
       id="path12338"
       inkscape:connector-curvature="0"
       style="opacity:0.30731997;fill:#ffffff;stroke-width:0" />
    <path
       transform="matrix(0.94504771,0,0,0.60575045,101.11138,-370.35221)"
       d="m 209,113.55 c 0,4.747 -18.836,8.5952 -42.071,8.5952 -23.235,0 -42.071,-3.8482 -42.071,-8.5952 0,-4.747 18.836,-8.5952 42.071,-8.5952 23.235,0 42.071,3.8482 42.071,8.5952 z"
       id="path12350"
       inkscape:connector-curvature="0"
       style="opacity:0.47805002;fill:url(#linearGradient11080);stroke-width:0;filter:url(#filter12360)" />
    <path
       transform="matrix(0.38546044,0,0,0.47728457,292.50024,-331.15746)"
       d="m 209,113.55 c 0,4.747 -18.836,8.5952 -42.071,8.5952 -23.235,0 -42.071,-3.8482 -42.071,-8.5952 0,-4.747 18.836,-8.5952 42.071,-8.5952 23.235,0 42.071,3.8482 42.071,8.5952 z"
       id="path12364"
       inkscape:connector-curvature="0"
       style="opacity:0.47805002;fill:url(#linearGradient11082);stroke-width:0;filter:url(#filter12360)" />
    <path
       d="m 401.05739,-213.24601 c 23.58881,47.33987 -16.73051,123.620547 -90.05921,170.379095 -73.32496,46.7561472 -151.89357,46.2851589 -175.4824,-1.054706 -23.58882,-47.339866 16.73049,-123.620539 90.05921,-170.379099 73.32496,-46.75614 151.89356,-46.28517 175.4824,1.05471 z"
       id="path12406"
       inkscape:connector-curvature="0"
       style="opacity:0.55609999;fill:url(#linearGradient11216);stroke-width:0" />
    <path
       d="M 245.29075,-314.18631 C 136.73613,-307.63055 54.339254,-220.27584 61.253268,-119.06423 68.1677,-17.852617 161.77432,58.873263 270.32894,52.317087 378.88356,45.76133 459.80095,-40.113898 452.88484,-141.32552 445.97041,-242.53713 353.84328,-320.74249 245.28866,-314.18631 z m 1.48174,21.69 c 95.68501,-5.77877 181.15804,61.88502 187.25175,151.09965 C 440.11899,-52.182033 368.96889,36.64337 273.28388,42.423185 177.59887,48.201742 90.650549,-31.255842 84.554749,-120.47047 78.459996,-209.6851 151.08748,-286.71859 246.77249,-292.49631 z"
       id="path12430"
       inkscape:connector-curvature="0"
       style="fill:url(#linearGradient10842);stroke-width:0" />
    <path
       d="M -9.6431186,-465.77564 H 525.58606 c 0.1331,0 0.24012,0.10714 0.24012,0.2401 V 69.693568 c 0,0.133928 -0.10714,0.240233 -0.24012,0.240233 H -9.6431186 c -0.1231025,0.209262 -0.2301881,0 -0.2301881,-0.209262 V -465.39994 c 0,-0.13308 0.1070856,-0.2401 0.2401071,-0.2401 z"
       id="rect3245"
       inkscape:connector-curvature="0"
       style="opacity:0;stroke-width:0" />
    <path
       d="m 228.04757,-383.59849 c -0.55383,0.0125 -1.00806,0.73884 -1.00806,1.40082 v 32.03591 c 0,0.75656 0.57944,1.12942 1.23716,1.36746 0.0659,0.0236 0.13267,0.0429 0.19858,0.0668 v -34.77095 c -0.0666,-0.0242 -0.13183,-0.0422 -0.19858,-0.0668 -0.082,-0.0301 -0.15004,-0.0352 -0.2291,-0.0332 z m 63.87301,0.0168 c -0.0799,-0.004 -0.16093,-0.008 -0.24438,0.0168 -0.96273,0.28841 -1.92696,0.59188 -2.88676,0.88386 v 34.67051 c 0.96175,-0.25942 1.92858,-0.50988 2.88676,-0.78379 0.11174,-0.0318 0.2163,-0.0718 0.32076,-0.11676 v -34.35243 c 0,-0.10108 -0.0105,-0.20195 -0.0147,-0.3002 -0.0211,-0.004 -0.0396,-0.0146 -0.0611,-0.0168 z m 0.4735,0.20006 c -0.0242,0.19628 -0.0458,0.40709 -0.0458,0.61703 v 33.67024 c 0.34298,-0.23596 0.56511,-0.58643 0.56511,-1.0673 v -32.0359 c 0,-0.45645 -0.20445,-0.9225 -0.51928,-1.18405 z m -63.33939,0.10004 v 34.75421 c 1.07621,0.37903 2.15831,0.73528 3.22263,1.0673 v -34.72074 c -1.05419,-0.34781 -2.13176,-0.70931 -3.22263,-1.10065 z m 59.30691,0.71709 c -1.07586,0.32722 -2.15708,0.66255 -3.23791,0.98391 v 34.51985 c 1.08145,-0.26653 2.16168,-0.54628 3.23791,-0.83383 v -34.63703 c 0,-0.0125 8e-5,-0.0217 0,-0.0332 z m -55.74737,0.50028 v 34.72074 c 2.16167,0.66514 4.28359,1.23565 6.39964,1.71766 v -34.53658 c -2.05624,-0.5419 -4.1913,-1.17942 -6.39964,-1.90113 z m 52.06645,0.61704 c -1.06842,0.31577 -2.14054,0.61778 -3.22263,0.91721 v 34.33569 c 1.07533,-0.23687 2.15331,-0.49009 3.22263,-0.75043 v -34.50311 z m -3.31429,0.93386 c -1.06186,0.2931 -2.12463,0.58225 -3.20736,0.85051 v 34.15363 c 1.07377,-0.20863 2.14012,-0.43264 3.20736,-0.66704 V -380.514 z m -42.15581,0.40025 v 34.51983 c 1.0718,0.24156 2.14661,0.46971 3.20735,0.66705 v -34.40266 c -1.0494,-0.23768 -2.11814,-0.49903 -3.20735,-0.78381 z m 38.73438,0.5003 c -2.0773,0.51016 -4.20407,0.96388 -6.39965,1.33411 v 33.85229 c 2.14828,-0.29295 4.28024,-0.62575 6.39965,-1.03395 v -34.15362 z m -35.43432,0.30016 v 34.40266 c 1.0862,0.20089 2.16293,0.36053 3.23791,0.51698 v -34.25408 c -1.06049,-0.19922 -2.13572,-0.41857 -3.23791,-0.66706 z m 3.68092,0.75046 v 34.23734 c 1.07793,0.15108 2.1554,0.29168 3.22263,0.40023 v -34.10341 c -1.05419,-0.15046 -2.12652,-0.33352 -3.22263,-0.53364 z m 25.01726,0.35019 c -1.05619,0.17328 -2.12987,0.32037 -3.22263,0.45027 v 33.77069 c 1.07902,-0.11028 2.15183,-0.2409 3.22263,-0.38355 v -33.83557 z m -21.36773,0.23346 v 34.08667 c 1.07717,0.10422 2.14054,0.20382 3.20735,0.26683 4.6e-4,-0.0276 0,-0.0554 0,-0.0835 v -33.90253 c -1.04436,-0.0994 -2.12107,-0.21788 -3.20735,-0.36687 z m 17.45767,0.30019 c -1.05148,0.11446 -2.13155,0.19921 -3.22263,0.26682 v 33.75395 c 1.07774,-0.0674 2.15351,-0.1649 3.22263,-0.26683 v -33.75394 z m -13.89897,0.10004 v 33.96948 c 1.07667,0.0592 2.15602,0.0971 3.22264,0.11678 v -33.85237 c -1.05592,-0.0484 -2.1236,-0.13414 -3.22264,-0.23348 z m 10.44699,0.18353 c -1.05301,0.0617 -2.1282,0.10421 -3.22264,0.11676 v 33.77069 c 1.0796,-0.0279 2.15226,-0.0691 3.22264,-0.1333 v -33.75394 z m -6.9341,0.0666 v 33.83556 c 1.07273,0.0168 2.14409,0.004 3.20735,-0.0168 v -33.77069 c -1.04953,0.004 -2.11564,-0.004 -3.20735,-0.0498 z"
       id="rect11984"
       inkscape:connector-curvature="0"
       style="opacity:0.92920353;fill:url(#linearGradient10874);stroke-width:0" />
    <path
       d="m 226.60365,-386.52816 c 0,0 8.18655,-2.3881 12.38162,-2.89701 14.35767,-1.74172 26.98432,-3.7142 41.12415,-0.48281 3.16425,0.7231 11.0551,4.34532 11.0551,4.34532 -17.42315,3.5926 -29.4013,12.38788 -64.56149,-0.96564 z"
       id="path12314"
       inkscape:connector-curvature="0"
       style="fill:url(#linearGradient10868);stroke-width:0" />
    <path
       d="m 275.66973,-386.05502 c 0,1.8666 -7.42405,3.37981 -16.58263,3.37981 -9.15858,0 -16.58264,-1.51321 -16.58264,-3.37981 0,-1.8666 7.42406,-3.37982 16.58264,-3.37982 9.15858,0 16.58263,1.51322 16.58263,3.37982 z"
       id="path12324"
       inkscape:connector-curvature="0"
       style="opacity:0.30731997;fill:#ffffff;stroke-width:0" />
    <path
       d="m 227.14774,-386.06778 c -0.46996,0.0105 -0.83738,0.30764 -1.08441,0.66707 -0.24702,0.35942 -0.3971,0.80314 -0.3971,1.26739 v 32.03591 c 0,0.52702 0.22734,0.98976 0.53456,1.28409 0.30722,0.29431 0.67807,0.46987 1.03858,0.60035 0.0853,0.031 0.15151,0.0496 0.1986,0.0668 l 0.2902,-0.23348 0.29018,0.4336 c 1.08216,0.3811 2.16879,0.73379 3.23791,1.06727 l 0.16804,-0.1333 0.16804,0.25013 c 2.17193,0.66827 4.30263,1.24972 6.4302,1.73436 l 0.10693,-0.10004 0.0914,0.13329 c 1.07548,0.2424 2.15435,0.46831 3.22263,0.66707 l 0.0459,-0.05 0.0459,0.0668 c 1.0966,0.20278 2.19265,0.36042 3.26846,0.51696 l 0.21385,-0.2168 0.22909,0.28351 c 1.08074,0.15151 2.1621,0.29082 3.23792,0.40024 l 0.21382,-0.2168 0.21382,0.25016 c 1.078,0.1042 2.14556,0.20319 3.22263,0.26682 l 0.18332,-0.18352 0.16803,0.20005 c 1.08257,0.0595 2.16608,0.0971 3.23792,0.11678 l 0.15276,-0.15004 0.13748,0.15004 c 1.08041,0.0168 2.15644,0.004 3.22264,-0.0168 l 0.25969,-0.28357 0.25966,0.28351 c 1.08335,-0.0279 2.16104,-0.0687 3.23791,-0.13329 l 0.12221,-0.13351 0.10692,0.11676 c 1.08612,-0.068 2.16754,-0.1649 3.23792,-0.26683 l 0.33602,-0.41691 0.35129,0.3502 c 1.08478,-0.11091 2.16378,-0.24044 3.23792,-0.38353 l 0.16804,-0.21683 0.16803,0.16678 c 2.15393,-0.29373 4.28505,-0.62372 6.41492,-1.03393 l 0.10694,-0.15004 0.10693,0.10004 c 1.0782,-0.20958 2.15268,-0.43209 3.22264,-0.66707 l 0.0458,-0.0668 0.0459,0.05 c 1.07945,-0.23778 2.16607,-0.4895 3.2379,-0.75043 l 0.22911,-0.31684 0.21384,0.20005 c 1.08488,-0.2674 2.15959,-0.56237 3.23791,-0.8505 l 0.21382,-0.30019 0.21386,0.18352 c 0.95877,-0.25864 1.93653,-0.50778 2.90203,-0.7838 0.13581,-0.0387 0.26533,-0.0833 0.38182,-0.13352 l 0.21385,-0.36687 0.21383,0.13329 c 0.44715,-0.30761 0.7942,-0.85725 0.7942,-1.51754 v -32.03591 c 0,-0.63033 -0.26132,-1.2218 -0.71783,-1.60093 l -0.2902,-0.11677 -0.10693,0.10004 -0.24437,-0.26682 c 0.10881,0.0168 0.0703,-0.0236 -0.10694,-0.0332 -0.002,-1.7e-4 -0.0125,1.8e-4 -0.0146,0 -0.0824,-0.004 -0.21437,-0.0168 -0.38183,0.0332 -0.96683,0.28962 -1.92981,0.59273 -2.88676,0.88384 l -0.19859,0.30018 -0.22911,-0.18352 c -1.07744,0.32773 -2.16063,0.66355 -3.23791,0.98391 l -0.21382,0.31684 -0.22909,-0.18352 c -1.06473,0.31467 -2.12653,0.61815 -3.20736,0.91722 l -0.0459,0.0668 -0.0458,-0.05 c -1.06079,0.29278 -2.11606,0.58387 -3.19208,0.85049 l -0.10694,0.15004 -0.10693,-0.10004 c -2.06817,0.50792 -4.18587,0.966 -6.36909,1.33411 l -0.16804,0.2168 -0.16803,-0.15005 c -1.04827,0.17201 -2.11983,0.30431 -3.20737,0.4336 l -0.336,0.41689 -0.33604,-0.33353 c -1.04223,0.11363 -2.12108,0.19943 -3.20736,0.26684 l -0.12221,0.13329 -0.10693,-0.11676 c -1.04719,0.0615 -2.12108,0.10421 -3.20736,0.11676 l -0.24437,0.26683 -0.24438,-0.26683 c -1.04587,0.004 -2.1102,-0.004 -3.19208,-0.05 l -0.0146,0.30018 -0.27493,-0.31686 c -1.04556,-0.048 -2.11144,-0.13434 -3.20735,-0.23345 l -0.16804,0.16679 -0.16804,-0.20006 c -1.03986,-0.099 -2.11375,-0.20236 -3.19208,-0.35022 l -0.21382,0.20005 -0.21382,-0.25013 c -1.04585,-0.14921 -2.11439,-0.33412 -3.20736,-0.53366 l -0.21383,0.20005 -0.2291,-0.28348 c -1.05581,-0.19838 -2.12631,-0.41991 -3.22263,-0.66707 l -0.0459,0.0332 -0.0459,-0.0498 c -1.04426,-0.23651 -2.10747,-0.5002 -3.19208,-0.78377 l -0.0917,0.0835 -0.10693,-0.13351 c -2.04627,-0.53928 -4.16808,-1.16508 -6.3691,-1.88444 l -0.16803,0.13351 -0.16804,-0.25015 c -1.0527,-0.34733 -2.12233,-0.71143 -3.20736,-1.10066 l -0.29021,0.2168 -0.29019,-0.4336 c -0.0885,-0.0322 -0.15381,-0.0502 -0.1986,-0.0668 -0.14313,-0.0523 -0.29336,-0.0691 -0.39712,-0.0668 z m -0.0458,1.11731 v 33.46935 c -0.0789,-0.0488 -0.20592,-0.0818 -0.25966,-0.1335 -0.1469,-0.14085 -0.19859,-0.25409 -0.19859,-0.48363 v -32.03591 c 0,-0.19776 0.0802,-0.44453 0.19859,-0.61703 0.0956,-0.13916 0.17976,-0.17641 0.25966,-0.20005 z m 63.52145,0.05 v 33.67023 c -0.73445,0.20933 -1.48557,0.4017 -2.2299,0.60035 v -33.58652 c 0.74374,-0.22798 1.48857,-0.45961 2.2299,-0.68375 z m -61.96454,0.41691 c 0.75637,0.26494 1.5091,0.52319 2.24516,0.76713 v 33.62002 c -0.74616,-0.238 -1.49494,-0.4898 -2.24516,-0.75046 v -33.63675 z m 58.32966,0.68374 v 33.55306 c -0.75374,0.19984 -1.50464,0.39401 -2.26045,0.58367 v -33.45261 c 0.75632,-0.2269 1.50882,-0.45394 2.26045,-0.68375 z m -54.77012,0.50032 c 1.86019,0.59789 3.66857,1.13155 5.42218,1.60094 v 33.46936 c -1.79298,-0.42186 -3.59407,-0.89645 -5.42218,-1.45085 v -33.62001 z m 51.0892,0.60035 v 33.38566 c -0.74524,0.17975 -1.49761,0.36505 -2.24517,0.53363 v -33.26846 c 0.75443,-0.20966 1.49662,-0.43281 2.24517,-0.65036 z m -3.31429,0.93388 v 33.22033 c -0.74354,0.16154 -1.48436,0.31795 -2.2299,0.46694 v -33.0864 c 0.75034,-0.19 1.49296,-0.39859 2.2299,-0.60035 z m -41.17647,0.38356 c 0.75133,0.19168 1.49731,0.38121 2.2299,0.55031 v 33.33543 c -0.73938,-0.14419 -1.48367,-0.30135 -2.2299,-0.46693 v -33.41913 z m 37.75503,0.48362 v 33.05292 c -1.79716,0.33802 -3.60076,0.62908 -5.42197,0.88386 v -32.80181 c 1.8549,-0.32302 3.65413,-0.71078 5.42197,-1.13399 z m -34.45706,0.30017 c 0.76343,0.16636 1.5174,0.32433 2.26045,0.46694 v 33.20358 c -0.75307,-0.11111 -1.50647,-0.23407 -2.26045,-0.36689 v -33.30194 z m 3.68092,0.73376 c 0.75719,0.13476 1.5057,0.25605 2.24516,0.36689 v 33.03618 c -0.74393,-0.0824 -1.49339,-0.16365 -2.24516,-0.26682 v -33.13662 z m 24.04001,0.33353 v 32.75159 c -0.74727,0.0971 -1.49522,0.16887 -2.24517,0.25015 v -32.70345 c 0.75407,-0.0933 1.50729,-0.18604 2.24517,-0.30017 z m -20.39007,0.21678 c 0.75385,0.0967 1.49813,0.17724 2.2299,0.25015 v 32.919 c -0.73863,-0.0515 -1.48147,-0.11217 -2.2299,-0.18353 v -32.98596 z m 16.48022,0.2835 v 32.66998 c -0.7479,0.0701 -1.49643,0.13036 -2.24517,0.18352 v -32.66998 c 0.75784,-0.0506 1.50405,-0.11006 2.24517,-0.18352 z m -12.9213,0.0835 c 0.75824,0.0654 1.50391,0.12597 2.24517,0.16678 v 32.80181 c -0.74555,-0.0168 -1.49524,-0.0465 -2.24517,-0.0835 v -32.88551 z m 9.46952,0.16678 v 32.68671 c -0.74568,0.0404 -1.49379,0.0775 -2.24517,0.10004 v -32.70345 c 0.75676,-0.0146 1.50932,-0.0451 2.24517,-0.0835 z m -5.95664,0.05 c 0.75631,0.0242 1.49679,0.0498 2.2299,0.05 v 32.70345 c -0.74186,0.0125 -1.48579,0.0222 -2.2299,0.0168 v -32.76832 z"
       style="text-indent:0;text-transform:none;block-progression:tb;opacity:0.47731999;color:#000000;fill:url(#linearGradient10871)"
       id="path12292"
       inkscape:connector-curvature="0" />
    <g
       id="text5710-1"
       style="fill:#0e232e;display:inline"
       transform="matrix(2.0926191,0,0,2.0926191,111.75724,-2139.8924)">
      <path
         d="m 103.26787,909.73943 v -1.3292 c 0.48246,0.29539 0.9961,0.44308 1.5409,0.44308 0.41026,0 0.73108,-0.0976 0.96247,-0.29292 0.23138,-0.19528 0.34708,-0.46031 0.34708,-0.79508 -1e-5,-0.69908 -0.49395,-1.0486 -1.4819,-1.0486 -0.32164,0 -0.71057,0.0295 -1.1668,0.0886 v -3.9434 h 3.9089 v 1.2702 h -2.5797 v 1.4129 c 0.20677,-0.0197 0.40205,-0.0295 0.58585,-0.0295 0.72533,1e-5 1.2931,0.19037 1.7034,0.57108 0.41025,0.38073 0.61539,0.89273 0.61539,1.536 0,0.71221 -0.24452,1.294 -0.73354,1.7452 -0.48903,0.45128 -1.152,0.67692 -1.9889,0.67692 -0.67939,0 -1.2505,-0.10174 -1.7132,-0.30523 z"
         id="path3337-7"
         inkscape:connector-curvature="0" />
    </g>
  </g>
  <g
     inkscape:groupmode="layer"
     id="layer3"
     inkscape:label="inner circle"
     sodipodi:insensitive="true">
    <path
       d="m 330.45604,239.8332 c 0,35.7367 -31.57076,64.7084 -70.51682,64.7084 -38.94401,0 -70.5168,-28.97026 -70.5168,-64.7084 0,-35.7367 31.57073,-64.70838 70.5168,-64.70838 38.94402,0 70.51682,28.97026 70.51682,64.70838 z"
       id="path11691"
       inkscape:connector-curvature="0"
       style="opacity:0.61951001;fill:url(#radialGradient5473);fill-opacity:1;stroke:#0a0707;stroke-width:0.52100003;stroke-linecap:round;stroke-linejoin:bevel;stroke-miterlimit:4;stroke-opacity:0.89940999;stroke-dasharray:none" />
    <g
       transform="matrix(0.52124113,0,0,0.52126505,70.744144,-203.20948)"
       id="g11741"
       style="fill:#0e232e">
      <g
         id="g11743">
        <path
           d="m 344.78,869.9 c -0.9008,1.8326 5.0345,4.1526 5.7078,2.2248 12.786,-36.612 42.412,-102.2 42.412,-102.2 l 0.30268,-0.11092 c 0,0 -28.744,60.051 -48.422,100.08 z"
           id="path11745"
           inkscape:connector-curvature="0"
           style="fill:#0e232e;stroke:#000000;stroke-width:0.69469738px" />
      </g>
      <path
         d="m 452.55,837.7 c 0,6.4158 -4.7487,11.617 -10.607,11.617 -5.8579,0 -10.607,-5.201 -10.607,-11.617 0,-6.4158 4.7487,-11.617 10.607,-11.617 5.8579,0 10.607,5.201 10.607,11.617 z"
         transform="matrix(1.2047,0.3228,-0.30088,1.1229,80.362,-240.65)"
         id="path11747"
         inkscape:connector-curvature="0"
         style="stroke-width:0" />
    </g>
    <path
       style="fill:url(#radialGradient5522);fill-opacity:1;stroke:#0a0707;stroke-width:0.52100003;stroke-linecap:round;stroke-linejoin:bevel;stroke-miterlimit:4;stroke-opacity:0.89940999;stroke-dasharray:none"
       inkscape:connector-curvature="0"
       id="path5512"
       d="m 330.74391,239.8332 -10.57574,0 m 0.30814,33.58201 -8.86778,-5.77834 m -17.51515,29.1014 -4.75287,-9.43125 m -29.63274,17.5221 0.0326,-10.57601 m -34.36747,2.27568 4.81184,-9.40045 m -31.0343,-14.1025 8.90808,-5.71528 m -18.922,-27.94087 10.57169,0.0871 m -0.0516,-33.59313 8.82697,5.84112 m 17.71506,-28.98342 4.69385,9.46162 m 29.74121,-17.3428 -0.0979,10.57625 m 34.38059,-2.06677 -4.8707,9.36926 m 30.88359,14.3128 -7.19774,5.65188"
       inkscape:path-effect="#path-effect5514"
       inkscape:original-d="m 330.45604,239.8332 c 0,35.7367 -31.57076,64.7084 -70.51682,64.7084 -38.94401,0 -70.5168,-28.97026 -70.5168,-64.7084 0,-35.7367 31.57073,-64.70838 70.5168,-64.70838 38.94402,0 70.51682,28.97026 70.51682,64.70838 z" />
  </g>
  <g
     inkscape:groupmode="layer"
     id="layer2"
     inkscape:label="ticks"
     style="display:inline"
     sodipodi:insensitive="true">
    <path
       style="opacity:0.79203539;fill:none;stroke:#323232;stroke-width:1;stroke-linecap:butt;stroke-linejoin:miter;stroke-miterlimit:4;stroke-opacity:1;stroke-dashoffset:0"
       d="m 426.28789,323.42857 -10.57574,0 m 9.63778,17.0657 -10.51185,-1.1563 m 7.72277,18.01663 -10.32407,-2.29003 m 5.7198,18.7476 -10.0124,-3.40122 m 3.62981,19.25727 -9.57653,-4.48409 m 1.50314,19.54187 -9.03698,-5.49042 m -0.59538,19.59977 -8.40774,-6.41668 m -2.65604,19.43471 -7.6888,-7.2629 m -4.67584,19.04791 -6.88672,-8.02469 m -6.62807,18.46306 -6.02623,-8.69044 m -8.48471,17.69229 -5.10963,-9.25989 m -10.24403,16.73585 -4.13694,-9.73307 m -11.90017,15.59514 -3.11811,-10.10335 m -13.42628,14.30906 -2.088,-10.36707 m -14.79403,12.90076 -1.04811,-10.52452 m -16.00227,11.37064 0.002,-10.57574 m -17.05167,9.72468 1.05116,-10.52422 m -17.93245,7.98562 2.09102,-10.36645 m -18.63417,6.15589 3.12109,-10.10243 m -19.15647,4.23555 4.13986,-9.73183 m -19.49129,2.25129 5.1124,-9.25837 m -19.62065,0.2522 6.02882,-8.68864 m -19.54047,-1.7538 6.88915,-8.0226 m -19.25021,-3.76619 7.69103,-7.26054 m -18.75082,-5.76089 8.4097,-6.41409 m -18.03769,-7.69823 9.03868,-5.4876 m -17.10733,-9.57274 9.57797,-4.48104 m -15.95546,-11.37707 10.01349,-3.39801 m -14.61251,-13.06102 10.3248,-2.28676 m -13.108531,-14.57446 10.512221,-1.15295 m -11.444723,-15.91306 10.575733,0.003 m -9.63232,-17.0688 10.51149,1.15964 m -7.71706,-18.01908 10.32334,2.29331 m -5.71383,-18.74942 10.01131,3.40443 m -3.6236,-19.25842 9.57509,4.48715 m -1.49697,-19.54236 9.03528,5.49323 m 0.60144,-19.59961 8.40577,6.41927 m 2.662,-19.4339 7.68657,7.26524 m 4.68166,-19.04646 6.88429,8.02677 m 6.63363,-18.46108 6.02363,8.69224 m 8.48998,-17.68978 5.10688,9.26142 m 10.24902,-16.73278 4.13402,9.7343 m 11.90483,-15.59157 3.11511,10.10427 m 13.43052,-14.30512 2.08497,10.36767 m 14.79779,-12.89646 1.04506,10.52482 m 16.00556,-11.366 -0.005,10.57575 m 17.05451,-9.71974 -1.05422,10.52392 m 17.93476,-7.98042 -2.09403,10.36583 m 18.63596,-6.15041 -3.12409,10.1015 m 19.15772,-4.22981 -4.14278,9.73058 m 19.49197,-2.24546 -5.11515,9.25685 m 19.62072,-0.24636 -6.03142,8.68684 m 19.53994,1.75966 -6.89158,8.02052 m 19.24905,3.77206 -7.69326,7.25819 m 18.74906,5.76662 -8.41167,6.41151 m 18.03529,7.70379 -9.04038,5.48478 m 17.1043,9.57811 -9.57942,4.47799 m 15.71838,11.38218 -8.93562,3.3948 m 13.2253,13.0657 -7.84086,2.28348 m 10.31514,14.57862 -6.62221,1.14961 m 6.12197,15.81689 -0.0876,0"
       id="path5315"
       inkscape:connector-curvature="0"
       inkscape:path-effect="#path-effect5338"
       inkscape:original-d="m 424.00002,323.42857 c 0,87.41879 -73.16947,158.28572 -163.42858,158.28572 -90.25911,0 -163.428572,-70.86693 -163.428572,-158.28572 0,-87.41879 73.169462,-158.28572 163.428572,-158.28572 90.25911,0 163.42858,70.86693 163.42858,158.28572 z" />
    <path
       style="opacity:0.79203539;fill:none;stroke:#000000;stroke-width:1;stroke-linecap:butt;stroke-linejoin:miter;stroke-miterlimit:4;stroke-opacity:1;stroke-dashoffset:0;display:inline"
       d="m 430.43181,323.71428 -15.86362,0 m -7.51581,83.43097 -13.55651,-8.2339 m -49.04328,68.06123 -7.66782,-13.88799 m -76.17659,35.34721 -0.003,-15.86361 m -83.85017,-5.56005 7.66186,-13.89128 m -70.28781,-45.90862 13.55282,-8.23999 m -36.970495,-75.18016 15.863595,-0.007 m 7.47757,-83.43442 13.56019,8.22781 m 49.01342,-68.08256 7.67378,13.8847 m 76.16152,-35.37948 0.01,15.86363 m 83.85261,5.52448 -7.65591,13.89457 m 70.308,45.87789 -13.54914,8.24608 m 37.00506,75.16323 -15.86358,0.0147"
       id="path5315-2"
       inkscape:connector-curvature="0"
       inkscape:path-effect="#path-effect5338-8"
       inkscape:original-d="M 424,323.71428 C 424,411.13307 350.83053,482 260.57142,482 170.31231,482 97.142849,411.13307 97.142849,323.71428 c 0,-87.41879 73.169461,-158.28572 163.428571,-158.28572 90.25911,0 163.42858,70.86693 163.42858,158.28572 z" />
  </g>
</svg>
